STARTFONT 2.1
FONT -Unscii-Unscii-Medium-R-Normal-Medium-16-160-75-75-c-80-iso10646-1
SIZE 16 75 75
FONTBOUNDINGBOX 16 16 0 -2
STARTPROPERTIES 24
COPYRIGHT ""
FONT_VERSION "1.2"
FONT_TYPE "Bitmap"
FOUNDRY "Unscii"
FAMILY_NAME "Unscii"
WEIGHT_NAME "Medium"
SLANT "R"
SETWIDTH_NAME "Normal"
ADD_STYLE_NAME "Medium"
PIXEL_SIZE 16
POINT_SIZE 160
RESOLUTION_X 75
RESOLUTION_Y 75
SPACING "C"
AVERAGE_WIDTH 80
CHARSET_REGISTRY "ISO10646"
CHARSET_ENCODING "1"
UNDERLINE_POSITION 1
UNDERLINE_THICKNESS 1
CAP_HEIGHT 11
X_HEIGHT 7
FONT_ASCENT 16
FONT_DESCENT 0
DEFAULT_CHAR 63
ENDPROPERTIES
CHARS 5864
STARTCHAR U+00000
ENCODING 0
SWIDTH 500 0
DWIDTH 8 0
BBX 8 16 0 0
BITMAP 
00
00
7E
7E
7E
7E
7E
7E
7E
7E
7E
7E
7E
00
00
00
ENDCHAR
STARTCHAR U+00001
ENCODING 1
SWIDTH 500 0
DWIDTH 8 0
BBX 8 16 0 0
BITMAP 
00
00
7E
7E
7E
7E
7E
7E
7E
7E
7E
7E
7E
00
00
00
ENDCHAR
STARTCHAR U+00002
ENCODING 2
SWIDTH 500 0
DWIDTH 8 0
BBX 8 16 0 0
BITMAP 
00
00
66
88
88
66
00
FE
FE
86
92
86
92
86
FE
FE
ENDCHAR
STARTCHAR U+00003
ENCODING 3
SWIDTH 500 0
DWIDTH 8 0
BBX 8 16 0 0
BITMAP 
00
00
66
88
88
66
00
FE
FE
C6
92
9E
92
C6
FE
FE
ENDCHAR
STARTCHAR U+00004
ENCODING 4
SWIDTH 500 0
DWIDTH 8 0
BBX 8 16 0 0
BITMAP 
00
00
7E
7E
7E
7E
7E
7E
7E
7E
7E
7E
7E
00
00
00
ENDCHAR
STARTCHAR U+00005
ENCODING 5
SWIDTH 500 0
DWIDTH 8 0
BBX 8 16 0 0
BITMAP 
00
00
7E
7E
7E
7E
7E
7E
7E
7E
7E
7E
7E
00
00
00
ENDCHAR
STARTCHAR U+00006
ENCODING 6
SWIDTH 500 0
DWIDTH 8 0
BBX 8 16 0 0
BITMAP 
00
00
7E
7E
7E
7E
7E
7E
7E
7E
7E
7E
7E
00
00
00
ENDCHAR
STARTCHAR U+00007
ENCODING 7
SWIDTH 500 0
DWIDTH 8 0
BBX 8 16 0 0
BITMAP 
00
00
7E
7E
7E
7E
7E
7E
7E
7E
7E
7E
7E
00
00
00
ENDCHAR
STARTCHAR U+00008
ENCODING 8
SWIDTH 500 0
DWIDTH 8 0
BBX 8 16 0 0
BITMAP 
00
00
7E
7E
7E
7E
7E
7E
7E
7E
7E
7E
7E
00
00
00
ENDCHAR
STARTCHAR U+00009
ENCODING 9
SWIDTH 500 0
DWIDTH 8 0
BBX 8 16 0 0
BITMAP 
00
00
7E
7E
7E
7E
7E
7E
7E
7E
7E
7E
7E
00
00
00
ENDCHAR
STARTCHAR U+0000A
ENCODING 10
SWIDTH 500 0
DWIDTH 8 0
BBX 8 16 0 0
BITMAP 
00
00
7E
7E
7E
7E
7E
7E
7E
7E
7E
7E
7E
00
00
00
ENDCHAR
STARTCHAR U+0000B
ENCODING 11
SWIDTH 500 0
DWIDTH 8 0
BBX 8 16 0 0
BITMAP 
00
00
7E
7E
7E
7E
7E
7E
7E
7E
7E
7E
7E
00
00
00
ENDCHAR
STARTCHAR U+0000C
ENCODING 12
SWIDTH 500 0
DWIDTH 8 0
BBX 8 16 0 0
BITMAP 
00
00
7E
7E
7E
7E
7E
7E
7E
7E
7E
7E
7E
00
00
00
ENDCHAR
STARTCHAR U+0000D
ENCODING 13
SWIDTH 500 0
DWIDTH 8 0
BBX 8 16 0 0
BITMAP 
00
00
7E
7E
7E
7E
7E
7E
7E
7E
7E
7E
7E
00
00
00
ENDCHAR
STARTCHAR U+0000E
ENCODING 14
SWIDTH 500 0
DWIDTH 8 0
BBX 8 16 0 0
BITMAP 
00
00
7E
7E
7E
7E
7E
7E
7E
7E
7E
7E
7E
00
00
00
ENDCHAR
STARTCHAR U+0000F
ENCODING 15
SWIDTH 500 0
DWIDTH 8 0
BBX 8 16 0 0
BITMAP 
00
00
66
88
88
66
00
FE
FE
C6
92
92
92
C6
FE
FE
ENDCHAR
STARTCHAR U+00010
ENCODING 16
SWIDTH 500 0
DWIDTH 8 0
BBX 8 16 0 0
BITMAP 
00
00
7E
7E
7E
7E
7E
7E
7E
7E
7E
7E
7E
00
00
00
ENDCHAR
STARTCHAR U+00011
ENCODING 17
SWIDTH 500 0
DWIDTH 8 0
BBX 8 16 0 0
BITMAP 
00
00
7E
7E
7E
7E
7E
7E
7E
7E
7E
7E
7E
00
00
00
ENDCHAR
STARTCHAR U+00012
ENCODING 18
SWIDTH 500 0
DWIDTH 8 0
BBX 8 16 0 0
BITMAP 
00
00
7E
7E
7E
7E
7E
7E
7E
7E
7E
7E
7E
00
00
00
ENDCHAR
STARTCHAR U+00013
ENCODING 19
SWIDTH 500 0
DWIDTH 8 0
BBX 8 16 0 0
BITMAP 
00
00
7E
7E
7E
7E
7E
7E
7E
7E
7E
7E
7E
00
00
00
ENDCHAR
STARTCHAR U+00014
ENCODING 20
SWIDTH 500 0
DWIDTH 8 0
BBX 8 16 0 0
BITMAP 
00
00
7E
7E
7E
7E
7E
7E
7E
7E
7E
7E
7E
00
00
00
ENDCHAR
STARTCHAR U+00015
ENCODING 21
SWIDTH 500 0
DWIDTH 8 0
BBX 8 16 0 0
BITMAP 
00
00
7E
7E
7E
7E
7E
7E
7E
7E
7E
7E
7E
00
00
00
ENDCHAR
STARTCHAR U+00016
ENCODING 22
SWIDTH 500 0
DWIDTH 8 0
BBX 8 16 0 0
BITMAP 
00
00
66
88
88
66
00
FE
FE
86
92
86
92
92
FE
FE
ENDCHAR
STARTCHAR U+00017
ENCODING 23
SWIDTH 500 0
DWIDTH 8 0
BBX 8 16 0 0
BITMAP 
00
00
7E
7E
7E
7E
7E
7E
7E
7E
7E
7E
7E
00
00
00
ENDCHAR
STARTCHAR U+00018
ENCODING 24
SWIDTH 500 0
DWIDTH 8 0
BBX 8 16 0 0
BITMAP 
00
00
7E
7E
7E
7E
7E
7E
7E
7E
7E
7E
7E
00
00
00
ENDCHAR
STARTCHAR U+00019
ENCODING 25
SWIDTH 500 0
DWIDTH 8 0
BBX 8 16 0 0
BITMAP 
00
00
7E
7E
7E
7E
7E
7E
7E
7E
7E
7E
7E
00
00
00
ENDCHAR
STARTCHAR U+0001A
ENCODING 26
SWIDTH 500 0
DWIDTH 8 0
BBX 8 16 0 0
BITMAP 
00
00
7E
7E
7E
7E
7E
7E
7E
7E
7E
7E
7E
00
00
00
ENDCHAR
STARTCHAR U+0001B
ENCODING 27
SWIDTH 500 0
DWIDTH 8 0
BBX 8 16 0 0
BITMAP 
00
00
7E
7E
7E
7E
7E
7E
7E
7E
7E
7E
7E
00
00
00
ENDCHAR
STARTCHAR U+0001C
ENCODING 28
SWIDTH 500 0
DWIDTH 8 0
BBX 8 16 0 0
BITMAP 
00
00
7E
7E
7E
7E
7E
7E
7E
7E
7E
7E
7E
00
00
00
ENDCHAR
STARTCHAR U+0001D
ENCODING 29
SWIDTH 500 0
DWIDTH 8 0
BBX 8 16 0 0
BITMAP 
00
00
7E
7E
7E
7E
7E
7E
7E
7E
7E
7E
7E
00
00
00
ENDCHAR
STARTCHAR U+0001E
ENCODING 30
SWIDTH 500 0
DWIDTH 8 0
BBX 8 16 0 0
BITMAP 
00
00
7E
7E
7E
7E
7E
7E
7E
7E
7E
7E
7E
00
00
00
ENDCHAR
STARTCHAR U+0001F
ENCODING 31
SWIDTH 500 0
DWIDTH 8 0
BBX 8 16 0 0
BITMAP 
00
00
66
88
88
66
00
FE
FE
92
92
92
92
C6
FE
FE
ENDCHAR
STARTCHAR U+00020
ENCODING 32
SWIDTH 500 0
DWIDTH 8 0
BBX 8 16 0 0
BITMAP 
00
00
00
00
00
00
00
00
00
00
00
00
00
00
00
00
ENDCHAR
STARTCHAR U+00021
ENCODING 33
SWIDTH 500 0
DWIDTH 8 0
BBX 8 16 0 0
BITMAP 
00
00
00
00
18
3C
3C
3C
18
18
00
18
18
00
00
00
ENDCHAR
STARTCHAR U+00022
ENCODING 34
SWIDTH 500 0
DWIDTH 8 0
BBX 8 16 0 0
BITMAP 
00
00
00
00
66
66
66
00
00
00
00
00
00
00
00
00
ENDCHAR
STARTCHAR U+00023
ENCODING 35
SWIDTH 500 0
DWIDTH 8 0
BBX 8 16 0 0
BITMAP 
00
00
6C
6C
6C
6C
FE
6C
6C
6C
FE
6C
6C
00
00
00
ENDCHAR
STARTCHAR U+00024
ENCODING 36
SWIDTH 500 0
DWIDTH 8 0
BBX 8 16 0 0
BITMAP 
00
00
18
18
3C
66
60
30
18
0C
06
66
3C
18
18
00
ENDCHAR
STARTCHAR U+00025
ENCODING 37
SWIDTH 500 0
DWIDTH 8 0
BBX 8 16 0 0
BITMAP 
00
00
00
70
D8
DA
76
0C
18
30
6E
5B
1B
0E
00
00
ENDCHAR
STARTCHAR U+00026
ENCODING 38
SWIDTH 500 0
DWIDTH 8 0
BBX 8 16 0 0
BITMAP 
00
00
70
D8
D8
D8
70
C0
DE
CC
CC
CC
76
00
00
00
ENDCHAR
STARTCHAR U+00027
ENCODING 39
SWIDTH 500 0
DWIDTH 8 0
BBX 8 16 0 0
BITMAP 
00
00
00
00
18
18
18
00
00
00
00
00
00
00
00
00
ENDCHAR
STARTCHAR U+00028
ENCODING 40
SWIDTH 500 0
DWIDTH 8 0
BBX 8 16 0 0
BITMAP 
00
00
0C
18
18
18
30
30
30
30
30
18
18
18
0C
00
ENDCHAR
STARTCHAR U+00029
ENCODING 41
SWIDTH 500 0
DWIDTH 8 0
BBX 8 16 0 0
BITMAP 
00
00
30
18
18
18
0C
0C
0C
0C
0C
18
18
18
30
00
ENDCHAR
STARTCHAR U+0002A
ENCODING 42
SWIDTH 500 0
DWIDTH 8 0
BBX 8 16 0 0
BITMAP 
00
00
00
00
00
00
6C
38
FE
38
6C
00
00
00
00
00
ENDCHAR
STARTCHAR U+0002B
ENCODING 43
SWIDTH 500 0
DWIDTH 8 0
BBX 8 16 0 0
BITMAP 
00
00
00
00
00
00
18
18
7E
18
18
00
00
00
00
00
ENDCHAR
STARTCHAR U+0002C
ENCODING 44
SWIDTH 500 0
DWIDTH 8 0
BBX 8 16 0 0
BITMAP 
00
00
00
00
00
00
00
00
00
00
00
1C
1C
0C
18
00
ENDCHAR
STARTCHAR U+0002D
ENCODING 45
SWIDTH 500 0
DWIDTH 8 0
BBX 8 16 0 0
BITMAP 
00
00
00
00
00
00
00
00
7E
00
00
00
00
00
00
00
ENDCHAR
STARTCHAR U+0002E
ENCODING 46
SWIDTH 500 0
DWIDTH 8 0
BBX 8 16 0 0
BITMAP 
00
00
00
00
00
00
00
00
00
00
00
1C
1C
00
00
00
ENDCHAR
STARTCHAR U+0002F
ENCODING 47
SWIDTH 500 0
DWIDTH 8 0
BBX 8 16 0 0
BITMAP 
00
00
06
06
06
06
0C
0C
18
18
30
30
60
60
00
00
ENDCHAR
STARTCHAR U+00030
ENCODING 48
SWIDTH 500 0
DWIDTH 8 0
BBX 8 16 0 0
BITMAP 
00
00
3C
66
6E
6E
6E
66
76
76
76
66
3C
00
00
00
ENDCHAR
STARTCHAR U+00031
ENCODING 49
SWIDTH 500 0
DWIDTH 8 0
BBX 8 16 0 0
BITMAP 
00
00
0C
1C
7C
0C
0C
0C
0C
0C
0C
0C
0C
00
00
00
ENDCHAR
STARTCHAR U+00032
ENCODING 50
SWIDTH 500 0
DWIDTH 8 0
BBX 8 16 0 0
BITMAP 
00
00
3C
66
66
66
66
06
0C
18
30
60
7E
00
00
00
ENDCHAR
STARTCHAR U+00033
ENCODING 51
SWIDTH 500 0
DWIDTH 8 0
BBX 8 16 0 0
BITMAP 
00
00
3C
66
66
66
06
1C
06
66
66
66
3C
00
00
00
ENDCHAR
STARTCHAR U+00034
ENCODING 52
SWIDTH 500 0
DWIDTH 8 0
BBX 8 16 0 0
BITMAP 
00
00
60
60
60
60
6C
6C
6C
CC
FE
0C
0C
00
00
00
ENDCHAR
STARTCHAR U+00035
ENCODING 53
SWIDTH 500 0
DWIDTH 8 0
BBX 8 16 0 0
BITMAP 
00
00
7E
60
60
60
60
7C
06
06
06
0C
78
00
00
00
ENDCHAR
STARTCHAR U+00036
ENCODING 54
SWIDTH 500 0
DWIDTH 8 0
BBX 8 16 0 0
BITMAP 
00
00
1C
18
30
7C
66
66
66
66
66
66
3C
00
00
00
ENDCHAR
STARTCHAR U+00037
ENCODING 55
SWIDTH 500 0
DWIDTH 8 0
BBX 8 16 0 0
BITMAP 
00
00
7E
06
0C
0C
0C
18
18
30
30
30
30
00
00
00
ENDCHAR
STARTCHAR U+00038
ENCODING 56
SWIDTH 500 0
DWIDTH 8 0
BBX 8 16 0 0
BITMAP 
00
00
3C
66
66
66
76
3C
6E
66
66
66
3C
00
00
00
ENDCHAR
STARTCHAR U+00039
ENCODING 57
SWIDTH 500 0
DWIDTH 8 0
BBX 8 16 0 0
BITMAP 
00
00
3C
66
66
66
66
66
66
3E
0C
18
38
00
00
00
ENDCHAR
STARTCHAR U+0003A
ENCODING 58
SWIDTH 500 0
DWIDTH 8 0
BBX 8 16 0 0
BITMAP 
00
00
00
00
00
00
1C
1C
00
00
00
1C
1C
00
00
00
ENDCHAR
STARTCHAR U+0003B
ENCODING 59
SWIDTH 500 0
DWIDTH 8 0
BBX 8 16 0 0
BITMAP 
00
00
00
00
00
00
1C
1C
00
00
00
1C
1C
0C
18
00
ENDCHAR
STARTCHAR U+0003C
ENCODING 60
SWIDTH 500 0
DWIDTH 8 0
BBX 8 16 0 0
BITMAP 
00
00
00
00
06
0C
18
30
60
30
18
0C
06
00
00
00
ENDCHAR
STARTCHAR U+0003D
ENCODING 61
SWIDTH 500 0
DWIDTH 8 0
BBX 8 16 0 0
BITMAP 
00
00
00
00
00
00
00
7E
00
7E
00
00
00
00
00
00
ENDCHAR
STARTCHAR U+0003E
ENCODING 62
SWIDTH 500 0
DWIDTH 8 0
BBX 8 16 0 0
BITMAP 
00
00
00
00
60
30
18
0C
06
0C
18
30
60
00
00
00
ENDCHAR
STARTCHAR U+0003F
ENCODING 63
SWIDTH 500 0
DWIDTH 8 0
BBX 8 16 0 0
BITMAP 
00
00
00
00
3C
66
66
0C
18
18
00
18
18
00
00
00
ENDCHAR
STARTCHAR U+00040
ENCODING 64
SWIDTH 500 0
DWIDTH 8 0
BBX 8 16 0 0
BITMAP 
00
00
7E
C3
C3
C3
CF
DB
DB
DB
CF
C0
7F
00
00
00
ENDCHAR
STARTCHAR U+00041
ENCODING 65
SWIDTH 500 0
DWIDTH 8 0
BBX 8 16 0 0
BITMAP 
00
00
18
3C
66
66
66
66
7E
66
66
66
66
00
00
00
ENDCHAR
STARTCHAR U+00042
ENCODING 66
SWIDTH 500 0
DWIDTH 8 0
BBX 8 16 0 0
BITMAP 
00
00
7C
66
66
66
66
7C
66
66
66
66
7C
00
00
00
ENDCHAR
STARTCHAR U+00043
ENCODING 67
SWIDTH 500 0
DWIDTH 8 0
BBX 8 16 0 0
BITMAP 
00
00
3C
66
66
66
60
60
60
66
66
66
3C
00
00
00
ENDCHAR
STARTCHAR U+00044
ENCODING 68
SWIDTH 500 0
DWIDTH 8 0
BBX 8 16 0 0
BITMAP 
00
00
78
6C
66
66
66
66
66
66
66
6C
78
00
00
00
ENDCHAR
STARTCHAR U+00045
ENCODING 69
SWIDTH 500 0
DWIDTH 8 0
BBX 8 16 0 0
BITMAP 
00
00
7E
60
60
60
60
7C
60
60
60
60
7E
00
00
00
ENDCHAR
STARTCHAR U+00046
ENCODING 70
SWIDTH 500 0
DWIDTH 8 0
BBX 8 16 0 0
BITMAP 
00
00
7E
60
60
60
60
7C
60
60
60
60
60
00
00
00
ENDCHAR
STARTCHAR U+00047
ENCODING 71
SWIDTH 500 0
DWIDTH 8 0
BBX 8 16 0 0
BITMAP 
00
00
3C
66
66
66
60
60
6E
66
66
66
3E
00
00
00
ENDCHAR
STARTCHAR U+00048
ENCODING 72
SWIDTH 500 0
DWIDTH 8 0
BBX 8 16 0 0
BITMAP 
00
00
66
66
66
66
66
66
7E
66
66
66
66
00
00
00
ENDCHAR
STARTCHAR U+00049
ENCODING 73
SWIDTH 500 0
DWIDTH 8 0
BBX 8 16 0 0
BITMAP 
00
00
3C
18
18
18
18
18
18
18
18
18
3C
00
00
00
ENDCHAR
STARTCHAR U+0004A
ENCODING 74
SWIDTH 500 0
DWIDTH 8 0
BBX 8 16 0 0
BITMAP 
00
00
06
06
06
06
06
06
06
06
66
66
3C
00
00
00
ENDCHAR
STARTCHAR U+0004B
ENCODING 75
SWIDTH 500 0
DWIDTH 8 0
BBX 8 16 0 0
BITMAP 
00
00
66
66
66
66
6C
6C
78
6C
6C
66
66
00
00
00
ENDCHAR
STARTCHAR U+0004C
ENCODING 76
SWIDTH 500 0
DWIDTH 8 0
BBX 8 16 0 0
BITMAP 
00
00
60
60
60
60
60
60
60
60
60
60
7E
00
00
00
ENDCHAR
STARTCHAR U+0004D
ENCODING 77
SWIDTH 500 0
DWIDTH 8 0
BBX 8 16 0 0
BITMAP 
00
00
C6
C6
C6
C6
EE
D6
D6
D6
C6
C6
C6
00
00
00
ENDCHAR
STARTCHAR U+0004E
ENCODING 78
SWIDTH 500 0
DWIDTH 8 0
BBX 8 16 0 0
BITMAP 
00
00
C6
C6
C6
C6
E6
F6
DE
CE
C6
C6
C6
00
00
00
ENDCHAR
STARTCHAR U+0004F
ENCODING 79
SWIDTH 500 0
DWIDTH 8 0
BBX 8 16 0 0
BITMAP 
00
00
3C
66
66
66
66
66
66
66
66
66
3C
00
00
00
ENDCHAR
STARTCHAR U+00050
ENCODING 80
SWIDTH 500 0
DWIDTH 8 0
BBX 8 16 0 0
BITMAP 
00
00
7C
66
66
66
66
7C
60
60
60
60
60
00
00
00
ENDCHAR
STARTCHAR U+00051
ENCODING 81
SWIDTH 500 0
DWIDTH 8 0
BBX 8 16 0 0
BITMAP 
00
00
3C
66
66
66
66
66
66
66
66
66
3C
0C
06
00
ENDCHAR
STARTCHAR U+00052
ENCODING 82
SWIDTH 500 0
DWIDTH 8 0
BBX 8 16 0 0
BITMAP 
00
00
7C
66
66
66
66
7C
6C
66
66
66
66
00
00
00
ENDCHAR
STARTCHAR U+00053
ENCODING 83
SWIDTH 500 0
DWIDTH 8 0
BBX 8 16 0 0
BITMAP 
00
00
00
00
3C
66
60
30
18
0C
06
66
3C
00
00
00
ENDCHAR
STARTCHAR U+00054
ENCODING 84
SWIDTH 500 0
DWIDTH 8 0
BBX 8 16 0 0
BITMAP 
00
00
7E
18
18
18
18
18
18
18
18
18
18
00
00
00
ENDCHAR
STARTCHAR U+00055
ENCODING 85
SWIDTH 500 0
DWIDTH 8 0
BBX 8 16 0 0
BITMAP 
00
00
66
66
66
66
66
66
66
66
66
66
3C
00
00
00
ENDCHAR
STARTCHAR U+00056
ENCODING 86
SWIDTH 500 0
DWIDTH 8 0
BBX 8 16 0 0
BITMAP 
00
00
66
66
66
66
66
66
66
66
66
3C
18
00
00
00
ENDCHAR
STARTCHAR U+00057
ENCODING 87
SWIDTH 500 0
DWIDTH 8 0
BBX 8 16 0 0
BITMAP 
00
00
C6
C6
C6
C6
C6
D6
D6
D6
6C
6C
6C
00
00
00
ENDCHAR
STARTCHAR U+00058
ENCODING 88
SWIDTH 500 0
DWIDTH 8 0
BBX 8 16 0 0
BITMAP 
00
00
66
66
66
66
34
18
18
2C
66
66
66
00
00
00
ENDCHAR
STARTCHAR U+00059
ENCODING 89
SWIDTH 500 0
DWIDTH 8 0
BBX 8 16 0 0
BITMAP 
00
00
66
66
66
66
66
66
3C
18
18
18
18
00
00
00
ENDCHAR
STARTCHAR U+0005A
ENCODING 90
SWIDTH 500 0
DWIDTH 8 0
BBX 8 16 0 0
BITMAP 
00
00
7E
06
06
06
0C
18
30
60
60
60
7E
00
00
00
ENDCHAR
STARTCHAR U+0005B
ENCODING 91
SWIDTH 500 0
DWIDTH 8 0
BBX 8 16 0 0
BITMAP 
00
00
3C
30
30
30
30
30
30
30
30
30
30
30
30
3C
ENDCHAR
STARTCHAR U+0005C
ENCODING 92
SWIDTH 500 0
DWIDTH 8 0
BBX 8 16 0 0
BITMAP 
00
00
60
60
60
60
30
30
18
18
0C
0C
06
06
00
00
ENDCHAR
STARTCHAR U+0005D
ENCODING 93
SWIDTH 500 0
DWIDTH 8 0
BBX 8 16 0 0
BITMAP 
00
00
3C
0C
0C
0C
0C
0C
0C
0C
0C
0C
0C
0C
0C
3C
ENDCHAR
STARTCHAR U+0005E
ENCODING 94
SWIDTH 500 0
DWIDTH 8 0
BBX 8 16 0 0
BITMAP 
00
00
18
3C
66
00
00
00
00
00
00
00
00
00
00
00
ENDCHAR
STARTCHAR U+0005F
ENCODING 95
SWIDTH 500 0
DWIDTH 8 0
BBX 8 16 0 0
BITMAP 
00
00
00
00
00
00
00
00
00
00
00
00
00
00
00
FF
ENDCHAR
STARTCHAR U+00060
ENCODING 96
SWIDTH 500 0
DWIDTH 8 0
BBX 8 16 0 0
BITMAP 
00
00
38
18
0C
00
00
00
00
00
00
00
00
00
00
00
ENDCHAR
STARTCHAR U+00061
ENCODING 97
SWIDTH 500 0
DWIDTH 8 0
BBX 8 16 0 0
BITMAP 
00
00
00
00
00
00
3C
06
06
3E
66
66
3E
00
00
00
ENDCHAR
STARTCHAR U+00062
ENCODING 98
SWIDTH 500 0
DWIDTH 8 0
BBX 8 16 0 0
BITMAP 
00
00
60
60
60
60
7C
66
66
66
66
66
7C
00
00
00
ENDCHAR
STARTCHAR U+00063
ENCODING 99
SWIDTH 500 0
DWIDTH 8 0
BBX 8 16 0 0
BITMAP 
00
00
00
00
00
00
3C
66
60
60
60
66
3C
00
00
00
ENDCHAR
STARTCHAR U+00064
ENCODING 100
SWIDTH 500 0
DWIDTH 8 0
BBX 8 16 0 0
BITMAP 
00
00
06
06
06
06
3E
66
66
66
66
66
3E
00
00
00
ENDCHAR
STARTCHAR U+00065
ENCODING 101
SWIDTH 500 0
DWIDTH 8 0
BBX 8 16 0 0
BITMAP 
00
00
00
00
00
00
3C
66
66
7E
60
60
3C
00
00
00
ENDCHAR
STARTCHAR U+00066
ENCODING 102
SWIDTH 500 0
DWIDTH 8 0
BBX 8 16 0 0
BITMAP 
00
00
1E
30
30
30
30
7E
30
30
30
30
30
00
00
00
ENDCHAR
STARTCHAR U+00067
ENCODING 103
SWIDTH 500 0
DWIDTH 8 0
BBX 8 16 0 0
BITMAP 
00
00
00
00
00
00
3E
66
66
66
66
66
3E
06
06
7C
ENDCHAR
STARTCHAR U+00068
ENCODING 104
SWIDTH 500 0
DWIDTH 8 0
BBX 8 16 0 0
BITMAP 
00
00
60
60
60
60
7C
66
66
66
66
66
66
00
00
00
ENDCHAR
STARTCHAR U+00069
ENCODING 105
SWIDTH 500 0
DWIDTH 8 0
BBX 8 16 0 0
BITMAP 
00
00
00
18
18
00
78
18
18
18
18
18
7E
00
00
00
ENDCHAR
STARTCHAR U+0006A
ENCODING 106
SWIDTH 500 0
DWIDTH 8 0
BBX 8 16 0 0
BITMAP 
00
00
00
0C
0C
00
3C
0C
0C
0C
0C
0C
0C
0C
0C
78
ENDCHAR
STARTCHAR U+0006B
ENCODING 107
SWIDTH 500 0
DWIDTH 8 0
BBX 8 16 0 0
BITMAP 
00
00
60
60
60
60
66
66
6C
78
6C
66
66
00
00
00
ENDCHAR
STARTCHAR U+0006C
ENCODING 108
SWIDTH 500 0
DWIDTH 8 0
BBX 8 16 0 0
BITMAP 
00
00
78
18
18
18
18
18
18
18
18
18
7E
00
00
00
ENDCHAR
STARTCHAR U+0006D
ENCODING 109
SWIDTH 500 0
DWIDTH 8 0
BBX 8 16 0 0
BITMAP 
00
00
00
00
00
00
FC
D6
D6
D6
D6
D6
C6
00
00
00
ENDCHAR
STARTCHAR U+0006E
ENCODING 110
SWIDTH 500 0
DWIDTH 8 0
BBX 8 16 0 0
BITMAP 
00
00
00
00
00
00
7C
66
66
66
66
66
66
00
00
00
ENDCHAR
STARTCHAR U+0006F
ENCODING 111
SWIDTH 500 0
DWIDTH 8 0
BBX 8 16 0 0
BITMAP 
00
00
00
00
00
00
3C
66
66
66
66
66
3C
00
00
00
ENDCHAR
STARTCHAR U+00070
ENCODING 112
SWIDTH 500 0
DWIDTH 8 0
BBX 8 16 0 0
BITMAP 
00
00
00
00
00
00
7C
66
66
66
66
66
7C
60
60
60
ENDCHAR
STARTCHAR U+00071
ENCODING 113
SWIDTH 500 0
DWIDTH 8 0
BBX 8 16 0 0
BITMAP 
00
00
00
00
00
00
3E
66
66
66
66
66
3E
06
06
06
ENDCHAR
STARTCHAR U+00072
ENCODING 114
SWIDTH 500 0
DWIDTH 8 0
BBX 8 16 0 0
BITMAP 
00
00
00
00
00
00
66
6E
70
60
60
60
60
00
00
00
ENDCHAR
STARTCHAR U+00073
ENCODING 115
SWIDTH 500 0
DWIDTH 8 0
BBX 8 16 0 0
BITMAP 
00
00
00
00
00
00
3E
60
60
3C
06
06
7C
00
00
00
ENDCHAR
STARTCHAR U+00074
ENCODING 116
SWIDTH 500 0
DWIDTH 8 0
BBX 8 16 0 0
BITMAP 
00
00
30
30
30
30
7E
30
30
30
30
30
1E
00
00
00
ENDCHAR
STARTCHAR U+00075
ENCODING 117
SWIDTH 500 0
DWIDTH 8 0
BBX 8 16 0 0
BITMAP 
00
00
00
00
00
00
66
66
66
66
66
66
3E
00
00
00
ENDCHAR
STARTCHAR U+00076
ENCODING 118
SWIDTH 500 0
DWIDTH 8 0
BBX 8 16 0 0
BITMAP 
00
00
00
00
00
00
66
66
66
66
66
3C
18
00
00
00
ENDCHAR
STARTCHAR U+00077
ENCODING 119
SWIDTH 500 0
DWIDTH 8 0
BBX 8 16 0 0
BITMAP 
00
00
00
00
00
00
C6
D6
D6
D6
D6
6C
6C
00
00
00
ENDCHAR
STARTCHAR U+00078
ENCODING 120
SWIDTH 500 0
DWIDTH 8 0
BBX 8 16 0 0
BITMAP 
00
00
00
00
00
00
66
66
3C
18
3C
66
66
00
00
00
ENDCHAR
STARTCHAR U+00079
ENCODING 121
SWIDTH 500 0
DWIDTH 8 0
BBX 8 16 0 0
BITMAP 
00
00
00
00
00
00
66
66
66
66
66
66
3C
0C
18
F0
ENDCHAR
STARTCHAR U+0007A
ENCODING 122
SWIDTH 500 0
DWIDTH 8 0
BBX 8 16 0 0
BITMAP 
00
00
00
00
00
00
7E
06
0C
18
30
60
7E
00
00
00
ENDCHAR
STARTCHAR U+0007B
ENCODING 123
SWIDTH 500 0
DWIDTH 8 0
BBX 8 16 0 0
BITMAP 
00
00
0C
18
18
18
18
30
60
30
18
18
18
18
0C
00
ENDCHAR
STARTCHAR U+0007C
ENCODING 124
SWIDTH 500 0
DWIDTH 8 0
BBX 8 16 0 0
BITMAP 
00
00
18
18
18
18
18
18
18
18
18
18
18
18
18
18
ENDCHAR
STARTCHAR U+0007D
ENCODING 125
SWIDTH 500 0
DWIDTH 8 0
BBX 8 16 0 0
BITMAP 
00
00
30
18
18
18
18
0C
06
0C
18
18
18
18
30
00
ENDCHAR
STARTCHAR U+0007E
ENCODING 126
SWIDTH 500 0
DWIDTH 8 0
BBX 8 16 0 0
BITMAP 
00
00
00
00
71
DB
8E
00
00
00
00
00
00
00
00
00
ENDCHAR
STARTCHAR U+0007F
ENCODING 127
SWIDTH 500 0
DWIDTH 8 0
BBX 8 16 0 0
BITMAP 
00
00
7E
7E
7E
7E
7E
7E
7E
7E
7E
7E
7E
00
00
00
ENDCHAR
STARTCHAR U+00080
ENCODING 128
SWIDTH 500 0
DWIDTH 8 0
BBX 8 16 0 0
BITMAP 
00
00
7E
7E
7E
7E
7E
7E
7E
7E
7E
7E
7E
00
00
00
ENDCHAR
STARTCHAR U+00081
ENCODING 129
SWIDTH 500 0
DWIDTH 8 0
BBX 8 16 0 0
BITMAP 
00
00
7E
7E
7E
7E
7E
7E
7E
7E
7E
7E
7E
00
00
00
ENDCHAR
STARTCHAR U+00082
ENCODING 130
SWIDTH 500 0
DWIDTH 8 0
BBX 8 16 0 0
BITMAP 
00
00
7E
7E
7E
7E
7E
7E
7E
7E
7E
7E
7E
00
00
00
ENDCHAR
STARTCHAR U+00083
ENCODING 131
SWIDTH 500 0
DWIDTH 8 0
BBX 8 16 0 0
BITMAP 
00
00
7E
7E
7E
7E
7E
7E
7E
7E
7E
7E
7E
00
00
00
ENDCHAR
STARTCHAR U+00084
ENCODING 132
SWIDTH 500 0
DWIDTH 8 0
BBX 8 16 0 0
BITMAP 
00
00
7E
7E
7E
7E
7E
7E
7E
7E
7E
7E
7E
00
00
00
ENDCHAR
STARTCHAR U+00085
ENCODING 133
SWIDTH 500 0
DWIDTH 8 0
BBX 8 16 0 0
BITMAP 
00
00
7E
7E
7E
7E
7E
7E
7E
7E
7E
7E
7E
00
00
00
ENDCHAR
STARTCHAR U+00086
ENCODING 134
SWIDTH 500 0
DWIDTH 8 0
BBX 8 16 0 0
BITMAP 
00
00
7E
7E
7E
7E
7E
7E
7E
7E
7E
7E
7E
00
00
00
ENDCHAR
STARTCHAR U+00087
ENCODING 135
SWIDTH 500 0
DWIDTH 8 0
BBX 8 16 0 0
BITMAP 
00
00
7E
7E
7E
7E
7E
7E
7E
7E
7E
7E
7E
00
00
00
ENDCHAR
STARTCHAR U+00088
ENCODING 136
SWIDTH 500 0
DWIDTH 8 0
BBX 8 16 0 0
BITMAP 
00
00
7E
7E
7E
7E
7E
7E
7E
7E
7E
7E
7E
00
00
00
ENDCHAR
STARTCHAR U+00089
ENCODING 137
SWIDTH 500 0
DWIDTH 8 0
BBX 8 16 0 0
BITMAP 
00
00
7E
7E
7E
7E
7E
7E
7E
7E
7E
7E
7E
00
00
00
ENDCHAR
STARTCHAR U+0008A
ENCODING 138
SWIDTH 500 0
DWIDTH 8 0
BBX 8 16 0 0
BITMAP 
00
00
7E
7E
7E
7E
7E
7E
7E
7E
7E
7E
7E
00
00
00
ENDCHAR
STARTCHAR U+0008B
ENCODING 139
SWIDTH 500 0
DWIDTH 8 0
BBX 8 16 0 0
BITMAP 
00
00
7E
7E
7E
7E
7E
7E
7E
7E
7E
7E
7E
00
00
00
ENDCHAR
STARTCHAR U+0008C
ENCODING 140
SWIDTH 500 0
DWIDTH 8 0
BBX 8 16 0 0
BITMAP 
00
00
7E
7E
7E
7E
7E
7E
7E
7E
7E
7E
7E
00
00
00
ENDCHAR
STARTCHAR U+0008D
ENCODING 141
SWIDTH 500 0
DWIDTH 8 0
BBX 8 16 0 0
BITMAP 
00
00
7E
7E
7E
7E
7E
7E
7E
7E
7E
7E
7E
00
00
00
ENDCHAR
STARTCHAR U+0008E
ENCODING 142
SWIDTH 500 0
DWIDTH 8 0
BBX 8 16 0 0
BITMAP 
00
00
7E
7E
7E
7E
7E
7E
7E
7E
7E
7E
7E
00
00
00
ENDCHAR
STARTCHAR U+0008F
ENCODING 143
SWIDTH 500 0
DWIDTH 8 0
BBX 8 16 0 0
BITMAP 
00
00
7E
7E
7E
7E
7E
7E
7E
7E
7E
7E
7E
00
00
00
ENDCHAR
STARTCHAR U+00090
ENCODING 144
SWIDTH 500 0
DWIDTH 8 0
BBX 8 16 0 0
BITMAP 
00
00
7E
7E
7E
7E
7E
7E
7E
7E
7E
7E
7E
00
00
00
ENDCHAR
STARTCHAR U+00091
ENCODING 145
SWIDTH 500 0
DWIDTH 8 0
BBX 8 16 0 0
BITMAP 
00
00
00
00
0C
18
1C
1C
00
00
00
00
00
00
00
00
ENDCHAR
STARTCHAR U+00092
ENCODING 146
SWIDTH 500 0
DWIDTH 8 0
BBX 8 16 0 0
BITMAP 
00
00
00
00
1C
1C
0C
18
00
00
00
00
00
00
00
00
ENDCHAR
STARTCHAR U+00093
ENCODING 147
SWIDTH 500 0
DWIDTH 8 0
BBX 8 16 0 0
BITMAP 
00
00
7E
7E
7E
7E
7E
7E
7E
7E
7E
7E
7E
00
00
00
ENDCHAR
STARTCHAR U+00094
ENCODING 148
SWIDTH 500 0
DWIDTH 8 0
BBX 8 16 0 0
BITMAP 
00
00
7E
7E
7E
7E
7E
7E
7E
7E
7E
7E
7E
00
00
00
ENDCHAR
STARTCHAR U+00095
ENCODING 149
SWIDTH 500 0
DWIDTH 8 0
BBX 8 16 0 0
BITMAP 
00
00
7E
7E
7E
7E
7E
7E
7E
7E
7E
7E
7E
00
00
00
ENDCHAR
STARTCHAR U+00096
ENCODING 150
SWIDTH 500 0
DWIDTH 8 0
BBX 8 16 0 0
BITMAP 
00
00
7E
7E
7E
7E
7E
7E
7E
7E
7E
7E
7E
00
00
00
ENDCHAR
STARTCHAR U+00097
ENCODING 151
SWIDTH 500 0
DWIDTH 8 0
BBX 8 16 0 0
BITMAP 
00
00
7E
7E
7E
7E
7E
7E
7E
7E
7E
7E
7E
00
00
00
ENDCHAR
STARTCHAR U+00098
ENCODING 152
SWIDTH 500 0
DWIDTH 8 0
BBX 8 16 0 0
BITMAP 
00
00
7E
7E
7E
7E
7E
7E
7E
7E
7E
7E
7E
00
00
00
ENDCHAR
STARTCHAR U+00099
ENCODING 153
SWIDTH 500 0
DWIDTH 8 0
BBX 8 16 0 0
BITMAP 
00
00
7E
7E
7E
7E
7E
7E
7E
7E
7E
7E
7E
00
00
00
ENDCHAR
STARTCHAR U+0009A
ENCODING 154
SWIDTH 500 0
DWIDTH 8 0
BBX 8 16 0 0
BITMAP 
00
00
7E
7E
7E
7E
7E
7E
7E
7E
7E
7E
7E
00
00
00
ENDCHAR
STARTCHAR U+0009B
ENCODING 155
SWIDTH 500 0
DWIDTH 8 0
BBX 8 16 0 0
BITMAP 
00
00
7E
7E
7E
7E
7E
7E
7E
7E
7E
7E
7E
00
00
00
ENDCHAR
STARTCHAR U+0009C
ENCODING 156
SWIDTH 500 0
DWIDTH 8 0
BBX 8 16 0 0
BITMAP 
00
00
7E
7E
7E
7E
7E
7E
7E
7E
7E
7E
7E
00
00
00
ENDCHAR
STARTCHAR U+0009D
ENCODING 157
SWIDTH 500 0
DWIDTH 8 0
BBX 8 16 0 0
BITMAP 
00
00
7E
7E
7E
7E
7E
7E
7E
7E
7E
7E
7E
00
00
00
ENDCHAR
STARTCHAR U+0009E
ENCODING 158
SWIDTH 500 0
DWIDTH 8 0
BBX 8 16 0 0
BITMAP 
00
00
7E
7E
7E
7E
7E
7E
7E
7E
7E
7E
7E
00
00
00
ENDCHAR
STARTCHAR U+0009F
ENCODING 159
SWIDTH 500 0
DWIDTH 8 0
BBX 8 16 0 0
BITMAP 
00
00
7E
7E
7E
7E
7E
7E
7E
7E
7E
7E
7E
00
00
00
ENDCHAR
STARTCHAR U+000A0
ENCODING 160
SWIDTH 500 0
DWIDTH 8 0
BBX 8 16 0 0
BITMAP 
00
00
00
00
00
00
00
00
00
00
00
00
00
00
00
00
ENDCHAR
STARTCHAR U+000A1
ENCODING 161
SWIDTH 500 0
DWIDTH 8 0
BBX 8 16 0 0
BITMAP 
00
00
00
00
00
00
00
18
18
00
18
18
3C
3C
3C
18
ENDCHAR
STARTCHAR U+000A2
ENCODING 162
SWIDTH 500 0
DWIDTH 8 0
BBX 8 16 0 0
BITMAP 
00
00
18
18
18
18
3C
66
60
60
66
3C
18
18
00
00
ENDCHAR
STARTCHAR U+000A3
ENCODING 163
SWIDTH 500 0
DWIDTH 8 0
BBX 8 16 0 0
BITMAP 
00
00
3C
66
60
60
60
FC
60
60
60
C0
FE
00
00
00
ENDCHAR
STARTCHAR U+000A4
ENCODING 164
SWIDTH 500 0
DWIDTH 8 0
BBX 8 16 0 0
BITMAP 
00
00
00
00
00
66
3C
66
66
3C
66
00
00
00
00
00
ENDCHAR
STARTCHAR U+000A5
ENCODING 165
SWIDTH 500 0
DWIDTH 8 0
BBX 8 16 0 0
BITMAP 
00
00
66
66
66
66
66
3C
7E
18
7E
18
18
00
00
00
ENDCHAR
STARTCHAR U+000A6
ENCODING 166
SWIDTH 500 0
DWIDTH 8 0
BBX 8 16 0 0
BITMAP 
00
00
00
00
18
18
18
18
18
00
00
18
18
18
18
18
ENDCHAR
STARTCHAR U+000A7
ENCODING 167
SWIDTH 500 0
DWIDTH 8 0
BBX 8 16 0 0
BITMAP 
00
00
3C
66
60
38
3C
66
66
66
66
3C
1C
06
66
3C
ENDCHAR
STARTCHAR U+000A8
ENCODING 168
SWIDTH 500 0
DWIDTH 8 0
BBX 8 16 0 0
BITMAP 
00
00
00
66
66
00
00
00
00
00
00
00
00
00
00
00
ENDCHAR
STARTCHAR U+000A9
ENCODING 169
SWIDTH 500 0
DWIDTH 8 0
BBX 8 16 0 0
BITMAP 
00
00
00
00
7E
C3
99
A5
A1
A5
99
C3
7E
00
00
00
ENDCHAR
STARTCHAR U+000AA
ENCODING 170
SWIDTH 500 0
DWIDTH 8 0
BBX 8 16 0 0
BITMAP 
00
00
00
00
3C
06
3E
66
3E
00
7E
00
00
00
00
00
ENDCHAR
STARTCHAR U+000AB
ENCODING 171
SWIDTH 500 0
DWIDTH 8 0
BBX 8 16 0 0
BITMAP 
00
00
00
00
00
00
00
00
33
66
CC
66
33
00
00
00
ENDCHAR
STARTCHAR U+000AC
ENCODING 172
SWIDTH 500 0
DWIDTH 8 0
BBX 8 16 0 0
BITMAP 
00
00
00
00
00
00
00
00
7E
06
06
00
00
00
00
00
ENDCHAR
STARTCHAR U+000AD
ENCODING 173
SWIDTH 500 0
DWIDTH 8 0
BBX 8 16 0 0
BITMAP 
00
00
00
00
00
00
00
00
7E
00
00
00
00
00
00
00
ENDCHAR
STARTCHAR U+000AE
ENCODING 174
SWIDTH 500 0
DWIDTH 8 0
BBX 8 16 0 0
BITMAP 
00
00
7E
C3
B9
A5
A5
A5
A5
B9
A5
C3
7E
00
00
00
ENDCHAR
STARTCHAR U+000AF
ENCODING 175
SWIDTH 500 0
DWIDTH 8 0
BBX 8 16 0 0
BITMAP 
00
00
FF
00
00
00
00
00
00
00
00
00
00
00
00
00
ENDCHAR
STARTCHAR U+000B0
ENCODING 176
SWIDTH 500 0
DWIDTH 8 0
BBX 8 16 0 0
BITMAP 
00
00
00
3C
66
66
3C
00
00
00
00
00
00
00
00
00
ENDCHAR
STARTCHAR U+000B1
ENCODING 177
SWIDTH 500 0
DWIDTH 8 0
BBX 8 16 0 0
BITMAP 
00
00
00
00
00
00
18
18
7E
18
18
00
7E
00
00
00
ENDCHAR
STARTCHAR U+000B2
ENCODING 178
SWIDTH 500 0
DWIDTH 8 0
BBX 8 16 0 0
BITMAP 
00
00
00
00
38
0C
18
30
3C
00
00
00
00
00
00
00
ENDCHAR
STARTCHAR U+000B3
ENCODING 179
SWIDTH 500 0
DWIDTH 8 0
BBX 8 16 0 0
BITMAP 
00
00
00
00
38
0C
18
0C
38
00
00
00
00
00
00
00
ENDCHAR
STARTCHAR U+000B4
ENCODING 180
SWIDTH 500 0
DWIDTH 8 0
BBX 8 16 0 0
BITMAP 
00
00
1C
18
30
00
00
00
00
00
00
00
00
00
00
00
ENDCHAR
STARTCHAR U+000B5
ENCODING 181
SWIDTH 500 0
DWIDTH 8 0
BBX 8 16 0 0
BITMAP 
00
00
00
00
00
00
66
66
66
66
66
66
7B
60
60
C0
ENDCHAR
STARTCHAR U+000B6
ENCODING 182
SWIDTH 500 0
DWIDTH 8 0
BBX 8 16 0 0
BITMAP 
00
00
3E
7C
FC
FC
FC
FC
7C
3C
0C
0C
0C
0C
0C
0C
ENDCHAR
STARTCHAR U+000B7
ENCODING 183
SWIDTH 500 0
DWIDTH 8 0
BBX 8 16 0 0
BITMAP 
00
00
00
00
00
00
00
1C
1C
00
00
00
00
00
00
00
ENDCHAR
STARTCHAR U+000B8
ENCODING 184
SWIDTH 500 0
DWIDTH 8 0
BBX 8 16 0 0
BITMAP 
00
00
00
00
00
00
00
00
00
00
00
00
00
18
0C
38
ENDCHAR
STARTCHAR U+000B9
ENCODING 185
SWIDTH 500 0
DWIDTH 8 0
BBX 8 16 0 0
BITMAP 
00
00
00
00
18
38
18
18
18
00
00
00
00
00
00
00
ENDCHAR
STARTCHAR U+000BA
ENCODING 186
SWIDTH 500 0
DWIDTH 8 0
BBX 8 16 0 0
BITMAP 
00
00
00
00
3C
66
66
66
3C
00
7E
00
00
00
00
00
ENDCHAR
STARTCHAR U+000BB
ENCODING 187
SWIDTH 500 0
DWIDTH 8 0
BBX 8 16 0 0
BITMAP 
00
00
00
00
00
00
00
00
CC
66
33
66
CC
00
00
00
ENDCHAR
STARTCHAR U+000BC
ENCODING 188
SWIDTH 500 0
DWIDTH 8 0
BBX 8 16 0 0
BITMAP 
00
00
00
60
E0
63
66
6C
18
37
6F
DB
1F
03
00
00
ENDCHAR
STARTCHAR U+000BD
ENCODING 189
SWIDTH 500 0
DWIDTH 8 0
BBX 8 16 0 0
BITMAP 
00
00
00
60
E0
63
66
6C
18
3E
63
C6
0C
0F
00
00
ENDCHAR
STARTCHAR U+000BE
ENCODING 190
SWIDTH 500 0
DWIDTH 8 0
BBX 8 16 0 0
BITMAP 
00
00
00
E0
30
63
36
EC
18
37
6F
DB
1F
03
00
00
ENDCHAR
STARTCHAR U+000BF
ENCODING 191
SWIDTH 500 0
DWIDTH 8 0
BBX 8 16 0 0
BITMAP 
00
00
00
00
00
00
00
18
18
00
18
18
30
66
66
3C
ENDCHAR
STARTCHAR U+000C0
ENCODING 192
SWIDTH 500 0
DWIDTH 8 0
BBX 8 16 0 0
BITMAP 
30
18
00
18
3C
66
66
66
66
7E
66
66
66
66
00
00
ENDCHAR
STARTCHAR U+000C1
ENCODING 193
SWIDTH 500 0
DWIDTH 8 0
BBX 8 16 0 0
BITMAP 
0C
18
00
18
3C
66
66
66
66
7E
66
66
66
66
00
00
ENDCHAR
STARTCHAR U+000C2
ENCODING 194
SWIDTH 500 0
DWIDTH 8 0
BBX 8 16 0 0
BITMAP 
00
00
18
3C
66
00
18
3C
66
66
66
7E
66
66
66
00
ENDCHAR
STARTCHAR U+000C3
ENCODING 195
SWIDTH 500 0
DWIDTH 8 0
BBX 8 16 0 0
BITMAP 
76
DC
00
30
78
CC
CC
CC
CC
FC
CC
CC
CC
CC
00
00
ENDCHAR
STARTCHAR U+000C4
ENCODING 196
SWIDTH 500 0
DWIDTH 8 0
BBX 8 16 0 0
BITMAP 
66
66
00
18
3C
66
66
66
66
7E
66
66
66
66
00
00
ENDCHAR
STARTCHAR U+000C5
ENCODING 197
SWIDTH 500 0
DWIDTH 8 0
BBX 8 16 0 0
BITMAP 
00
00
3C
66
3C
00
18
3C
66
66
66
7E
66
66
66
00
ENDCHAR
STARTCHAR U+000C6
ENCODING 198
SWIDTH 500 0
DWIDTH 8 0
BBX 8 16 0 0
BITMAP 
00
00
3E
78
D8
D8
D8
DE
F8
D8
D8
D8
DE
00
00
00
ENDCHAR
STARTCHAR U+000C7
ENCODING 199
SWIDTH 500 0
DWIDTH 8 0
BBX 8 16 0 0
BITMAP 
00
00
3C
66
66
66
60
60
60
66
66
66
3C
18
0C
38
ENDCHAR
STARTCHAR U+000C8
ENCODING 200
SWIDTH 500 0
DWIDTH 8 0
BBX 8 16 0 0
BITMAP 
30
18
00
7E
60
60
60
60
7C
60
60
60
60
7E
00
00
ENDCHAR
STARTCHAR U+000C9
ENCODING 201
SWIDTH 500 0
DWIDTH 8 0
BBX 8 16 0 0
BITMAP 
0C
18
00
7E
60
60
60
60
7C
60
60
60
60
7E
00
00
ENDCHAR
STARTCHAR U+000CA
ENCODING 202
SWIDTH 500 0
DWIDTH 8 0
BBX 8 16 0 0
BITMAP 
00
00
18
3C
66
00
7E
60
60
60
7C
60
60
60
7E
00
ENDCHAR
STARTCHAR U+000CB
ENCODING 203
SWIDTH 500 0
DWIDTH 8 0
BBX 8 16 0 0
BITMAP 
66
66
00
7E
60
60
60
60
7C
60
60
60
60
7E
00
00
ENDCHAR
STARTCHAR U+000CC
ENCODING 204
SWIDTH 500 0
DWIDTH 8 0
BBX 8 16 0 0
BITMAP 
30
18
00
3C
18
18
18
18
18
18
18
18
18
3C
00
00
ENDCHAR
STARTCHAR U+000CD
ENCODING 205
SWIDTH 500 0
DWIDTH 8 0
BBX 8 16 0 0
BITMAP 
0C
18
00
3C
18
18
18
18
18
18
18
18
18
3C
00
00
ENDCHAR
STARTCHAR U+000CE
ENCODING 206
SWIDTH 500 0
DWIDTH 8 0
BBX 8 16 0 0
BITMAP 
00
00
18
3C
66
00
3C
18
18
18
18
18
18
18
3C
00
ENDCHAR
STARTCHAR U+000CF
ENCODING 207
SWIDTH 500 0
DWIDTH 8 0
BBX 8 16 0 0
BITMAP 
66
66
00
3C
18
18
18
18
18
18
18
18
18
3C
00
00
ENDCHAR
STARTCHAR U+000D0
ENCODING 208
SWIDTH 500 0
DWIDTH 8 0
BBX 8 16 0 0
BITMAP 
00
00
78
6C
66
66
66
F6
66
66
66
6C
78
00
00
00
ENDCHAR
STARTCHAR U+000D1
ENCODING 209
SWIDTH 500 0
DWIDTH 8 0
BBX 8 16 0 0
BITMAP 
76
DC
00
C6
C6
C6
C6
E6
F6
DE
CE
C6
C6
C6
00
00
ENDCHAR
STARTCHAR U+000D2
ENCODING 210
SWIDTH 500 0
DWIDTH 8 0
BBX 8 16 0 0
BITMAP 
30
18
00
3C
66
66
66
66
66
66
66
66
66
3C
00
00
ENDCHAR
STARTCHAR U+000D3
ENCODING 211
SWIDTH 500 0
DWIDTH 8 0
BBX 8 16 0 0
BITMAP 
0C
18
00
3C
66
66
66
66
66
66
66
66
66
3C
00
00
ENDCHAR
STARTCHAR U+000D4
ENCODING 212
SWIDTH 500 0
DWIDTH 8 0
BBX 8 16 0 0
BITMAP 
00
00
18
3C
66
00
3C
66
66
66
66
66
66
66
3C
00
ENDCHAR
STARTCHAR U+000D5
ENCODING 213
SWIDTH 500 0
DWIDTH 8 0
BBX 8 16 0 0
BITMAP 
76
DC
00
78
CC
CC
CC
CC
CC
CC
CC
CC
CC
78
00
00
ENDCHAR
STARTCHAR U+000D6
ENCODING 214
SWIDTH 500 0
DWIDTH 8 0
BBX 8 16 0 0
BITMAP 
66
66
00
3C
66
66
66
66
66
66
66
66
66
3C
00
00
ENDCHAR
STARTCHAR U+000D7
ENCODING 215
SWIDTH 500 0
DWIDTH 8 0
BBX 8 16 0 0
BITMAP 
00
00
00
00
00
42
66
3C
18
3C
66
42
00
00
00
00
ENDCHAR
STARTCHAR U+000D8
ENCODING 216
SWIDTH 500 0
DWIDTH 8 0
BBX 8 16 0 0
BITMAP 
00
00
3E
66
6E
6E
6E
7E
76
76
76
66
7C
00
00
00
ENDCHAR
STARTCHAR U+000D9
ENCODING 217
SWIDTH 500 0
DWIDTH 8 0
BBX 8 16 0 0
BITMAP 
30
18
00
66
66
66
66
66
66
66
66
66
66
3C
00
00
ENDCHAR
STARTCHAR U+000DA
ENCODING 218
SWIDTH 500 0
DWIDTH 8 0
BBX 8 16 0 0
BITMAP 
0C
18
00
66
66
66
66
66
66
66
66
66
66
3C
00
00
ENDCHAR
STARTCHAR U+000DB
ENCODING 219
SWIDTH 500 0
DWIDTH 8 0
BBX 8 16 0 0
BITMAP 
00
00
18
3C
66
00
66
66
66
66
66
66
66
66
3C
00
ENDCHAR
STARTCHAR U+000DC
ENCODING 220
SWIDTH 500 0
DWIDTH 8 0
BBX 8 16 0 0
BITMAP 
66
66
00
66
66
66
66
66
66
66
66
66
66
3C
00
00
ENDCHAR
STARTCHAR U+000DD
ENCODING 221
SWIDTH 500 0
DWIDTH 8 0
BBX 8 16 0 0
BITMAP 
0C
18
00
66
66
66
66
66
66
3C
18
18
18
18
00
00
ENDCHAR
STARTCHAR U+000DE
ENCODING 222
SWIDTH 500 0
DWIDTH 8 0
BBX 8 16 0 0
BITMAP 
00
00
60
60
60
60
7C
66
66
66
7C
60
60
00
00
00
ENDCHAR
STARTCHAR U+000DF
ENCODING 223
SWIDTH 500 0
DWIDTH 8 0
BBX 8 16 0 0
BITMAP 
00
00
38
6C
6C
6C
6C
66
66
66
66
66
6C
00
00
00
ENDCHAR
STARTCHAR U+000E0
ENCODING 224
SWIDTH 500 0
DWIDTH 8 0
BBX 8 16 0 0
BITMAP 
00
00
70
30
18
00
3C
06
06
3E
66
66
3E
00
00
00
ENDCHAR
STARTCHAR U+000E1
ENCODING 225
SWIDTH 500 0
DWIDTH 8 0
BBX 8 16 0 0
BITMAP 
00
00
0E
0C
18
00
3C
06
06
3E
66
66
3E
00
00
00
ENDCHAR
STARTCHAR U+000E2
ENCODING 226
SWIDTH 500 0
DWIDTH 8 0
BBX 8 16 0 0
BITMAP 
00
00
18
3C
66
00
3C
06
06
3E
66
66
3E
00
00
00
ENDCHAR
STARTCHAR U+000E3
ENCODING 227
SWIDTH 500 0
DWIDTH 8 0
BBX 8 16 0 0
BITMAP 
00
00
00
76
DC
00
78
0C
0C
7C
CC
CC
7C
00
00
00
ENDCHAR
STARTCHAR U+000E4
ENCODING 228
SWIDTH 500 0
DWIDTH 8 0
BBX 8 16 0 0
BITMAP 
00
00
00
66
66
00
3C
06
06
3E
66
66
3E
00
00
00
ENDCHAR
STARTCHAR U+000E5
ENCODING 229
SWIDTH 500 0
DWIDTH 8 0
BBX 8 16 0 0
BITMAP 
00
00
3C
66
3C
00
3C
06
06
3E
66
66
3E
00
00
00
ENDCHAR
STARTCHAR U+000E6
ENCODING 230
SWIDTH 500 0
DWIDTH 8 0
BBX 8 16 0 0
BITMAP 
00
00
00
00
00
00
6E
1B
1B
7F
D8
D8
77
00
00
00
ENDCHAR
STARTCHAR U+000E7
ENCODING 231
SWIDTH 500 0
DWIDTH 8 0
BBX 8 16 0 0
BITMAP 
00
00
00
00
00
00
3C
66
60
60
60
66
3C
18
0C
38
ENDCHAR
STARTCHAR U+000E8
ENCODING 232
SWIDTH 500 0
DWIDTH 8 0
BBX 8 16 0 0
BITMAP 
00
00
70
30
18
00
3C
66
66
7E
60
60
3C
00
00
00
ENDCHAR
STARTCHAR U+000E9
ENCODING 233
SWIDTH 500 0
DWIDTH 8 0
BBX 8 16 0 0
BITMAP 
00
00
0E
0C
18
00
3C
66
66
7E
60
60
3C
00
00
00
ENDCHAR
STARTCHAR U+000EA
ENCODING 234
SWIDTH 500 0
DWIDTH 8 0
BBX 8 16 0 0
BITMAP 
00
00
18
3C
66
00
3C
66
66
7E
60
60
3C
00
00
00
ENDCHAR
STARTCHAR U+000EB
ENCODING 235
SWIDTH 500 0
DWIDTH 8 0
BBX 8 16 0 0
BITMAP 
00
00
00
66
66
00
3C
66
66
7E
60
60
3C
00
00
00
ENDCHAR
STARTCHAR U+000EC
ENCODING 236
SWIDTH 500 0
DWIDTH 8 0
BBX 8 16 0 0
BITMAP 
00
00
70
30
18
00
78
18
18
18
18
18
7E
00
00
00
ENDCHAR
STARTCHAR U+000ED
ENCODING 237
SWIDTH 500 0
DWIDTH 8 0
BBX 8 16 0 0
BITMAP 
00
00
0E
0C
18
00
78
18
18
18
18
18
7E
00
00
00
ENDCHAR
STARTCHAR U+000EE
ENCODING 238
SWIDTH 500 0
DWIDTH 8 0
BBX 8 16 0 0
BITMAP 
00
00
18
3C
66
00
78
18
18
18
18
18
7E
00
00
00
ENDCHAR
STARTCHAR U+000EF
ENCODING 239
SWIDTH 500 0
DWIDTH 8 0
BBX 8 16 0 0
BITMAP 
00
00
00
66
66
00
78
18
18
18
18
18
7E
00
00
00
ENDCHAR
STARTCHAR U+000F0
ENCODING 240
SWIDTH 500 0
DWIDTH 8 0
BBX 8 16 0 0
BITMAP 
00
00
36
18
6C
1E
66
66
66
66
66
66
3C
00
00
00
ENDCHAR
STARTCHAR U+000F1
ENCODING 241
SWIDTH 500 0
DWIDTH 8 0
BBX 8 16 0 0
BITMAP 
00
00
00
76
DC
00
F8
CC
CC
CC
CC
CC
CC
00
00
00
ENDCHAR
STARTCHAR U+000F2
ENCODING 242
SWIDTH 500 0
DWIDTH 8 0
BBX 8 16 0 0
BITMAP 
00
00
70
30
18
00
3C
66
66
66
66
66
3C
00
00
00
ENDCHAR
STARTCHAR U+000F3
ENCODING 243
SWIDTH 500 0
DWIDTH 8 0
BBX 8 16 0 0
BITMAP 
00
00
0E
0C
18
00
3C
66
66
66
66
66
3C
00
00
00
ENDCHAR
STARTCHAR U+000F4
ENCODING 244
SWIDTH 500 0
DWIDTH 8 0
BBX 8 16 0 0
BITMAP 
00
00
18
3C
66
00
3C
66
66
66
66
66
3C
00
00
00
ENDCHAR
STARTCHAR U+000F5
ENCODING 245
SWIDTH 500 0
DWIDTH 8 0
BBX 8 16 0 0
BITMAP 
00
00
00
76
DC
00
78
CC
CC
CC
CC
CC
78
00
00
00
ENDCHAR
STARTCHAR U+000F6
ENCODING 246
SWIDTH 500 0
DWIDTH 8 0
BBX 8 16 0 0
BITMAP 
00
00
00
66
66
00
3C
66
66
66
66
66
3C
00
00
00
ENDCHAR
STARTCHAR U+000F7
ENCODING 247
SWIDTH 500 0
DWIDTH 8 0
BBX 8 16 0 0
BITMAP 
00
00
00
00
00
18
18
00
7E
00
18
18
00
00
00
00
ENDCHAR
STARTCHAR U+000F8
ENCODING 248
SWIDTH 500 0
DWIDTH 8 0
BBX 8 16 0 0
BITMAP 
00
00
00
00
00
00
3E
66
6E
7E
76
66
7C
00
00
00
ENDCHAR
STARTCHAR U+000F9
ENCODING 249
SWIDTH 500 0
DWIDTH 8 0
BBX 8 16 0 0
BITMAP 
00
00
70
30
18
00
66
66
66
66
66
66
3E
00
00
00
ENDCHAR
STARTCHAR U+000FA
ENCODING 250
SWIDTH 500 0
DWIDTH 8 0
BBX 8 16 0 0
BITMAP 
00
00
0E
0C
18
00
66
66
66
66
66
66
3E
00
00
00
ENDCHAR
STARTCHAR U+000FB
ENCODING 251
SWIDTH 500 0
DWIDTH 8 0
BBX 8 16 0 0
BITMAP 
00
00
18
3C
66
00
66
66
66
66
66
66
3E
00
00
00
ENDCHAR
STARTCHAR U+000FC
ENCODING 252
SWIDTH 500 0
DWIDTH 8 0
BBX 8 16 0 0
BITMAP 
00
00
00
66
66
00
66
66
66
66
66
66
3E
00
00
00
ENDCHAR
STARTCHAR U+000FD
ENCODING 253
SWIDTH 500 0
DWIDTH 8 0
BBX 8 16 0 0
BITMAP 
00
00
0E
0C
18
00
66
66
66
66
66
66
3C
0C
18
F0
ENDCHAR
STARTCHAR U+000FE
ENCODING 254
SWIDTH 500 0
DWIDTH 8 0
BBX 8 16 0 0
BITMAP 
00
00
60
60
60
60
7C
66
66
66
66
66
7C
60
60
60
ENDCHAR
STARTCHAR U+000FF
ENCODING 255
SWIDTH 500 0
DWIDTH 8 0
BBX 8 16 0 0
BITMAP 
00
00
00
66
66
00
66
66
66
66
66
66
3C
0C
18
F0
ENDCHAR
STARTCHAR U+00100
ENCODING 256
SWIDTH 500 0
DWIDTH 8 0
BBX 8 16 0 0
BITMAP 
7E
00
18
3C
66
66
66
66
7E
66
66
66
66
00
00
00
ENDCHAR
STARTCHAR U+00101
ENCODING 257
SWIDTH 500 0
DWIDTH 8 0
BBX 8 16 0 0
BITMAP 
00
00
00
00
7E
00
3C
06
06
3E
66
66
3E
00
00
00
ENDCHAR
STARTCHAR U+00102
ENCODING 258
SWIDTH 500 0
DWIDTH 8 0
BBX 8 16 0 0
BITMAP 
66
3C
00
18
3C
66
66
66
66
7E
66
66
66
66
00
00
ENDCHAR
STARTCHAR U+00103
ENCODING 259
SWIDTH 500 0
DWIDTH 8 0
BBX 8 16 0 0
BITMAP 
00
00
00
66
3C
00
3C
06
06
3E
66
66
3E
00
00
00
ENDCHAR
STARTCHAR U+00104
ENCODING 260
SWIDTH 500 0
DWIDTH 8 0
BBX 8 16 0 0
BITMAP 
00
00
30
78
CC
CC
CC
CC
FC
CC
CC
CC
CC
18
18
0E
ENDCHAR
STARTCHAR U+00105
ENCODING 261
SWIDTH 500 0
DWIDTH 8 0
BBX 8 16 0 0
BITMAP 
00
00
00
00
00
00
78
0C
0C
7C
CC
CC
7C
18
18
0E
ENDCHAR
STARTCHAR U+00106
ENCODING 262
SWIDTH 500 0
DWIDTH 8 0
BBX 8 16 0 0
BITMAP 
0C
18
00
3C
66
66
66
60
60
60
66
66
66
3C
00
00
ENDCHAR
STARTCHAR U+00107
ENCODING 263
SWIDTH 500 0
DWIDTH 8 0
BBX 8 16 0 0
BITMAP 
00
00
0E
0C
18
00
3C
66
60
60
60
66
3C
00
00
00
ENDCHAR
STARTCHAR U+00108
ENCODING 264
SWIDTH 500 0
DWIDTH 8 0
BBX 8 16 0 0
BITMAP 
00
00
18
3C
66
00
3C
66
66
60
60
60
66
66
3C
00
ENDCHAR
STARTCHAR U+00109
ENCODING 265
SWIDTH 500 0
DWIDTH 8 0
BBX 8 16 0 0
BITMAP 
00
00
18
3C
66
00
3C
66
60
60
60
66
3C
00
00
00
ENDCHAR
STARTCHAR U+0010A
ENCODING 266
SWIDTH 500 0
DWIDTH 8 0
BBX 8 16 0 0
BITMAP 
18
18
00
3C
66
66
66
60
60
60
66
66
66
3C
00
00
ENDCHAR
STARTCHAR U+0010B
ENCODING 267
SWIDTH 500 0
DWIDTH 8 0
BBX 8 16 0 0
BITMAP 
00
00
00
18
18
00
3C
66
60
60
60
66
3C
00
00
00
ENDCHAR
STARTCHAR U+0010C
ENCODING 268
SWIDTH 500 0
DWIDTH 8 0
BBX 8 16 0 0
BITMAP 
00
00
66
3C
18
00
3C
66
66
60
60
60
66
66
3C
00
ENDCHAR
STARTCHAR U+0010D
ENCODING 269
SWIDTH 500 0
DWIDTH 8 0
BBX 8 16 0 0
BITMAP 
00
00
66
3C
18
00
3C
66
60
60
60
66
3C
00
00
00
ENDCHAR
STARTCHAR U+0010E
ENCODING 270
SWIDTH 500 0
DWIDTH 8 0
BBX 8 16 0 0
BITMAP 
00
00
66
3C
18
00
78
6C
66
66
66
66
66
6C
78
00
ENDCHAR
STARTCHAR U+0010F
ENCODING 271
SWIDTH 500 0
DWIDTH 8 0
BBX 8 16 0 0
BITMAP 
00
00
1A
1A
1A
1A
7A
D8
D8
D8
D8
D8
78
00
00
00
ENDCHAR
STARTCHAR U+00110
ENCODING 272
SWIDTH 500 0
DWIDTH 8 0
BBX 8 16 0 0
BITMAP 
00
00
78
6C
66
66
66
F6
66
66
66
6C
78
00
00
00
ENDCHAR
STARTCHAR U+00111
ENCODING 273
SWIDTH 500 0
DWIDTH 8 0
BBX 8 16 0 0
BITMAP 
00
0C
3E
0C
7C
CC
CC
CC
CC
CC
CC
CC
7C
00
00
00
ENDCHAR
STARTCHAR U+00112
ENCODING 274
SWIDTH 500 0
DWIDTH 8 0
BBX 8 16 0 0
BITMAP 
7E
00
7E
60
60
60
60
7C
60
60
60
60
7E
00
00
00
ENDCHAR
STARTCHAR U+00113
ENCODING 275
SWIDTH 500 0
DWIDTH 8 0
BBX 8 16 0 0
BITMAP 
00
00
00
00
7E
00
3C
66
66
7E
60
60
3C
00
00
00
ENDCHAR
STARTCHAR U+00114
ENCODING 276
SWIDTH 500 0
DWIDTH 8 0
BBX 8 16 0 0
BITMAP 
66
3C
00
7E
60
60
60
60
7C
60
60
60
60
7E
00
00
ENDCHAR
STARTCHAR U+00115
ENCODING 277
SWIDTH 500 0
DWIDTH 8 0
BBX 8 16 0 0
BITMAP 
00
00
00
66
3C
00
3C
66
66
7E
60
60
3C
00
00
00
ENDCHAR
STARTCHAR U+00116
ENCODING 278
SWIDTH 500 0
DWIDTH 8 0
BBX 8 16 0 0
BITMAP 
18
18
00
7E
60
60
60
60
7C
60
60
60
60
7E
00
00
ENDCHAR
STARTCHAR U+00117
ENCODING 279
SWIDTH 500 0
DWIDTH 8 0
BBX 8 16 0 0
BITMAP 
00
00
00
18
18
00
3C
66
66
7E
60
60
3C
00
00
00
ENDCHAR
STARTCHAR U+00118
ENCODING 280
SWIDTH 500 0
DWIDTH 8 0
BBX 8 16 0 0
BITMAP 
00
00
FC
C0
C0
C0
C0
F8
C0
C0
C0
C0
FC
18
18
0E
ENDCHAR
STARTCHAR U+00119
ENCODING 281
SWIDTH 500 0
DWIDTH 8 0
BBX 8 16 0 0
BITMAP 
00
00
00
00
00
00
78
CC
CC
FC
C0
C4
78
18
18
0E
ENDCHAR
STARTCHAR U+0011A
ENCODING 282
SWIDTH 500 0
DWIDTH 8 0
BBX 8 16 0 0
BITMAP 
00
00
66
3C
18
00
7E
60
60
60
7C
60
60
60
7E
00
ENDCHAR
STARTCHAR U+0011B
ENCODING 283
SWIDTH 500 0
DWIDTH 8 0
BBX 8 16 0 0
BITMAP 
00
00
66
3C
18
00
3C
66
66
7E
60
60
3C
00
00
00
ENDCHAR
STARTCHAR U+0011C
ENCODING 284
SWIDTH 500 0
DWIDTH 8 0
BBX 8 16 0 0
BITMAP 
00
00
18
3C
66
00
3C
66
66
60
60
6E
66
66
3E
00
ENDCHAR
STARTCHAR U+0011D
ENCODING 285
SWIDTH 500 0
DWIDTH 8 0
BBX 8 16 0 0
BITMAP 
00
00
18
3C
66
00
3E
66
66
66
66
66
3E
06
06
7C
ENDCHAR
STARTCHAR U+0011E
ENCODING 286
SWIDTH 500 0
DWIDTH 8 0
BBX 8 16 0 0
BITMAP 
66
3C
00
3C
66
66
66
60
60
6E
66
66
66
3E
00
00
ENDCHAR
STARTCHAR U+0011F
ENCODING 287
SWIDTH 500 0
DWIDTH 8 0
BBX 8 16 0 0
BITMAP 
00
00
00
66
3C
00
3E
66
66
66
66
66
3E
06
06
7C
ENDCHAR
STARTCHAR U+00120
ENCODING 288
SWIDTH 500 0
DWIDTH 8 0
BBX 8 16 0 0
BITMAP 
18
18
00
3C
66
66
66
60
60
6E
66
66
66
3E
00
00
ENDCHAR
STARTCHAR U+00121
ENCODING 289
SWIDTH 500 0
DWIDTH 8 0
BBX 8 16 0 0
BITMAP 
00
00
00
18
18
00
3E
66
66
66
66
66
3E
06
06
7C
ENDCHAR
STARTCHAR U+00122
ENCODING 290
SWIDTH 500 0
DWIDTH 8 0
BBX 8 16 0 0
BITMAP 
00
00
00
00
3C
66
66
60
60
6E
66
66
3E
00
18
30
ENDCHAR
STARTCHAR U+00123
ENCODING 291
SWIDTH 500 0
DWIDTH 8 0
BBX 8 16 0 0
BITMAP 
00
00
0C
18
18
00
3E
66
66
66
66
66
3E
06
06
7C
ENDCHAR
STARTCHAR U+00124
ENCODING 292
SWIDTH 500 0
DWIDTH 8 0
BBX 8 16 0 0
BITMAP 
00
00
18
3C
66
00
66
66
66
66
7E
66
66
66
66
00
ENDCHAR
STARTCHAR U+00125
ENCODING 293
SWIDTH 500 0
DWIDTH 8 0
BBX 8 16 0 0
BITMAP 
00
00
18
3C
66
00
60
60
7C
66
66
66
66
66
66
00
ENDCHAR
STARTCHAR U+00126
ENCODING 294
SWIDTH 500 0
DWIDTH 8 0
BBX 8 16 0 0
BITMAP 
00
00
66
66
66
66
FF
66
7E
66
66
66
66
00
00
00
ENDCHAR
STARTCHAR U+00127
ENCODING 295
SWIDTH 500 0
DWIDTH 8 0
BBX 8 16 0 0
BITMAP 
00
60
F8
60
7C
66
66
66
66
66
66
66
66
00
00
00
ENDCHAR
STARTCHAR U+00128
ENCODING 296
SWIDTH 500 0
DWIDTH 8 0
BBX 8 16 0 0
BITMAP 
76
DC
00
78
30
30
30
30
30
30
30
30
30
78
00
00
ENDCHAR
STARTCHAR U+00129
ENCODING 297
SWIDTH 500 0
DWIDTH 8 0
BBX 8 16 0 0
BITMAP 
00
00
00
76
DC
00
78
18
18
18
18
18
7E
00
00
00
ENDCHAR
STARTCHAR U+0012A
ENCODING 298
SWIDTH 500 0
DWIDTH 8 0
BBX 8 16 0 0
BITMAP 
7E
00
3C
18
18
18
18
18
18
18
18
18
3C
00
00
00
ENDCHAR
STARTCHAR U+0012B
ENCODING 299
SWIDTH 500 0
DWIDTH 8 0
BBX 8 16 0 0
BITMAP 
00
00
00
00
7C
00
78
18
18
18
18
18
7E
00
00
00
ENDCHAR
STARTCHAR U+0012C
ENCODING 300
SWIDTH 500 0
DWIDTH 8 0
BBX 8 16 0 0
BITMAP 
66
3C
00
3C
18
18
18
18
18
18
18
18
18
3C
00
00
ENDCHAR
STARTCHAR U+0012D
ENCODING 301
SWIDTH 500 0
DWIDTH 8 0
BBX 8 16 0 0
BITMAP 
00
00
00
66
3C
00
78
18
18
18
18
18
7E
00
00
00
ENDCHAR
STARTCHAR U+0012E
ENCODING 302
SWIDTH 500 0
DWIDTH 8 0
BBX 8 16 0 0
BITMAP 
00
00
3C
18
18
18
18
18
18
18
18
18
3C
18
18
0E
ENDCHAR
STARTCHAR U+0012F
ENCODING 303
SWIDTH 500 0
DWIDTH 8 0
BBX 8 16 0 0
BITMAP 
00
00
00
18
18
00
78
18
18
18
18
18
7E
18
18
0E
ENDCHAR
STARTCHAR U+00130
ENCODING 304
SWIDTH 500 0
DWIDTH 8 0
BBX 8 16 0 0
BITMAP 
18
18
00
3C
18
18
18
18
18
18
18
18
18
3C
00
00
ENDCHAR
STARTCHAR U+00131
ENCODING 305
SWIDTH 500 0
DWIDTH 8 0
BBX 8 16 0 0
BITMAP 
00
00
00
00
00
00
78
18
18
18
18
18
7E
00
00
00
ENDCHAR
STARTCHAR U+00132
ENCODING 306
SWIDTH 500 0
DWIDTH 8 0
BBX 8 16 0 0
BITMAP 
00
00
C3
C3
C3
C3
C3
C3
C3
C3
DB
DB
CE
00
00
00
ENDCHAR
STARTCHAR U+00133
ENCODING 307
SWIDTH 500 0
DWIDTH 8 0
BBX 8 16 0 0
BITMAP 
00
00
00
66
66
00
EE
66
66
66
66
66
F6
06
06
3C
ENDCHAR
STARTCHAR U+00134
ENCODING 308
SWIDTH 500 0
DWIDTH 8 0
BBX 8 16 0 0
BITMAP 
00
00
18
3C
66
00
0C
0C
0C
0C
0C
0C
CC
CC
78
00
ENDCHAR
STARTCHAR U+00135
ENCODING 309
SWIDTH 500 0
DWIDTH 8 0
BBX 8 16 0 0
BITMAP 
00
00
18
3C
66
00
3C
0C
0C
0C
0C
0C
0C
0C
0C
78
ENDCHAR
STARTCHAR U+00136
ENCODING 310
SWIDTH 500 0
DWIDTH 8 0
BBX 8 16 0 0
BITMAP 
00
00
00
00
66
66
6C
6C
78
6C
6C
66
66
00
18
30
ENDCHAR
STARTCHAR U+00137
ENCODING 311
SWIDTH 500 0
DWIDTH 8 0
BBX 8 16 0 0
BITMAP 
00
00
00
00
60
60
66
66
6C
78
6C
66
66
00
18
30
ENDCHAR
STARTCHAR U+00138
ENCODING 312
SWIDTH 500 0
DWIDTH 8 0
BBX 8 16 0 0
BITMAP 
00
00
00
00
00
00
66
66
6C
78
6C
66
66
00
00
00
ENDCHAR
STARTCHAR U+00139
ENCODING 313
SWIDTH 500 0
DWIDTH 8 0
BBX 8 16 0 0
BITMAP 
18
30
00
60
60
60
60
60
60
60
60
60
60
7E
00
00
ENDCHAR
STARTCHAR U+0013A
ENCODING 314
SWIDTH 500 0
DWIDTH 8 0
BBX 8 16 0 0
BITMAP 
0C
18
00
78
18
18
18
18
18
18
18
18
18
7E
00
00
ENDCHAR
STARTCHAR U+0013B
ENCODING 315
SWIDTH 500 0
DWIDTH 8 0
BBX 8 16 0 0
BITMAP 
00
00
00
00
60
60
60
60
60
60
60
60
7E
00
18
30
ENDCHAR
STARTCHAR U+0013C
ENCODING 316
SWIDTH 500 0
DWIDTH 8 0
BBX 8 16 0 0
BITMAP 
00
00
00
00
78
18
18
18
18
18
18
18
7E
00
18
30
ENDCHAR
STARTCHAR U+0013D
ENCODING 317
SWIDTH 500 0
DWIDTH 8 0
BBX 8 16 0 0
BITMAP 
00
00
66
66
66
66
62
64
60
60
60
60
7E
00
00
00
ENDCHAR
STARTCHAR U+0013E
ENCODING 318
SWIDTH 500 0
DWIDTH 8 0
BBX 8 16 0 0
BITMAP 
00
00
F6
36
32
34
30
30
30
30
30
30
FC
00
00
00
ENDCHAR
STARTCHAR U+0013F
ENCODING 319
SWIDTH 500 0
DWIDTH 8 0
BBX 8 16 0 0
BITMAP 
00
00
60
60
60
60
66
66
60
60
60
60
7E
00
00
00
ENDCHAR
STARTCHAR U+00140
ENCODING 320
SWIDTH 500 0
DWIDTH 8 0
BBX 8 16 0 0
BITMAP 
00
00
F0
30
30
30
36
36
30
30
30
30
FC
00
00
00
ENDCHAR
STARTCHAR U+00141
ENCODING 321
SWIDTH 500 0
DWIDTH 8 0
BBX 8 16 0 0
BITMAP 
00
00
60
68
78
70
60
E0
E0
E0
E0
60
7E
00
00
00
ENDCHAR
STARTCHAR U+00142
ENCODING 322
SWIDTH 500 0
DWIDTH 8 0
BBX 8 16 0 0
BITMAP 
00
00
00
00
78
1A
1E
1C
38
78
58
18
7E
00
00
00
ENDCHAR
STARTCHAR U+00143
ENCODING 323
SWIDTH 500 0
DWIDTH 8 0
BBX 8 16 0 0
BITMAP 
18
30
00
C6
C6
C6
C6
E6
F6
DE
CE
C6
C6
C6
00
00
ENDCHAR
STARTCHAR U+00144
ENCODING 324
SWIDTH 500 0
DWIDTH 8 0
BBX 8 16 0 0
BITMAP 
00
00
0E
0C
18
00
7C
66
66
66
66
66
66
00
00
00
ENDCHAR
STARTCHAR U+00145
ENCODING 325
SWIDTH 500 0
DWIDTH 8 0
BBX 8 16 0 0
BITMAP 
00
00
00
00
C6
C6
E6
F6
DE
CE
C6
C6
C6
00
18
30
ENDCHAR
STARTCHAR U+00146
ENCODING 326
SWIDTH 500 0
DWIDTH 8 0
BBX 8 16 0 0
BITMAP 
00
00
00
00
00
00
7C
66
66
66
66
66
66
00
18
30
ENDCHAR
STARTCHAR U+00147
ENCODING 327
SWIDTH 500 0
DWIDTH 8 0
BBX 8 16 0 0
BITMAP 
00
00
66
3C
18
00
C6
C6
E6
F6
DE
CE
C6
C6
C6
00
ENDCHAR
STARTCHAR U+00148
ENCODING 328
SWIDTH 500 0
DWIDTH 8 0
BBX 8 16 0 0
BITMAP 
00
00
66
3C
18
00
7C
66
66
66
66
66
66
00
00
00
ENDCHAR
STARTCHAR U+00149
ENCODING 329
SWIDTH 500 0
DWIDTH 8 0
BBX 8 16 0 0
BITMAP 
00
00
C0
C0
C0
C0
7E
B3
33
33
33
33
33
00
00
00
ENDCHAR
STARTCHAR U+0014A
ENCODING 330
SWIDTH 500 0
DWIDTH 8 0
BBX 8 16 0 0
BITMAP 
00
00
7C
66
66
66
66
66
66
66
66
66
66
06
06
3C
ENDCHAR
STARTCHAR U+0014B
ENCODING 331
SWIDTH 500 0
DWIDTH 8 0
BBX 8 16 0 0
BITMAP 
00
00
00
00
00
00
7C
66
66
66
66
66
66
06
06
1C
ENDCHAR
STARTCHAR U+0014C
ENCODING 332
SWIDTH 500 0
DWIDTH 8 0
BBX 8 16 0 0
BITMAP 
7E
00
3C
66
66
66
66
66
66
66
66
66
3C
00
00
00
ENDCHAR
STARTCHAR U+0014D
ENCODING 333
SWIDTH 500 0
DWIDTH 8 0
BBX 8 16 0 0
BITMAP 
00
00
00
00
7E
00
3C
66
66
66
66
66
3C
00
00
00
ENDCHAR
STARTCHAR U+0014E
ENCODING 334
SWIDTH 500 0
DWIDTH 8 0
BBX 8 16 0 0
BITMAP 
66
3C
00
3C
66
66
66
66
66
66
66
66
66
3C
00
00
ENDCHAR
STARTCHAR U+0014F
ENCODING 335
SWIDTH 500 0
DWIDTH 8 0
BBX 8 16 0 0
BITMAP 
00
00
00
66
3C
00
3C
66
66
66
66
66
3C
00
00
00
ENDCHAR
STARTCHAR U+00150
ENCODING 336
SWIDTH 500 0
DWIDTH 8 0
BBX 8 16 0 0
BITMAP 
66
CC
00
78
CC
CC
CC
CC
CC
CC
CC
CC
CC
78
00
00
ENDCHAR
STARTCHAR U+00151
ENCODING 337
SWIDTH 500 0
DWIDTH 8 0
BBX 8 16 0 0
BITMAP 
00
00
00
66
CC
00
78
CC
CC
CC
CC
CC
78
00
00
00
ENDCHAR
STARTCHAR U+00152
ENCODING 338
SWIDTH 500 0
DWIDTH 8 0
BBX 8 16 0 0
BITMAP 
00
00
7E
D8
D8
D8
D8
DE
D8
D8
D8
D8
7E
00
00
00
ENDCHAR
STARTCHAR U+00153
ENCODING 339
SWIDTH 500 0
DWIDTH 8 0
BBX 8 16 0 0
BITMAP 
00
00
00
00
00
00
6E
DB
DB
DF
D8
D8
77
00
00
00
ENDCHAR
STARTCHAR U+00154
ENCODING 340
SWIDTH 500 0
DWIDTH 8 0
BBX 8 16 0 0
BITMAP 
0C
18
00
7C
66
66
66
66
7C
6C
66
66
66
66
00
00
ENDCHAR
STARTCHAR U+00155
ENCODING 341
SWIDTH 500 0
DWIDTH 8 0
BBX 8 16 0 0
BITMAP 
00
00
0E
0C
18
00
66
6E
70
60
60
60
60
00
00
00
ENDCHAR
STARTCHAR U+00156
ENCODING 342
SWIDTH 500 0
DWIDTH 8 0
BBX 8 16 0 0
BITMAP 
00
00
00
00
7C
66
66
66
7C
6C
66
66
66
00
18
30
ENDCHAR
STARTCHAR U+00157
ENCODING 343
SWIDTH 500 0
DWIDTH 8 0
BBX 8 16 0 0
BITMAP 
00
00
00
00
00
00
66
6E
70
60
60
60
60
00
30
60
ENDCHAR
STARTCHAR U+00158
ENCODING 344
SWIDTH 500 0
DWIDTH 8 0
BBX 8 16 0 0
BITMAP 
00
00
66
3C
18
00
7C
66
66
66
7C
6C
66
66
66
00
ENDCHAR
STARTCHAR U+00159
ENCODING 345
SWIDTH 500 0
DWIDTH 8 0
BBX 8 16 0 0
BITMAP 
00
00
66
3C
18
00
66
6E
70
60
60
60
60
00
00
00
ENDCHAR
STARTCHAR U+0015A
ENCODING 346
SWIDTH 500 0
DWIDTH 8 0
BBX 8 16 0 0
BITMAP 
00
00
0C
18
00
3C
66
60
30
18
0C
06
66
3C
00
00
ENDCHAR
STARTCHAR U+0015B
ENCODING 347
SWIDTH 500 0
DWIDTH 8 0
BBX 8 16 0 0
BITMAP 
00
00
0E
0C
18
00
3E
60
60
3C
06
06
7C
00
00
00
ENDCHAR
STARTCHAR U+0015C
ENCODING 348
SWIDTH 500 0
DWIDTH 8 0
BBX 8 16 0 0
BITMAP 
00
00
18
3C
66
00
3C
66
60
30
18
0C
06
66
3C
00
ENDCHAR
STARTCHAR U+0015D
ENCODING 349
SWIDTH 500 0
DWIDTH 8 0
BBX 8 16 0 0
BITMAP 
00
00
18
3C
66
00
3E
60
60
3C
06
06
7C
00
00
00
ENDCHAR
STARTCHAR U+0015E
ENCODING 350
SWIDTH 500 0
DWIDTH 8 0
BBX 8 16 0 0
BITMAP 
00
00
00
00
3C
66
60
30
18
0C
06
66
3C
18
0C
38
ENDCHAR
STARTCHAR U+0015F
ENCODING 351
SWIDTH 500 0
DWIDTH 8 0
BBX 8 16 0 0
BITMAP 
00
00
00
00
00
00
3E
60
60
3C
06
06
7C
18
0C
38
ENDCHAR
STARTCHAR U+00160
ENCODING 352
SWIDTH 500 0
DWIDTH 8 0
BBX 8 16 0 0
BITMAP 
00
00
66
3C
18
00
3C
66
60
30
18
0C
06
66
3C
00
ENDCHAR
STARTCHAR U+00161
ENCODING 353
SWIDTH 500 0
DWIDTH 8 0
BBX 8 16 0 0
BITMAP 
00
00
66
3C
18
00
3E
60
60
3C
06
06
7C
00
00
00
ENDCHAR
STARTCHAR U+00162
ENCODING 354
SWIDTH 500 0
DWIDTH 8 0
BBX 8 16 0 0
BITMAP 
00
00
7E
18
18
18
18
18
18
18
18
18
18
18
0C
38
ENDCHAR
STARTCHAR U+00163
ENCODING 355
SWIDTH 500 0
DWIDTH 8 0
BBX 8 16 0 0
BITMAP 
00
00
30
30
30
30
7E
30
30
30
30
30
1E
18
0C
38
ENDCHAR
STARTCHAR U+00164
ENCODING 356
SWIDTH 500 0
DWIDTH 8 0
BBX 8 16 0 0
BITMAP 
00
00
66
3C
18
00
7E
18
18
18
18
18
18
18
18
00
ENDCHAR
STARTCHAR U+00165
ENCODING 357
SWIDTH 500 0
DWIDTH 8 0
BBX 8 16 0 0
BITMAP 
00
00
63
63
63
63
F9
62
60
60
60
60
38
00
00
00
ENDCHAR
STARTCHAR U+00166
ENCODING 358
SWIDTH 500 0
DWIDTH 8 0
BBX 8 16 0 0
BITMAP 
00
00
7E
18
18
18
18
3C
18
18
18
18
18
00
00
00
ENDCHAR
STARTCHAR U+00167
ENCODING 359
SWIDTH 500 0
DWIDTH 8 0
BBX 8 16 0 0
BITMAP 
00
00
30
30
30
30
7E
30
7C
30
30
30
1E
00
00
00
ENDCHAR
STARTCHAR U+00168
ENCODING 360
SWIDTH 500 0
DWIDTH 8 0
BBX 8 16 0 0
BITMAP 
76
DC
00
CC
CC
CC
CC
CC
CC
CC
CC
CC
CC
78
00
00
ENDCHAR
STARTCHAR U+00169
ENCODING 361
SWIDTH 500 0
DWIDTH 8 0
BBX 8 16 0 0
BITMAP 
00
00
00
76
DC
00
CC
CC
CC
CC
CC
CC
7C
00
00
00
ENDCHAR
STARTCHAR U+0016A
ENCODING 362
SWIDTH 500 0
DWIDTH 8 0
BBX 8 16 0 0
BITMAP 
7E
00
66
66
66
66
66
66
66
66
66
66
3C
00
00
00
ENDCHAR
STARTCHAR U+0016B
ENCODING 363
SWIDTH 500 0
DWIDTH 8 0
BBX 8 16 0 0
BITMAP 
00
00
00
00
7E
00
66
66
66
66
66
66
3E
00
00
00
ENDCHAR
STARTCHAR U+0016C
ENCODING 364
SWIDTH 500 0
DWIDTH 8 0
BBX 8 16 0 0
BITMAP 
66
3C
00
66
66
66
66
66
66
66
66
66
66
3C
00
00
ENDCHAR
STARTCHAR U+0016D
ENCODING 365
SWIDTH 500 0
DWIDTH 8 0
BBX 8 16 0 0
BITMAP 
00
00
00
66
3C
00
66
66
66
66
66
66
3E
00
00
00
ENDCHAR
STARTCHAR U+0016E
ENCODING 366
SWIDTH 500 0
DWIDTH 8 0
BBX 8 16 0 0
BITMAP 
00
00
3C
66
3C
00
66
66
66
66
66
66
66
66
3C
00
ENDCHAR
STARTCHAR U+0016F
ENCODING 367
SWIDTH 500 0
DWIDTH 8 0
BBX 8 16 0 0
BITMAP 
00
00
3C
66
3C
00
66
66
66
66
66
66
3E
00
00
00
ENDCHAR
STARTCHAR U+00170
ENCODING 368
SWIDTH 500 0
DWIDTH 8 0
BBX 8 16 0 0
BITMAP 
66
CC
00
CC
CC
CC
CC
CC
CC
CC
CC
CC
CC
78
00
00
ENDCHAR
STARTCHAR U+00171
ENCODING 369
SWIDTH 500 0
DWIDTH 8 0
BBX 8 16 0 0
BITMAP 
00
00
00
66
CC
00
CC
CC
CC
CC
CC
CC
7C
00
00
00
ENDCHAR
STARTCHAR U+00172
ENCODING 370
SWIDTH 500 0
DWIDTH 8 0
BBX 8 16 0 0
BITMAP 
00
00
66
66
66
66
66
66
66
66
66
66
3C
18
18
0E
ENDCHAR
STARTCHAR U+00173
ENCODING 371
SWIDTH 500 0
DWIDTH 8 0
BBX 8 16 0 0
BITMAP 
00
00
00
00
00
00
CC
CC
CC
CC
CC
CC
7C
18
18
0E
ENDCHAR
STARTCHAR U+00174
ENCODING 372
SWIDTH 500 0
DWIDTH 8 0
BBX 8 16 0 0
BITMAP 
00
00
30
78
CC
00
C6
C6
C6
D6
D6
D6
6C
6C
6C
00
ENDCHAR
STARTCHAR U+00175
ENCODING 373
SWIDTH 500 0
DWIDTH 8 0
BBX 8 16 0 0
BITMAP 
00
00
30
78
CC
00
C6
D6
D6
D6
D6
6C
6C
00
00
00
ENDCHAR
STARTCHAR U+00176
ENCODING 374
SWIDTH 500 0
DWIDTH 8 0
BBX 8 16 0 0
BITMAP 
00
00
18
3C
66
00
66
66
66
66
3C
18
18
18
18
00
ENDCHAR
STARTCHAR U+00177
ENCODING 375
SWIDTH 500 0
DWIDTH 8 0
BBX 8 16 0 0
BITMAP 
00
00
18
3C
66
00
66
66
66
66
66
66
3C
0C
18
F0
ENDCHAR
STARTCHAR U+00178
ENCODING 376
SWIDTH 500 0
DWIDTH 8 0
BBX 8 16 0 0
BITMAP 
66
66
00
66
66
66
66
66
66
3C
18
18
18
18
00
00
ENDCHAR
STARTCHAR U+00179
ENCODING 377
SWIDTH 500 0
DWIDTH 8 0
BBX 8 16 0 0
BITMAP 
0C
18
00
7E
06
06
06
0C
18
30
60
60
60
7E
00
00
ENDCHAR
STARTCHAR U+0017A
ENCODING 378
SWIDTH 500 0
DWIDTH 8 0
BBX 8 16 0 0
BITMAP 
00
00
0E
0C
18
00
7E
06
0C
18
30
60
7E
00
00
00
ENDCHAR
STARTCHAR U+0017B
ENCODING 379
SWIDTH 500 0
DWIDTH 8 0
BBX 8 16 0 0
BITMAP 
18
18
00
7E
06
06
06
0C
18
30
60
60
60
7E
00
00
ENDCHAR
STARTCHAR U+0017C
ENCODING 380
SWIDTH 500 0
DWIDTH 8 0
BBX 8 16 0 0
BITMAP 
00
00
00
18
18
00
7E
06
0C
18
30
60
7E
00
00
00
ENDCHAR
STARTCHAR U+0017D
ENCODING 381
SWIDTH 500 0
DWIDTH 8 0
BBX 8 16 0 0
BITMAP 
00
00
66
3C
18
00
7E
06
06
0C
18
30
60
60
7E
00
ENDCHAR
STARTCHAR U+0017E
ENCODING 382
SWIDTH 500 0
DWIDTH 8 0
BBX 8 16 0 0
BITMAP 
00
00
66
3C
18
00
7E
06
0C
18
30
60
7E
00
00
00
ENDCHAR
STARTCHAR U+0017F
ENCODING 383
SWIDTH 500 0
DWIDTH 8 0
BBX 8 16 0 0
BITMAP 
00
00
1E
30
30
30
30
70
30
30
30
30
30
00
00
00
ENDCHAR
STARTCHAR U+00180
ENCODING 384
SWIDTH 500 0
DWIDTH 8 0
BBX 8 16 0 0
BITMAP 
00
60
F8
60
7C
66
66
66
66
66
66
66
7C
00
00
00
ENDCHAR
STARTCHAR U+00181
ENCODING 385
SWIDTH 500 0
DWIDTH 8 0
BBX 8 16 0 0
BITMAP 
00
00
E0
30
30
3E
33
33
33
3E
33
33
33
3E
00
00
ENDCHAR
STARTCHAR U+00182
ENCODING 386
SWIDTH 500 0
DWIDTH 8 0
BBX 8 16 0 0
BITMAP 
00
00
7E
60
60
60
60
7C
66
66
66
66
7C
00
00
00
ENDCHAR
STARTCHAR U+00183
ENCODING 387
SWIDTH 500 0
DWIDTH 8 0
BBX 8 16 0 0
BITMAP 
00
00
7C
60
7C
66
66
66
66
66
66
66
7C
00
00
00
ENDCHAR
STARTCHAR U+00184
ENCODING 388
SWIDTH 500 0
DWIDTH 8 0
BBX 8 16 0 0
BITMAP 
00
00
60
E0
60
60
60
7C
66
66
66
66
7C
00
00
00
ENDCHAR
STARTCHAR U+00185
ENCODING 389
SWIDTH 500 0
DWIDTH 8 0
BBX 8 16 0 0
BITMAP 
00
00
60
E0
7C
66
66
66
66
66
66
66
3C
00
00
00
ENDCHAR
STARTCHAR U+00186
ENCODING 390
SWIDTH 500 0
DWIDTH 8 0
BBX 8 16 0 0
BITMAP 
00
00
3C
66
66
66
06
06
06
66
66
66
3C
00
00
00
ENDCHAR
STARTCHAR U+00187
ENCODING 391
SWIDTH 500 0
DWIDTH 8 0
BBX 8 16 0 0
BITMAP 
00
00
06
0C
7C
CC
CC
C0
C0
C0
CC
CC
78
00
00
00
ENDCHAR
STARTCHAR U+00188
ENCODING 392
SWIDTH 500 0
DWIDTH 8 0
BBX 8 16 0 0
BITMAP 
00
00
06
0C
7C
CC
C0
C0
C0
C0
C0
CC
78
00
00
00
ENDCHAR
STARTCHAR U+00189
ENCODING 393
SWIDTH 500 0
DWIDTH 8 0
BBX 8 16 0 0
BITMAP 
00
00
78
6C
66
66
66
F6
66
66
66
6C
78
00
00
00
ENDCHAR
STARTCHAR U+0018A
ENCODING 394
SWIDTH 1000 0
DWIDTH 16 0
BBX 16 16 0 0
BITMAP 
0000
0000
7000
D800
1E00
1B00
1980
1980
1980
1980
1980
1B00
1E00
0000
0000
0000
ENDCHAR
STARTCHAR U+0018B
ENCODING 395
SWIDTH 500 0
DWIDTH 8 0
BBX 8 16 0 0
BITMAP 
00
00
3E
06
06
06
06
3E
66
66
66
66
3E
00
00
00
ENDCHAR
STARTCHAR U+0018C
ENCODING 396
SWIDTH 500 0
DWIDTH 8 0
BBX 8 16 0 0
BITMAP 
00
00
3E
06
3E
66
66
66
66
66
66
66
3E
00
00
00
ENDCHAR
STARTCHAR U+0018D
ENCODING 397
SWIDTH 500 0
DWIDTH 8 0
BBX 8 16 0 0
BITMAP 
00
00
00
00
00
00
3C
66
66
66
66
66
3C
0C
0C
38
ENDCHAR
STARTCHAR U+0018E
ENCODING 398
SWIDTH 500 0
DWIDTH 8 0
BBX 8 16 0 0
BITMAP 
00
00
7E
06
06
06
06
3E
06
06
06
06
7E
00
00
00
ENDCHAR
STARTCHAR U+0018F
ENCODING 399
SWIDTH 500 0
DWIDTH 8 0
BBX 8 16 0 0
BITMAP 
00
00
3C
66
66
66
06
7E
66
66
66
66
3C
00
00
00
ENDCHAR
STARTCHAR U+00190
ENCODING 400
SWIDTH 500 0
DWIDTH 8 0
BBX 8 16 0 0
BITMAP 
00
00
3C
66
66
66
60
38
60
66
66
66
3C
00
00
00
ENDCHAR
STARTCHAR U+00191
ENCODING 401
SWIDTH 500 0
DWIDTH 8 0
BBX 8 16 0 0
BITMAP 
00
00
7E
60
60
60
60
7C
60
60
60
60
60
60
60
C0
ENDCHAR
STARTCHAR U+00192
ENCODING 402
SWIDTH 500 0
DWIDTH 8 0
BBX 8 16 0 0
BITMAP 
00
00
1E
30
30
30
30
7E
30
30
30
30
30
30
30
E0
ENDCHAR
STARTCHAR U+00193
ENCODING 403
SWIDTH 500 0
DWIDTH 8 0
BBX 8 16 0 0
BITMAP 
00
00
06
0C
7C
CC
CC
C0
C0
DC
CC
CC
7C
00
00
00
ENDCHAR
STARTCHAR U+00194
ENCODING 404
SWIDTH 500 0
DWIDTH 8 0
BBX 8 16 0 0
BITMAP 
00
00
66
66
66
66
66
66
66
66
3C
18
3C
66
66
3C
ENDCHAR
STARTCHAR U+00195
ENCODING 405
SWIDTH 500 0
DWIDTH 8 0
BBX 8 16 0 0
BITMAP 
00
00
C0
C0
C0
C0
F3
DB
DB
DB
DB
DB
CE
00
00
00
ENDCHAR
STARTCHAR U+00196
ENCODING 406
SWIDTH 500 0
DWIDTH 8 0
BBX 8 16 0 0
BITMAP 
00
00
30
30
30
30
30
30
30
30
30
36
1C
00
00
00
ENDCHAR
STARTCHAR U+00197
ENCODING 407
SWIDTH 500 0
DWIDTH 8 0
BBX 8 16 0 0
BITMAP 
00
00
3C
18
18
18
18
7E
18
18
18
18
3C
00
00
00
ENDCHAR
STARTCHAR U+00198
ENCODING 408
SWIDTH 500 0
DWIDTH 8 0
BBX 8 16 0 0
BITMAP 
00
0E
DA
DA
DA
D8
D8
F0
D8
D8
CC
CC
CC
00
00
00
ENDCHAR
STARTCHAR U+00199
ENCODING 409
SWIDTH 500 0
DWIDTH 8 0
BBX 8 16 0 0
BITMAP 
00
38
60
60
60
66
66
6C
78
6C
66
66
66
00
00
00
ENDCHAR
STARTCHAR U+0019A
ENCODING 410
SWIDTH 500 0
DWIDTH 8 0
BBX 8 16 0 0
BITMAP 
00
00
78
18
18
18
18
7E
18
18
18
18
7E
00
00
00
ENDCHAR
STARTCHAR U+0019B
ENCODING 411
SWIDTH 500 0
DWIDTH 8 0
BBX 8 16 0 0
BITMAP 
00
00
34
3C
78
58
3C
66
66
66
66
66
66
00
00
00
ENDCHAR
STARTCHAR U+0019C
ENCODING 412
SWIDTH 500 0
DWIDTH 8 0
BBX 8 16 0 0
BITMAP 
00
00
D6
D6
D6
D6
D6
D6
D6
D6
D6
D6
7E
00
00
00
ENDCHAR
STARTCHAR U+0019D
ENCODING 413
SWIDTH 500 0
DWIDTH 8 0
BBX 8 16 0 0
BITMAP 
00
00
63
63
63
63
73
7B
6F
67
63
63
63
60
60
C0
ENDCHAR
STARTCHAR U+0019E
ENCODING 414
SWIDTH 500 0
DWIDTH 8 0
BBX 8 16 0 0
BITMAP 
00
00
00
00
00
00
7C
66
66
66
66
66
66
06
06
06
ENDCHAR
STARTCHAR U+0019F
ENCODING 415
SWIDTH 500 0
DWIDTH 8 0
BBX 8 16 0 0
BITMAP 
00
00
3C
66
66
66
66
7E
66
66
66
66
3C
00
00
00
ENDCHAR
STARTCHAR U+001A0
ENCODING 416
SWIDTH 500 0
DWIDTH 8 0
BBX 8 16 0 0
BITMAP 
00
00
06
06
7A
CE
CC
CC
CC
CC
CC
CC
78
00
00
00
ENDCHAR
STARTCHAR U+001A1
ENCODING 417
SWIDTH 500 0
DWIDTH 8 0
BBX 8 16 0 0
BITMAP 
00
00
06
06
06
06
7A
CE
CC
CC
CC
CC
78
00
00
00
ENDCHAR
STARTCHAR U+001A2
ENCODING 418
SWIDTH 500 0
DWIDTH 8 0
BBX 8 16 0 0
BITMAP 
00
00
7E
D6
D6
D6
D6
D6
D6
D6
D6
D6
76
06
06
06
ENDCHAR
STARTCHAR U+001A3
ENCODING 419
SWIDTH 500 0
DWIDTH 8 0
BBX 8 16 0 0
BITMAP 
00
00
00
00
00
00
7C
D6
D6
D6
D6
D6
76
06
06
06
ENDCHAR
STARTCHAR U+001A4
ENCODING 420
SWIDTH 1000 0
DWIDTH 16 0
BBX 16 16 0 0
BITMAP 
0000
0000
7000
D800
1F00
1980
1980
1980
1F00
1800
1800
1800
1800
0000
0000
0000
ENDCHAR
STARTCHAR U+001A5
ENCODING 421
SWIDTH 500 0
DWIDTH 8 0
BBX 8 16 0 0
BITMAP 
00
38
60
60
60
7C
66
66
66
66
66
66
7C
60
60
60
ENDCHAR
STARTCHAR U+001A6
ENCODING 422
SWIDTH 500 0
DWIDTH 8 0
BBX 8 16 0 0
BITMAP 
00
00
C0
F8
CC
CC
CC
CC
F8
D8
CC
CC
CC
0C
0C
06
ENDCHAR
STARTCHAR U+001A7
ENCODING 423
SWIDTH 500 0
DWIDTH 8 0
BBX 8 16 0 0
BITMAP 
00
00
00
00
3C
66
06
0C
18
30
60
66
3C
00
00
00
ENDCHAR
STARTCHAR U+001A8
ENCODING 424
SWIDTH 500 0
DWIDTH 8 0
BBX 8 16 0 0
BITMAP 
00
00
00
00
00
00
7C
06
06
3C
60
60
3E
00
00
00
ENDCHAR
STARTCHAR U+001A9
ENCODING 425
SWIDTH 500 0
DWIDTH 8 0
BBX 8 16 0 0
BITMAP 
00
00
7E
60
60
60
30
18
30
60
60
60
7E
00
00
00
ENDCHAR
STARTCHAR U+001AA
ENCODING 426
SWIDTH 500 0
DWIDTH 8 0
BBX 8 16 0 0
BITMAP 
00
70
D8
D8
D8
78
18
18
18
18
18
18
18
18
18
0E
ENDCHAR
STARTCHAR U+001AB
ENCODING 427
SWIDTH 500 0
DWIDTH 8 0
BBX 8 16 0 0
BITMAP 
00
00
30
30
30
30
7E
30
30
30
30
30
1E
06
66
3C
ENDCHAR
STARTCHAR U+001AC
ENCODING 428
SWIDTH 500 0
DWIDTH 8 0
BBX 8 16 0 0
BITMAP 
00
00
7E
D8
D8
D8
18
18
18
18
18
18
18
00
00
00
ENDCHAR
STARTCHAR U+001AD
ENCODING 429
SWIDTH 500 0
DWIDTH 8 0
BBX 8 16 0 0
BITMAP 
00
1C
30
30
30
7E
30
30
30
30
30
30
1E
00
00
00
ENDCHAR
STARTCHAR U+001AE
ENCODING 430
SWIDTH 500 0
DWIDTH 8 0
BBX 8 16 0 0
BITMAP 
00
00
7E
18
18
18
18
18
18
18
18
18
18
18
18
0E
ENDCHAR
STARTCHAR U+001AF
ENCODING 431
SWIDTH 500 0
DWIDTH 8 0
BBX 8 16 0 0
BITMAP 
00
00
06
06
CA
CE
CC
CC
CC
CC
CC
CC
78
00
00
00
ENDCHAR
STARTCHAR U+001B0
ENCODING 432
SWIDTH 500 0
DWIDTH 8 0
BBX 8 16 0 0
BITMAP 
00
00
06
06
06
06
CA
CE
CC
CC
CC
CC
7C
00
00
00
ENDCHAR
STARTCHAR U+001B1
ENCODING 433
SWIDTH 500 0
DWIDTH 8 0
BBX 8 16 0 0
BITMAP 
00
00
EE
6C
C6
C6
C6
C6
C6
C6
C6
C6
7C
00
00
00
ENDCHAR
STARTCHAR U+001B2
ENCODING 434
SWIDTH 500 0
DWIDTH 8 0
BBX 8 16 0 0
BITMAP 
00
0C
66
66
66
66
66
66
66
66
66
3C
18
00
00
00
ENDCHAR
STARTCHAR U+001B3
ENCODING 435
SWIDTH 500 0
DWIDTH 8 0
BBX 8 16 0 0
BITMAP 
00
06
CC
CC
CC
CC
CC
78
30
30
30
30
30
00
00
00
ENDCHAR
STARTCHAR U+001B4
ENCODING 436
SWIDTH 1000 0
DWIDTH 16 0
BBX 16 16 0 0
BITMAP 
0000
0000
0380
0600
6600
6600
6600
6600
6600
6600
6600
6600
3C00
0C00
1800
F000
ENDCHAR
STARTCHAR U+001B5
ENCODING 437
SWIDTH 500 0
DWIDTH 8 0
BBX 8 16 0 0
BITMAP 
00
00
7E
06
06
06
0C
7E
30
60
60
60
7E
00
00
00
ENDCHAR
STARTCHAR U+001B6
ENCODING 438
SWIDTH 500 0
DWIDTH 8 0
BBX 8 16 0 0
BITMAP 
00
00
00
00
00
00
7E
06
0C
7E
30
60
7E
00
00
00
ENDCHAR
STARTCHAR U+001B7
ENCODING 439
SWIDTH 500 0
DWIDTH 8 0
BBX 8 16 0 0
BITMAP 
00
00
7E
06
0C
1C
06
06
06
06
06
66
3C
00
00
00
ENDCHAR
STARTCHAR U+001B8
ENCODING 440
SWIDTH 500 0
DWIDTH 8 0
BBX 8 16 0 0
BITMAP 
00
00
7E
60
30
38
60
60
60
60
60
66
3C
00
00
00
ENDCHAR
STARTCHAR U+001B9
ENCODING 441
SWIDTH 500 0
DWIDTH 8 0
BBX 8 16 0 0
BITMAP 
00
00
00
00
00
00
7E
60
30
18
3C
60
60
60
66
3C
ENDCHAR
STARTCHAR U+001BA
ENCODING 442
SWIDTH 500 0
DWIDTH 8 0
BBX 8 16 0 0
BITMAP 
00
00
00
00
00
00
7E
0C
18
38
0C
0C
38
60
66
3C
ENDCHAR
STARTCHAR U+001BB
ENCODING 443
SWIDTH 500 0
DWIDTH 8 0
BBX 8 16 0 0
BITMAP 
00
00
3C
66
66
66
66
06
0C
7E
30
60
7E
00
00
00
ENDCHAR
STARTCHAR U+001BC
ENCODING 444
SWIDTH 500 0
DWIDTH 8 0
BBX 8 16 0 0
BITMAP 
00
00
7E
30
30
30
30
3C
06
06
06
0C
78
00
00
00
ENDCHAR
STARTCHAR U+001BD
ENCODING 445
SWIDTH 500 0
DWIDTH 8 0
BBX 8 16 0 0
BITMAP 
00
00
00
00
00
00
7E
30
30
3C
06
06
3C
00
00
00
ENDCHAR
STARTCHAR U+001BE
ENCODING 446
SWIDTH 500 0
DWIDTH 8 0
BBX 8 16 0 0
BITMAP 
00
00
30
30
30
30
7E
30
30
1C
06
06
7C
00
00
00
ENDCHAR
STARTCHAR U+001BF
ENCODING 447
SWIDTH 500 0
DWIDTH 8 0
BBX 8 16 0 0
BITMAP 
00
00
00
00
00
00
7C
66
66
66
6C
78
70
60
60
60
ENDCHAR
STARTCHAR U+001C0
ENCODING 448
SWIDTH 500 0
DWIDTH 8 0
BBX 8 16 0 0
BITMAP 
00
00
18
18
18
18
18
18
18
18
18
18
18
00
00
00
ENDCHAR
STARTCHAR U+001C1
ENCODING 449
SWIDTH 500 0
DWIDTH 8 0
BBX 8 16 0 0
BITMAP 
00
00
36
36
36
36
36
36
36
36
36
36
36
00
00
00
ENDCHAR
STARTCHAR U+001C2
ENCODING 450
SWIDTH 500 0
DWIDTH 8 0
BBX 8 16 0 0
BITMAP 
00
00
18
18
18
18
18
7E
18
7E
18
18
18
00
00
00
ENDCHAR
STARTCHAR U+001C3
ENCODING 451
SWIDTH 500 0
DWIDTH 8 0
BBX 8 16 0 0
BITMAP 
00
00
00
00
18
3C
3C
3C
18
18
00
18
18
00
00
00
ENDCHAR
STARTCHAR U+001C4
ENCODING 452
SWIDTH 500 0
DWIDTH 8 0
BBX 8 16 0 0
BITMAP 
0D
06
00
EF
D3
D3
D3
D6
D6
D6
DC
DC
DC
EF
00
00
ENDCHAR
STARTCHAR U+001C5
ENCODING 453
SWIDTH 500 0
DWIDTH 8 0
BBX 8 16 0 0
BITMAP 
00
0D
E6
D0
DF
D3
D6
D6
D6
DC
DC
DC
EF
00
00
00
ENDCHAR
STARTCHAR U+001C6
ENCODING 454
SWIDTH 500 0
DWIDTH 8 0
BBX 8 16 0 0
BITMAP 
00
0D
36
30
7F
B3
B6
B6
B6
BC
BC
BC
7F
00
00
00
ENDCHAR
STARTCHAR U+001C7
ENCODING 455
SWIDTH 500 0
DWIDTH 8 0
BBX 8 16 0 0
BITMAP 
00
00
C3
C3
C3
C3
C3
C3
C3
C3
DB
DB
FE
00
00
00
ENDCHAR
STARTCHAR U+001C8
ENCODING 456
SWIDTH 500 0
DWIDTH 8 0
BBX 8 16 0 0
BITMAP 
00
03
C3
C0
CF
C3
C3
C3
C3
C3
C3
C3
FB
03
03
1E
ENDCHAR
STARTCHAR U+001C9
ENCODING 457
SWIDTH 500 0
DWIDTH 8 0
BBX 8 16 0 0
BITMAP 
00
06
E6
60
6E
66
66
66
66
66
66
66
F6
06
06
1C
ENDCHAR
STARTCHAR U+001CA
ENCODING 458
SWIDTH 500 0
DWIDTH 8 0
BBX 8 16 0 0
BITMAP 
00
00
D3
D3
D3
D3
F3
F3
F3
D3
DB
DB
D6
00
00
00
ENDCHAR
STARTCHAR U+001CB
ENCODING 459
SWIDTH 500 0
DWIDTH 8 0
BBX 8 16 0 0
BITMAP 
00
03
CB
C8
EF
EB
DB
DB
DB
CB
CB
CB
CB
03
03
0E
ENDCHAR
STARTCHAR U+001CC
ENCODING 460
SWIDTH 500 0
DWIDTH 8 0
BBX 8 16 0 0
BITMAP 
00
00
00
03
03
00
F7
DB
DB
DB
DB
DB
DB
03
03
0E
ENDCHAR
STARTCHAR U+001CD
ENCODING 461
SWIDTH 500 0
DWIDTH 8 0
BBX 8 16 0 0
BITMAP 
00
00
66
3C
18
00
18
3C
66
66
66
7E
66
66
66
00
ENDCHAR
STARTCHAR U+001CE
ENCODING 462
SWIDTH 500 0
DWIDTH 8 0
BBX 8 16 0 0
BITMAP 
00
00
66
3C
18
00
3C
06
06
3E
66
66
3E
00
00
00
ENDCHAR
STARTCHAR U+001CF
ENCODING 463
SWIDTH 500 0
DWIDTH 8 0
BBX 8 16 0 0
BITMAP 
00
00
66
3C
18
00
3C
18
18
18
18
18
18
18
3C
00
ENDCHAR
STARTCHAR U+001D0
ENCODING 464
SWIDTH 500 0
DWIDTH 8 0
BBX 8 16 0 0
BITMAP 
00
00
66
3C
18
00
78
18
18
18
18
18
7E
00
00
00
ENDCHAR
STARTCHAR U+001D1
ENCODING 465
SWIDTH 500 0
DWIDTH 8 0
BBX 8 16 0 0
BITMAP 
00
00
66
3C
18
00
3C
66
66
66
66
66
66
66
3C
00
ENDCHAR
STARTCHAR U+001D2
ENCODING 466
SWIDTH 500 0
DWIDTH 8 0
BBX 8 16 0 0
BITMAP 
00
00
66
3C
18
00
3C
66
66
66
66
66
3C
00
00
00
ENDCHAR
STARTCHAR U+001D3
ENCODING 467
SWIDTH 500 0
DWIDTH 8 0
BBX 8 16 0 0
BITMAP 
00
00
66
3C
18
00
66
66
66
66
66
66
66
66
3C
00
ENDCHAR
STARTCHAR U+001D4
ENCODING 468
SWIDTH 500 0
DWIDTH 8 0
BBX 8 16 0 0
BITMAP 
00
00
66
3C
18
00
66
66
66
66
66
66
3E
00
00
00
ENDCHAR
STARTCHAR U+001D5
ENCODING 469
SWIDTH 500 0
DWIDTH 8 0
BBX 8 16 0 0
BITMAP 
00
00
7E
00
66
00
66
66
66
66
66
66
66
66
3C
00
ENDCHAR
STARTCHAR U+001D6
ENCODING 470
SWIDTH 500 0
DWIDTH 8 0
BBX 8 16 0 0
BITMAP 
00
00
7E
00
66
66
00
66
66
66
66
66
66
3E
00
00
ENDCHAR
STARTCHAR U+001D7
ENCODING 471
SWIDTH 500 0
DWIDTH 8 0
BBX 8 16 0 0
BITMAP 
00
00
0C
18
66
00
66
66
66
66
66
66
66
66
3C
00
ENDCHAR
STARTCHAR U+001D8
ENCODING 472
SWIDTH 500 0
DWIDTH 8 0
BBX 8 16 0 0
BITMAP 
00
00
0E
0C
18
66
66
00
66
66
66
66
66
66
3E
00
ENDCHAR
STARTCHAR U+001D9
ENCODING 473
SWIDTH 500 0
DWIDTH 8 0
BBX 8 16 0 0
BITMAP 
00
00
66
3C
5A
00
66
66
66
66
66
66
66
66
3C
00
ENDCHAR
STARTCHAR U+001DA
ENCODING 474
SWIDTH 500 0
DWIDTH 8 0
BBX 8 16 0 0
BITMAP 
00
00
66
3C
18
66
66
00
66
66
66
66
66
66
3E
00
ENDCHAR
STARTCHAR U+001DB
ENCODING 475
SWIDTH 500 0
DWIDTH 8 0
BBX 8 16 0 0
BITMAP 
00
00
30
18
66
00
66
66
66
66
66
66
66
66
3C
00
ENDCHAR
STARTCHAR U+001DC
ENCODING 476
SWIDTH 500 0
DWIDTH 8 0
BBX 8 16 0 0
BITMAP 
00
00
70
30
18
66
66
00
66
66
66
66
66
66
3E
00
ENDCHAR
STARTCHAR U+001DD
ENCODING 477
SWIDTH 500 0
DWIDTH 8 0
BBX 8 16 0 0
BITMAP 
00
00
00
00
00
00
3C
06
06
7E
66
66
3C
00
00
00
ENDCHAR
STARTCHAR U+001DE
ENCODING 478
SWIDTH 500 0
DWIDTH 8 0
BBX 8 16 0 0
BITMAP 
7E
00
66
66
66
66
18
3C
66
66
66
7E
66
66
66
00
ENDCHAR
STARTCHAR U+001DF
ENCODING 479
SWIDTH 500 0
DWIDTH 8 0
BBX 8 16 0 0
BITMAP 
00
00
7E
00
66
66
00
3C
06
06
3E
66
66
3E
00
00
ENDCHAR
STARTCHAR U+001E0
ENCODING 480
SWIDTH 500 0
DWIDTH 8 0
BBX 8 16 0 0
BITMAP 
00
00
7E
00
18
00
18
3C
66
66
66
7E
66
66
66
00
ENDCHAR
STARTCHAR U+001E1
ENCODING 481
SWIDTH 500 0
DWIDTH 8 0
BBX 8 16 0 0
BITMAP 
00
00
7E
00
18
18
00
3C
06
06
3E
66
66
3E
00
00
ENDCHAR
STARTCHAR U+001E2
ENCODING 482
SWIDTH 500 0
DWIDTH 8 0
BBX 8 16 0 0
BITMAP 
3E
00
3E
78
D8
D8
D8
DE
F8
D8
D8
D8
DE
00
00
00
ENDCHAR
STARTCHAR U+001E3
ENCODING 483
SWIDTH 500 0
DWIDTH 8 0
BBX 8 16 0 0
BITMAP 
00
00
00
00
7E
00
6E
1B
1B
7F
D8
D8
77
00
00
00
ENDCHAR
STARTCHAR U+001E4
ENCODING 484
SWIDTH 500 0
DWIDTH 8 0
BBX 8 16 0 0
BITMAP 
00
00
78
CC
CC
CC
CC
C0
DC
CC
DE
CC
7C
00
00
00
ENDCHAR
STARTCHAR U+001E5
ENCODING 485
SWIDTH 500 0
DWIDTH 8 0
BBX 8 16 0 0
BITMAP 
00
00
00
00
00
00
7C
CC
CC
CC
CC
7C
0C
7E
0C
F8
ENDCHAR
STARTCHAR U+001E6
ENCODING 486
SWIDTH 500 0
DWIDTH 8 0
BBX 8 16 0 0
BITMAP 
00
00
66
3C
18
00
3C
66
66
60
60
6E
66
66
3E
00
ENDCHAR
STARTCHAR U+001E7
ENCODING 487
SWIDTH 500 0
DWIDTH 8 0
BBX 8 16 0 0
BITMAP 
00
00
66
3C
18
00
3E
66
66
66
66
66
3E
06
06
7C
ENDCHAR
STARTCHAR U+001E8
ENCODING 488
SWIDTH 500 0
DWIDTH 8 0
BBX 8 16 0 0
BITMAP 
00
00
66
3C
18
00
66
66
6C
6C
78
6C
6C
66
66
00
ENDCHAR
STARTCHAR U+001E9
ENCODING 489
SWIDTH 500 0
DWIDTH 8 0
BBX 8 16 0 0
BITMAP 
00
00
66
3C
18
00
60
60
66
66
6C
78
6C
66
66
00
ENDCHAR
STARTCHAR U+001EA
ENCODING 490
SWIDTH 500 0
DWIDTH 8 0
BBX 8 16 0 0
BITMAP 
00
00
3C
66
66
66
66
66
66
66
66
66
3C
18
18
0E
ENDCHAR
STARTCHAR U+001EB
ENCODING 491
SWIDTH 500 0
DWIDTH 8 0
BBX 8 16 0 0
BITMAP 
00
00
00
00
00
00
3C
66
66
66
66
66
3C
18
18
0E
ENDCHAR
STARTCHAR U+001EC
ENCODING 492
SWIDTH 500 0
DWIDTH 8 0
BBX 8 16 0 0
BITMAP 
7E
00
3C
66
66
66
66
66
66
66
66
66
3C
18
18
0E
ENDCHAR
STARTCHAR U+001ED
ENCODING 493
SWIDTH 500 0
DWIDTH 8 0
BBX 8 16 0 0
BITMAP 
00
00
00
00
7E
00
3C
66
66
66
66
66
3C
18
18
0E
ENDCHAR
STARTCHAR U+001EE
ENCODING 494
SWIDTH 500 0
DWIDTH 8 0
BBX 8 16 0 0
BITMAP 
00
00
66
3C
18
00
7E
06
0C
1C
06
06
06
66
3C
00
ENDCHAR
STARTCHAR U+001EF
ENCODING 495
SWIDTH 500 0
DWIDTH 8 0
BBX 8 16 0 0
BITMAP 
00
00
66
3C
18
00
7E
06
0C
18
3C
06
06
06
66
3C
ENDCHAR
STARTCHAR U+001F0
ENCODING 496
SWIDTH 500 0
DWIDTH 8 0
BBX 8 16 0 0
BITMAP 
00
00
66
3C
18
00
3C
0C
0C
0C
0C
0C
0C
0C
0C
78
ENDCHAR
STARTCHAR U+001F1
ENCODING 497
SWIDTH 1000 0
DWIDTH 16 0
BBX 16 16 0 0
BITMAP 
0000
0000
0000
0000
787E
6C06
6606
660C
6618
6630
6660
6C60
787E
0000
0000
0000
ENDCHAR
STARTCHAR U+001F2
ENCODING 498
SWIDTH 1000 0
DWIDTH 16 0
BBX 16 16 0 0
BITMAP 
0000
0000
0000
0000
7800
6C00
667E
6606
660C
6618
6630
6C60
787E
0000
0000
0000
ENDCHAR
STARTCHAR U+001F3
ENCODING 499
SWIDTH 1000 0
DWIDTH 16 0
BBX 16 16 0 0
BITMAP 
0000
0000
0600
0600
0600
0600
3E7E
6606
660C
6618
6630
6660
3E7E
0000
0000
0000
ENDCHAR
STARTCHAR U+001F4
ENCODING 500
SWIDTH 500 0
DWIDTH 8 0
BBX 8 16 0 0
BITMAP 
0C
18
00
3C
66
66
66
60
60
6E
66
66
66
3E
00
00
ENDCHAR
STARTCHAR U+001F5
ENCODING 501
SWIDTH 500 0
DWIDTH 8 0
BBX 8 16 0 0
BITMAP 
00
00
0E
0C
18
00
3E
66
66
66
66
66
3E
06
06
7C
ENDCHAR
STARTCHAR U+001F6
ENCODING 502
SWIDTH 500 0
DWIDTH 8 0
BBX 8 16 0 0
BITMAP 
00
00
D8
D8
D8
D8
DB
DB
FB
DB
DB
DB
CE
00
00
00
ENDCHAR
STARTCHAR U+001F7
ENCODING 503
SWIDTH 500 0
DWIDTH 8 0
BBX 8 16 0 0
BITMAP 
00
00
7C
66
66
66
66
66
6C
78
70
60
60
60
00
00
ENDCHAR
STARTCHAR U+001F8
ENCODING 504
SWIDTH 500 0
DWIDTH 8 0
BBX 8 16 0 0
BITMAP 
60
30
00
C6
C6
C6
C6
E6
F6
DE
CE
C6
C6
C6
00
00
ENDCHAR
STARTCHAR U+001F9
ENCODING 505
SWIDTH 500 0
DWIDTH 8 0
BBX 8 16 0 0
BITMAP 
00
00
70
30
18
00
7C
66
66
66
66
66
66
00
00
00
ENDCHAR
STARTCHAR U+001FA
ENCODING 506
SWIDTH 500 0
DWIDTH 8 0
BBX 8 16 0 0
BITMAP 
00
00
0C
18
3C
66
3C
3C
66
66
66
7E
66
66
66
00
ENDCHAR
STARTCHAR U+001FB
ENCODING 507
SWIDTH 500 0
DWIDTH 8 0
BBX 8 16 0 0
BITMAP 
00
00
0C
18
3C
66
3C
00
3C
06
06
3E
66
66
3E
00
ENDCHAR
STARTCHAR U+001FC
ENCODING 508
SWIDTH 500 0
DWIDTH 8 0
BBX 8 16 0 0
BITMAP 
0C
18
00
3E
78
D8
D8
D8
DE
F8
D8
D8
D8
DE
00
00
ENDCHAR
STARTCHAR U+001FD
ENCODING 509
SWIDTH 500 0
DWIDTH 8 0
BBX 8 16 0 0
BITMAP 
00
00
0E
0C
18
00
6E
1B
1B
7F
D8
D8
77
00
00
00
ENDCHAR
STARTCHAR U+001FE
ENCODING 510
SWIDTH 500 0
DWIDTH 8 0
BBX 8 16 0 0
BITMAP 
0C
18
00
3E
66
6E
6E
6E
7E
76
76
76
66
7C
00
00
ENDCHAR
STARTCHAR U+001FF
ENCODING 511
SWIDTH 500 0
DWIDTH 8 0
BBX 8 16 0 0
BITMAP 
00
00
0E
0C
18
00
3E
66
6E
7E
76
66
7C
00
00
00
ENDCHAR
STARTCHAR U+00200
ENCODING 512
SWIDTH 500 0
DWIDTH 8 0
BBX 8 16 0 0
BITMAP 
6C
36
00
18
3C
66
66
66
66
7E
66
66
66
66
00
00
ENDCHAR
STARTCHAR U+00201
ENCODING 513
SWIDTH 500 0
DWIDTH 8 0
BBX 8 16 0 0
BITMAP 
00
00
00
6C
36
00
3C
06
06
3E
66
66
3E
00
00
00
ENDCHAR
STARTCHAR U+00202
ENCODING 514
SWIDTH 500 0
DWIDTH 8 0
BBX 8 16 0 0
BITMAP 
3C
66
00
18
3C
66
66
66
66
7E
66
66
66
66
00
00
ENDCHAR
STARTCHAR U+00203
ENCODING 515
SWIDTH 500 0
DWIDTH 8 0
BBX 8 16 0 0
BITMAP 
00
00
00
3C
66
00
3C
06
06
3E
66
66
3E
00
00
00
ENDCHAR
STARTCHAR U+00204
ENCODING 516
SWIDTH 500 0
DWIDTH 8 0
BBX 8 16 0 0
BITMAP 
6C
36
00
7E
60
60
60
60
7C
60
60
60
60
7E
00
00
ENDCHAR
STARTCHAR U+00205
ENCODING 517
SWIDTH 500 0
DWIDTH 8 0
BBX 8 16 0 0
BITMAP 
00
00
00
6C
36
00
3C
66
66
7E
60
60
3C
00
00
00
ENDCHAR
STARTCHAR U+00206
ENCODING 518
SWIDTH 500 0
DWIDTH 8 0
BBX 8 16 0 0
BITMAP 
3C
66
00
7E
60
60
60
60
7C
60
60
60
60
7E
00
00
ENDCHAR
STARTCHAR U+00207
ENCODING 519
SWIDTH 500 0
DWIDTH 8 0
BBX 8 16 0 0
BITMAP 
00
00
00
3C
66
00
3C
66
66
7E
60
60
3C
00
00
00
ENDCHAR
STARTCHAR U+00208
ENCODING 520
SWIDTH 500 0
DWIDTH 8 0
BBX 8 16 0 0
BITMAP 
6C
36
00
3C
18
18
18
18
18
18
18
18
18
3C
00
00
ENDCHAR
STARTCHAR U+00209
ENCODING 521
SWIDTH 500 0
DWIDTH 8 0
BBX 8 16 0 0
BITMAP 
00
00
00
D8
6C
00
78
18
18
18
18
18
7E
00
00
00
ENDCHAR
STARTCHAR U+0020A
ENCODING 522
SWIDTH 500 0
DWIDTH 8 0
BBX 8 16 0 0
BITMAP 
3C
66
00
3C
18
18
18
18
18
18
18
18
18
3C
00
00
ENDCHAR
STARTCHAR U+0020B
ENCODING 523
SWIDTH 500 0
DWIDTH 8 0
BBX 8 16 0 0
BITMAP 
00
00
00
3C
66
00
78
18
18
18
18
18
7E
00
00
00
ENDCHAR
STARTCHAR U+0020C
ENCODING 524
SWIDTH 500 0
DWIDTH 8 0
BBX 8 16 0 0
BITMAP 
6C
36
00
3C
66
66
66
66
66
66
66
66
66
3C
00
00
ENDCHAR
STARTCHAR U+0020D
ENCODING 525
SWIDTH 500 0
DWIDTH 8 0
BBX 8 16 0 0
BITMAP 
00
00
00
6C
36
00
3C
66
66
66
66
66
3C
00
00
00
ENDCHAR
STARTCHAR U+0020E
ENCODING 526
SWIDTH 500 0
DWIDTH 8 0
BBX 8 16 0 0
BITMAP 
3C
66
00
3C
66
66
66
66
66
66
66
66
66
3C
00
00
ENDCHAR
STARTCHAR U+0020F
ENCODING 527
SWIDTH 500 0
DWIDTH 8 0
BBX 8 16 0 0
BITMAP 
00
00
00
3C
66
00
3C
66
66
66
66
66
3C
00
00
00
ENDCHAR
STARTCHAR U+00210
ENCODING 528
SWIDTH 500 0
DWIDTH 8 0
BBX 8 16 0 0
BITMAP 
6C
36
00
7C
66
66
66
66
7C
6C
66
66
66
66
00
00
ENDCHAR
STARTCHAR U+00211
ENCODING 529
SWIDTH 500 0
DWIDTH 8 0
BBX 8 16 0 0
BITMAP 
00
00
00
6C
36
00
66
6E
70
60
60
60
60
00
00
00
ENDCHAR
STARTCHAR U+00212
ENCODING 530
SWIDTH 500 0
DWIDTH 8 0
BBX 8 16 0 0
BITMAP 
3C
66
00
7C
66
66
66
66
7C
6C
66
66
66
66
00
00
ENDCHAR
STARTCHAR U+00213
ENCODING 531
SWIDTH 500 0
DWIDTH 8 0
BBX 8 16 0 0
BITMAP 
00
00
00
3C
66
00
66
6E
70
60
60
60
60
00
00
00
ENDCHAR
STARTCHAR U+00214
ENCODING 532
SWIDTH 500 0
DWIDTH 8 0
BBX 8 16 0 0
BITMAP 
6C
36
00
66
66
66
66
66
66
66
66
66
66
3C
00
00
ENDCHAR
STARTCHAR U+00215
ENCODING 533
SWIDTH 500 0
DWIDTH 8 0
BBX 8 16 0 0
BITMAP 
00
00
00
6C
36
00
66
66
66
66
66
66
3E
00
00
00
ENDCHAR
STARTCHAR U+00216
ENCODING 534
SWIDTH 500 0
DWIDTH 8 0
BBX 8 16 0 0
BITMAP 
3C
66
00
66
66
66
66
66
66
66
66
66
66
3C
00
00
ENDCHAR
STARTCHAR U+00217
ENCODING 535
SWIDTH 500 0
DWIDTH 8 0
BBX 8 16 0 0
BITMAP 
00
00
00
3C
66
00
66
66
66
66
66
66
3E
00
00
00
ENDCHAR
STARTCHAR U+00218
ENCODING 536
SWIDTH 500 0
DWIDTH 8 0
BBX 8 16 0 0
BITMAP 
00
00
00
00
3C
66
60
30
18
0C
06
66
3C
00
18
30
ENDCHAR
STARTCHAR U+00219
ENCODING 537
SWIDTH 500 0
DWIDTH 8 0
BBX 8 16 0 0
BITMAP 
00
00
00
00
00
00
3E
60
60
3C
06
06
7C
00
18
30
ENDCHAR
STARTCHAR U+0021A
ENCODING 538
SWIDTH 500 0
DWIDTH 8 0
BBX 8 16 0 0
BITMAP 
00
00
00
00
7E
18
18
18
18
18
18
18
18
00
18
30
ENDCHAR
STARTCHAR U+0021B
ENCODING 539
SWIDTH 500 0
DWIDTH 8 0
BBX 8 16 0 0
BITMAP 
00
00
00
00
30
30
7E
30
30
30
30
30
1E
00
18
30
ENDCHAR
STARTCHAR U+0021C
ENCODING 540
SWIDTH 500 0
DWIDTH 8 0
BBX 8 16 0 0
BITMAP 
00
00
3C
66
66
66
06
0C
3C
06
06
06
06
0C
78
00
ENDCHAR
STARTCHAR U+0021D
ENCODING 541
SWIDTH 500 0
DWIDTH 8 0
BBX 8 16 0 0
BITMAP 
00
00
00
00
00
00
3C
66
06
0C
1C
06
06
0C
78
00
ENDCHAR
STARTCHAR U+0021E
ENCODING 542
SWIDTH 500 0
DWIDTH 8 0
BBX 8 16 0 0
BITMAP 
00
00
66
3C
18
00
66
66
66
66
7E
66
66
66
66
00
ENDCHAR
STARTCHAR U+0021F
ENCODING 543
SWIDTH 500 0
DWIDTH 8 0
BBX 8 16 0 0
BITMAP 
00
00
66
3C
18
00
60
60
7C
66
66
66
66
66
66
00
ENDCHAR
STARTCHAR U+00220
ENCODING 544
SWIDTH 500 0
DWIDTH 8 0
BBX 8 16 0 0
BITMAP 
00
00
7C
66
66
66
66
66
66
66
66
66
66
06
06
06
ENDCHAR
STARTCHAR U+00221
ENCODING 545
SWIDTH 500 0
DWIDTH 8 0
BBX 8 16 0 0
BITMAP 
00
00
18
18
18
18
78
D8
D8
DA
DD
DD
7E
04
04
00
ENDCHAR
STARTCHAR U+00222
ENCODING 546
SWIDTH 500 0
DWIDTH 8 0
BBX 8 16 0 0
BITMAP 
00
00
66
66
66
66
66
3C
66
66
66
66
3C
00
00
00
ENDCHAR
STARTCHAR U+00223
ENCODING 547
SWIDTH 500 0
DWIDTH 8 0
BBX 8 16 0 0
BITMAP 
00
00
00
00
00
00
66
66
3C
66
66
66
3C
00
00
00
ENDCHAR
STARTCHAR U+00224
ENCODING 548
SWIDTH 500 0
DWIDTH 8 0
BBX 8 16 0 0
BITMAP 
00
00
7E
06
06
06
0C
18
30
60
60
60
7E
06
06
1C
ENDCHAR
STARTCHAR U+00225
ENCODING 549
SWIDTH 500 0
DWIDTH 8 0
BBX 8 16 0 0
BITMAP 
00
00
00
00
00
00
7E
06
0C
18
30
60
7E
06
06
1C
ENDCHAR
STARTCHAR U+00226
ENCODING 550
SWIDTH 500 0
DWIDTH 8 0
BBX 8 16 0 0
BITMAP 
18
18
00
18
3C
66
66
66
66
7E
66
66
66
66
00
00
ENDCHAR
STARTCHAR U+00227
ENCODING 551
SWIDTH 500 0
DWIDTH 8 0
BBX 8 16 0 0
BITMAP 
00
00
00
18
18
00
3C
06
06
3E
66
66
3E
00
00
00
ENDCHAR
STARTCHAR U+00228
ENCODING 552
SWIDTH 500 0
DWIDTH 8 0
BBX 8 16 0 0
BITMAP 
00
00
7E
60
60
60
60
7C
60
60
60
60
7E
18
0C
38
ENDCHAR
STARTCHAR U+00229
ENCODING 553
SWIDTH 500 0
DWIDTH 8 0
BBX 8 16 0 0
BITMAP 
00
00
00
00
00
00
3C
66
66
7E
60
60
3C
18
0C
38
ENDCHAR
STARTCHAR U+0022A
ENCODING 554
SWIDTH 500 0
DWIDTH 8 0
BBX 8 16 0 0
BITMAP 
00
00
7E
00
66
00
3C
66
66
66
66
66
66
66
3C
00
ENDCHAR
STARTCHAR U+0022B
ENCODING 555
SWIDTH 500 0
DWIDTH 8 0
BBX 8 16 0 0
BITMAP 
00
00
7E
00
66
66
00
3C
66
66
66
66
66
3C
00
00
ENDCHAR
STARTCHAR U+0022C
ENCODING 556
SWIDTH 500 0
DWIDTH 8 0
BBX 8 16 0 0
BITMAP 
00
00
FE
76
DC
00
78
CC
CC
CC
CC
CC
CC
CC
78
00
ENDCHAR
STARTCHAR U+0022D
ENCODING 557
SWIDTH 500 0
DWIDTH 8 0
BBX 8 16 0 0
BITMAP 
00
00
FE
00
76
DC
00
78
CC
CC
CC
CC
CC
78
00
00
ENDCHAR
STARTCHAR U+0022E
ENCODING 558
SWIDTH 500 0
DWIDTH 8 0
BBX 8 16 0 0
BITMAP 
18
18
00
3C
66
66
66
66
66
66
66
66
66
3C
00
00
ENDCHAR
STARTCHAR U+0022F
ENCODING 559
SWIDTH 500 0
DWIDTH 8 0
BBX 8 16 0 0
BITMAP 
00
00
00
18
18
00
3C
66
66
66
66
66
3C
00
00
00
ENDCHAR
STARTCHAR U+00230
ENCODING 560
SWIDTH 500 0
DWIDTH 8 0
BBX 8 16 0 0
BITMAP 
00
00
7E
00
18
00
3C
66
66
66
66
66
66
66
3C
00
ENDCHAR
STARTCHAR U+00231
ENCODING 561
SWIDTH 500 0
DWIDTH 8 0
BBX 8 16 0 0
BITMAP 
00
00
7E
00
18
18
00
3C
66
66
66
66
66
3C
00
00
ENDCHAR
STARTCHAR U+00232
ENCODING 562
SWIDTH 500 0
DWIDTH 8 0
BBX 8 16 0 0
BITMAP 
7E
00
66
66
66
66
66
66
3C
18
18
18
18
00
00
00
ENDCHAR
STARTCHAR U+00233
ENCODING 563
SWIDTH 500 0
DWIDTH 8 0
BBX 8 16 0 0
BITMAP 
00
00
00
00
7E
00
66
66
66
66
66
66
3C
0C
18
F0
ENDCHAR
STARTCHAR U+00234
ENCODING 564
SWIDTH 500 0
DWIDTH 8 0
BBX 8 16 0 0
BITMAP 
00
00
E0
60
60
60
60
60
64
6A
6A
6A
3C
08
08
00
ENDCHAR
STARTCHAR U+00235
ENCODING 565
SWIDTH 500 0
DWIDTH 8 0
BBX 8 16 0 0
BITMAP 
00
00
00
00
00
00
F0
D8
D8
DA
DD
DD
CE
04
04
00
ENDCHAR
STARTCHAR U+00236
ENCODING 566
SWIDTH 500 0
DWIDTH 8 0
BBX 8 16 0 0
BITMAP 
00
00
60
60
60
60
FC
60
60
64
6A
6A
3C
08
08
00
ENDCHAR
STARTCHAR U+00237
ENCODING 567
SWIDTH 500 0
DWIDTH 8 0
BBX 8 16 0 0
BITMAP 
00
00
00
00
00
00
3C
0C
0C
0C
0C
0C
0C
0C
0C
78
ENDCHAR
STARTCHAR U+00238
ENCODING 568
SWIDTH 500 0
DWIDTH 8 0
BBX 8 16 0 0
BITMAP 
00
00
18
18
18
18
7E
DB
DB
DB
DB
DB
7E
00
00
00
ENDCHAR
STARTCHAR U+00239
ENCODING 569
SWIDTH 500 0
DWIDTH 8 0
BBX 8 16 0 0
BITMAP 
00
00
00
00
00
00
7E
DB
DB
DB
DB
DB
7E
18
18
18
ENDCHAR
STARTCHAR U+0023A
ENCODING 570
SWIDTH 500 0
DWIDTH 8 0
BBX 8 16 0 0
BITMAP 
00
00
30
7A
CE
CC
DC
FC
EC
CC
CC
CC
CC
00
00
00
ENDCHAR
STARTCHAR U+0023B
ENCODING 571
SWIDTH 500 0
DWIDTH 8 0
BBX 8 16 0 0
BITMAP 
00
00
3C
67
66
6C
78
70
66
66
66
66
FC
00
00
00
ENDCHAR
STARTCHAR U+0023C
ENCODING 572
SWIDTH 500 0
DWIDTH 8 0
BBX 8 16 0 0
BITMAP 
00
00
00
00
00
00
3E
66
6C
78
70
66
7C
00
00
00
ENDCHAR
STARTCHAR U+0023D
ENCODING 573
SWIDTH 500 0
DWIDTH 8 0
BBX 8 16 0 0
BITMAP 
00
00
60
60
60
60
60
F8
60
60
60
60
7E
00
00
00
ENDCHAR
STARTCHAR U+0023E
ENCODING 574
SWIDTH 500 0
DWIDTH 8 0
BBX 8 16 0 0
BITMAP 
00
00
00
00
7E
18
1A
1E
1C
38
78
58
18
00
00
00
ENDCHAR
STARTCHAR U+0023F
ENCODING 575
SWIDTH 500 0
DWIDTH 8 0
BBX 8 16 0 0
BITMAP 
00
00
00
00
00
00
3E
60
60
3C
06
06
7C
32
1C
00
ENDCHAR
STARTCHAR U+00240
ENCODING 576
SWIDTH 500 0
DWIDTH 8 0
BBX 8 16 0 0
BITMAP 
00
00
00
00
00
00
FC
0C
18
30
60
C0
E0
32
1C
00
ENDCHAR
STARTCHAR U+00241
ENCODING 577
SWIDTH 500 0
DWIDTH 8 0
BBX 8 16 0 0
BITMAP 
00
00
3C
66
66
66
06
06
1C
18
18
18
18
00
00
00
ENDCHAR
STARTCHAR U+00242
ENCODING 578
SWIDTH 500 0
DWIDTH 8 0
BBX 8 16 0 0
BITMAP 
00
00
00
00
00
00
3C
66
06
06
0C
18
18
00
00
00
ENDCHAR
STARTCHAR U+00243
ENCODING 579
SWIDTH 500 0
DWIDTH 8 0
BBX 8 16 0 0
BITMAP 
00
00
7C
66
66
66
66
66
7C
66
FF
66
7C
00
00
00
ENDCHAR
STARTCHAR U+00244
ENCODING 580
SWIDTH 500 0
DWIDTH 8 0
BBX 8 16 0 0
BITMAP 
00
00
66
66
66
66
66
66
FF
66
66
66
3C
00
00
00
ENDCHAR
STARTCHAR U+00245
ENCODING 581
SWIDTH 500 0
DWIDTH 8 0
BBX 8 16 0 0
BITMAP 
00
00
18
3C
66
66
66
66
66
66
66
66
66
00
00
00
ENDCHAR
STARTCHAR U+00246
ENCODING 582
SWIDTH 500 0
DWIDTH 8 0
BBX 8 16 0 0
BITMAP 
00
00
7E
60
6C
78
70
60
E0
E0
E0
E0
7E
00
00
00
ENDCHAR
STARTCHAR U+00247
ENCODING 583
SWIDTH 500 0
DWIDTH 8 0
BBX 8 16 0 0
BITMAP 
00
00
00
00
00
00
3E
66
6E
7E
70
60
7C
00
00
00
ENDCHAR
STARTCHAR U+00248
ENCODING 584
SWIDTH 500 0
DWIDTH 8 0
BBX 8 16 0 0
BITMAP 
00
00
0C
0C
0C
0C
0C
3E
0C
0C
CC
CC
78
00
00
00
ENDCHAR
STARTCHAR U+00249
ENCODING 585
SWIDTH 500 0
DWIDTH 8 0
BBX 8 16 0 0
BITMAP 
00
00
00
0C
0C
00
3C
0C
0C
0C
3E
0C
0C
0C
0C
78
ENDCHAR
STARTCHAR U+0024A
ENCODING 586
SWIDTH 500 0
DWIDTH 8 0
BBX 8 16 0 0
BITMAP 
00
00
7C
CC
CC
CC
CC
CC
CC
CC
CC
CC
7C
0C
0C
06
ENDCHAR
STARTCHAR U+0024B
ENCODING 587
SWIDTH 500 0
DWIDTH 8 0
BBX 8 16 0 0
BITMAP 
00
00
00
00
00
00
7C
CC
CC
CC
CC
CC
7C
0C
0C
06
ENDCHAR
STARTCHAR U+0024C
ENCODING 588
SWIDTH 500 0
DWIDTH 8 0
BBX 8 16 0 0
BITMAP 
00
00
7C
66
66
66
66
FC
6C
66
66
66
66
00
00
00
ENDCHAR
STARTCHAR U+0024D
ENCODING 589
SWIDTH 500 0
DWIDTH 8 0
BBX 8 16 0 0
BITMAP 
00
00
00
00
00
00
66
6E
70
60
F8
60
60
00
00
00
ENDCHAR
STARTCHAR U+0024E
ENCODING 590
SWIDTH 500 0
DWIDTH 8 0
BBX 8 16 0 0
BITMAP 
00
00
66
66
66
66
FF
66
3C
18
18
18
18
00
00
00
ENDCHAR
STARTCHAR U+0024F
ENCODING 591
SWIDTH 500 0
DWIDTH 8 0
BBX 8 16 0 0
BITMAP 
00
00
00
00
00
00
66
66
FF
66
66
66
3C
0C
18
F0
ENDCHAR
STARTCHAR U+00250
ENCODING 592
SWIDTH 500 0
DWIDTH 8 0
BBX 8 16 0 0
BITMAP 
00
00
00
00
00
00
7C
66
66
7C
60
60
3C
00
00
00
ENDCHAR
STARTCHAR U+00251
ENCODING 593
SWIDTH 500 0
DWIDTH 8 0
BBX 8 16 0 0
BITMAP 
00
00
00
00
00
00
7C
CC
CC
CC
CC
CC
76
00
00
00
ENDCHAR
STARTCHAR U+00252
ENCODING 594
SWIDTH 500 0
DWIDTH 8 0
BBX 8 16 0 0
BITMAP 
00
00
00
00
00
00
DC
66
66
66
66
66
7C
00
00
00
ENDCHAR
STARTCHAR U+00253
ENCODING 595
SWIDTH 500 0
DWIDTH 8 0
BBX 8 16 0 0
BITMAP 
00
38
60
60
60
7C
66
66
66
66
66
66
7C
00
00
00
ENDCHAR
STARTCHAR U+00254
ENCODING 596
SWIDTH 500 0
DWIDTH 8 0
BBX 8 16 0 0
BITMAP 
00
00
00
00
00
00
3C
66
06
06
06
66
3C
00
00
00
ENDCHAR
STARTCHAR U+00255
ENCODING 597
SWIDTH 500 0
DWIDTH 8 0
BBX 8 16 0 0
BITMAP 
00
00
00
00
00
00
78
CC
C0
C4
CA
CA
7C
08
08
00
ENDCHAR
STARTCHAR U+00256
ENCODING 598
SWIDTH 500 0
DWIDTH 8 0
BBX 8 16 0 0
BITMAP 
00
00
0C
0C
0C
0C
7C
CC
CC
CC
CC
CC
7C
0C
0C
06
ENDCHAR
STARTCHAR U+00257
ENCODING 599
SWIDTH 500 0
DWIDTH 8 0
BBX 8 16 0 0
BITMAP 
00
06
0C
0C
0C
7C
CC
CC
CC
CC
CC
CC
7C
00
00
00
ENDCHAR
STARTCHAR U+00258
ENCODING 600
SWIDTH 500 0
DWIDTH 8 0
BBX 8 16 0 0
BITMAP 
00
00
00
00
00
00
3C
66
66
7E
06
06
3C
00
00
00
ENDCHAR
STARTCHAR U+00259
ENCODING 601
SWIDTH 500 0
DWIDTH 8 0
BBX 8 16 0 0
BITMAP 
00
00
00
00
00
00
3C
06
06
7E
66
66
3C
00
00
00
ENDCHAR
STARTCHAR U+0025A
ENCODING 602
SWIDTH 500 0
DWIDTH 8 0
BBX 8 16 0 0
BITMAP 
00
00
00
00
00
00
70
18
1A
FE
DB
D8
70
00
00
00
ENDCHAR
STARTCHAR U+0025B
ENCODING 603
SWIDTH 500 0
DWIDTH 8 0
BBX 8 16 0 0
BITMAP 
00
00
00
00
00
00
3C
66
60
38
60
66
3C
00
00
00
ENDCHAR
STARTCHAR U+0025C
ENCODING 604
SWIDTH 500 0
DWIDTH 8 0
BBX 8 16 0 0
BITMAP 
00
00
00
00
00
00
3C
66
06
1C
06
66
3C
00
00
00
ENDCHAR
STARTCHAR U+0025D
ENCODING 605
SWIDTH 500 0
DWIDTH 8 0
BBX 8 16 0 0
BITMAP 
00
00
00
00
00
00
70
DA
1E
33
18
D8
70
00
00
00
ENDCHAR
STARTCHAR U+0025E
ENCODING 606
SWIDTH 500 0
DWIDTH 8 0
BBX 8 16 0 0
BITMAP 
00
00
00
00
00
00
3C
66
66
6C
66
66
3C
00
00
00
ENDCHAR
STARTCHAR U+0025F
ENCODING 607
SWIDTH 500 0
DWIDTH 8 0
BBX 8 16 0 0
BITMAP 
00
00
00
00
00
00
3C
0C
0C
0C
3E
0C
0C
0C
0C
78
ENDCHAR
STARTCHAR U+00260
ENCODING 608
SWIDTH 500 0
DWIDTH 8 0
BBX 8 16 0 0
BITMAP 
00
06
0C
0C
0C
7C
CC
CC
CC
CC
CC
CC
7C
0C
0C
F8
ENDCHAR
STARTCHAR U+00261
ENCODING 609
SWIDTH 500 0
DWIDTH 8 0
BBX 8 16 0 0
BITMAP 
00
00
00
00
00
00
3E
66
66
66
66
66
3E
06
06
7C
ENDCHAR
STARTCHAR U+00262
ENCODING 610
SWIDTH 500 0
DWIDTH 8 0
BBX 8 16 0 0
BITMAP 
00
00
00
00
00
00
3C
66
60
6E
66
66
3E
00
00
00
ENDCHAR
STARTCHAR U+00263
ENCODING 611
SWIDTH 500 0
DWIDTH 8 0
BBX 8 16 0 0
BITMAP 
00
00
00
00
00
00
C6
C6
C6
6C
6C
38
38
6C
6C
38
ENDCHAR
STARTCHAR U+00264
ENCODING 612
SWIDTH 500 0
DWIDTH 8 0
BBX 8 16 0 0
BITMAP 
00
00
00
00
00
00
6C
D6
D6
38
6C
6C
38
00
00
00
ENDCHAR
STARTCHAR U+00265
ENCODING 613
SWIDTH 500 0
DWIDTH 8 0
BBX 8 16 0 0
BITMAP 
00
00
00
00
00
00
66
66
66
66
66
66
3E
06
06
06
ENDCHAR
STARTCHAR U+00266
ENCODING 614
SWIDTH 500 0
DWIDTH 8 0
BBX 8 16 0 0
BITMAP 
00
38
60
60
60
7C
66
66
66
66
66
66
66
00
00
00
ENDCHAR
STARTCHAR U+00267
ENCODING 615
SWIDTH 500 0
DWIDTH 8 0
BBX 8 16 0 0
BITMAP 
00
38
60
60
60
7C
66
66
66
66
66
66
66
06
06
1C
ENDCHAR
STARTCHAR U+00268
ENCODING 616
SWIDTH 500 0
DWIDTH 8 0
BBX 8 16 0 0
BITMAP 
00
00
00
18
18
00
78
18
18
7E
18
18
7E
00
00
00
ENDCHAR
STARTCHAR U+00269
ENCODING 617
SWIDTH 500 0
DWIDTH 8 0
BBX 8 16 0 0
BITMAP 
00
00
00
00
00
00
70
30
30
30
30
36
1C
00
00
00
ENDCHAR
STARTCHAR U+0026A
ENCODING 618
SWIDTH 500 0
DWIDTH 8 0
BBX 8 16 0 0
BITMAP 
00
00
00
00
00
00
7E
18
18
18
18
18
7E
00
00
00
ENDCHAR
STARTCHAR U+0026B
ENCODING 619
SWIDTH 500 0
DWIDTH 8 0
BBX 8 16 0 0
BITMAP 
00
00
78
18
18
18
3A
5C
18
18
18
18
7E
00
00
00
ENDCHAR
STARTCHAR U+0026C
ENCODING 620
SWIDTH 500 0
DWIDTH 8 0
BBX 8 16 0 0
BITMAP 
00
00
78
18
78
D8
D8
D8
7E
18
18
18
7E
00
00
00
ENDCHAR
STARTCHAR U+0026D
ENCODING 621
SWIDTH 500 0
DWIDTH 8 0
BBX 8 16 0 0
BITMAP 
00
00
78
18
18
18
18
18
18
18
18
18
18
18
18
0E
ENDCHAR
STARTCHAR U+0026E
ENCODING 622
SWIDTH 500 0
DWIDTH 8 0
BBX 8 16 0 0
BITMAP 
00
00
E0
60
7E
66
66
66
6C
6C
6C
66
F6
06
66
3C
ENDCHAR
STARTCHAR U+0026F
ENCODING 623
SWIDTH 500 0
DWIDTH 8 0
BBX 8 16 0 0
BITMAP 
00
00
00
00
00
00
C6
D6
D6
D6
D6
D6
7E
00
00
00
ENDCHAR
STARTCHAR U+00270
ENCODING 624
SWIDTH 500 0
DWIDTH 8 0
BBX 8 16 0 0
BITMAP 
00
00
00
00
00
00
C6
D6
D6
D6
D6
D6
7E
06
06
06
ENDCHAR
STARTCHAR U+00271
ENCODING 625
SWIDTH 500 0
DWIDTH 8 0
BBX 8 16 0 0
BITMAP 
00
00
00
00
00
00
FC
D6
D6
D6
D6
D6
C6
06
06
1C
ENDCHAR
STARTCHAR U+00272
ENCODING 626
SWIDTH 500 0
DWIDTH 8 0
BBX 8 16 0 0
BITMAP 
00
00
00
00
00
00
7C
66
66
66
66
66
66
60
60
C0
ENDCHAR
STARTCHAR U+00273
ENCODING 627
SWIDTH 500 0
DWIDTH 8 0
BBX 8 16 0 0
BITMAP 
00
00
00
00
00
00
F8
CC
CC
CC
CC
CC
CC
0C
0C
06
ENDCHAR
STARTCHAR U+00274
ENCODING 628
SWIDTH 500 0
DWIDTH 8 0
BBX 8 16 0 0
BITMAP 
00
00
00
00
00
00
C6
E6
F6
DE
CE
C6
C6
00
00
00
ENDCHAR
STARTCHAR U+00275
ENCODING 629
SWIDTH 500 0
DWIDTH 8 0
BBX 8 16 0 0
BITMAP 
00
00
00
00
00
00
3C
66
66
7E
66
66
3C
00
00
00
ENDCHAR
STARTCHAR U+00276
ENCODING 630
SWIDTH 500 0
DWIDTH 8 0
BBX 8 16 0 0
BITMAP 
00
00
00
00
00
00
7E
D8
D8
DE
D8
D8
7E
00
00
00
ENDCHAR
STARTCHAR U+00277
ENCODING 631
SWIDTH 500 0
DWIDTH 8 0
BBX 8 16 0 0
BITMAP 
00
00
00
00
00
00
7C
C6
D6
D6
D6
D6
6C
00
00
00
ENDCHAR
STARTCHAR U+00278
ENCODING 632
SWIDTH 500 0
DWIDTH 8 0
BBX 8 16 0 0
BITMAP 
00
10
10
10
10
10
7C
D6
D6
D6
D6
D6
7C
10
10
10
ENDCHAR
STARTCHAR U+00279
ENCODING 633
SWIDTH 500 0
DWIDTH 8 0
BBX 8 16 0 0
BITMAP 
00
00
00
00
00
00
06
06
06
06
0E
76
66
00
00
00
ENDCHAR
STARTCHAR U+0027A
ENCODING 634
SWIDTH 500 0
DWIDTH 8 0
BBX 8 16 0 0
BITMAP 
00
00
06
06
06
06
06
06
06
06
0E
76
66
00
00
00
ENDCHAR
STARTCHAR U+0027B
ENCODING 635
SWIDTH 500 0
DWIDTH 8 0
BBX 8 16 0 0
BITMAP 
00
00
00
00
00
00
0C
0C
0C
0C
1C
EC
CC
0C
0C
06
ENDCHAR
STARTCHAR U+0027C
ENCODING 636
SWIDTH 500 0
DWIDTH 8 0
BBX 8 16 0 0
BITMAP 
00
00
00
00
00
00
66
6E
70
60
60
60
60
60
60
60
ENDCHAR
STARTCHAR U+0027D
ENCODING 637
SWIDTH 500 0
DWIDTH 8 0
BBX 8 16 0 0
BITMAP 
00
00
00
00
00
00
66
6E
70
60
60
60
60
60
60
38
ENDCHAR
STARTCHAR U+0027E
ENCODING 638
SWIDTH 500 0
DWIDTH 8 0
BBX 8 16 0 0
BITMAP 
00
00
00
00
00
00
3C
66
66
60
60
60
60
00
00
00
ENDCHAR
STARTCHAR U+0027F
ENCODING 639
SWIDTH 500 0
DWIDTH 8 0
BBX 8 16 0 0
BITMAP 
00
00
00
00
00
00
3C
66
66
06
06
06
06
00
00
00
ENDCHAR
STARTCHAR U+00280
ENCODING 640
SWIDTH 500 0
DWIDTH 8 0
BBX 8 16 0 0
BITMAP 
00
00
00
00
00
00
7C
66
66
7C
66
66
66
00
00
00
ENDCHAR
STARTCHAR U+00281
ENCODING 641
SWIDTH 500 0
DWIDTH 8 0
BBX 8 16 0 0
BITMAP 
00
00
00
00
00
00
66
66
66
7C
66
66
7C
00
00
00
ENDCHAR
STARTCHAR U+00282
ENCODING 642
SWIDTH 500 0
DWIDTH 8 0
BBX 8 16 0 0
BITMAP 
00
00
00
00
00
00
3E
60
60
3C
06
06
7C
60
60
38
ENDCHAR
STARTCHAR U+00283
ENCODING 643
SWIDTH 500 0
DWIDTH 8 0
BBX 8 16 0 0
BITMAP 
00
00
0E
18
18
18
18
18
18
18
18
18
18
18
18
70
ENDCHAR
STARTCHAR U+00284
ENCODING 644
SWIDTH 500 0
DWIDTH 8 0
BBX 8 16 0 0
BITMAP 
00
00
0E
18
18
18
18
18
18
18
7E
18
18
18
18
70
ENDCHAR
STARTCHAR U+00285
ENCODING 645
SWIDTH 500 0
DWIDTH 8 0
BBX 8 16 0 0
BITMAP 
00
00
00
00
00
00
70
18
18
18
18
18
0E
00
00
00
ENDCHAR
STARTCHAR U+00286
ENCODING 646
SWIDTH 500 0
DWIDTH 8 0
BBX 8 16 0 0
BITMAP 
00
00
0E
18
18
18
18
18
18
18
18
18
78
DC
DA
70
ENDCHAR
STARTCHAR U+00287
ENCODING 647
SWIDTH 500 0
DWIDTH 8 0
BBX 8 16 0 0
BITMAP 
00
00
78
0C
0C
0C
0C
0C
0C
7E
0C
0C
0C
00
00
00
ENDCHAR
STARTCHAR U+00288
ENCODING 648
SWIDTH 500 0
DWIDTH 8 0
BBX 8 16 0 0
BITMAP 
00
00
30
30
30
30
7E
30
30
30
30
30
30
30
30
1E
ENDCHAR
STARTCHAR U+00289
ENCODING 649
SWIDTH 500 0
DWIDTH 8 0
BBX 8 16 0 0
BITMAP 
00
00
00
00
00
00
66
66
66
FF
66
66
3E
00
00
00
ENDCHAR
STARTCHAR U+0028A
ENCODING 650
SWIDTH 500 0
DWIDTH 8 0
BBX 8 16 0 0
BITMAP 
00
00
00
00
00
00
EE
44
C6
C6
C6
C6
7C
00
00
00
ENDCHAR
STARTCHAR U+0028B
ENCODING 651
SWIDTH 500 0
DWIDTH 8 0
BBX 8 16 0 0
BITMAP 
00
00
00
00
00
00
6C
66
66
66
66
66
3C
00
00
00
ENDCHAR
STARTCHAR U+0028C
ENCODING 652
SWIDTH 500 0
DWIDTH 8 0
BBX 8 16 0 0
BITMAP 
00
00
00
00
00
00
18
3C
66
66
66
66
66
00
00
00
ENDCHAR
STARTCHAR U+0028D
ENCODING 653
SWIDTH 500 0
DWIDTH 8 0
BBX 8 16 0 0
BITMAP 
00
00
00
00
00
00
6C
6C
D6
D6
D6
D6
C6
00
00
00
ENDCHAR
STARTCHAR U+0028E
ENCODING 654
SWIDTH 500 0
DWIDTH 8 0
BBX 8 16 0 0
BITMAP 
00
00
1E
30
60
78
CC
CC
CC
CC
CC
CC
CC
00
00
00
ENDCHAR
STARTCHAR U+0028F
ENCODING 655
SWIDTH 500 0
DWIDTH 8 0
BBX 8 16 0 0
BITMAP 
00
00
00
00
00
00
66
66
66
3C
18
18
18
00
00
00
ENDCHAR
STARTCHAR U+00290
ENCODING 656
SWIDTH 500 0
DWIDTH 8 0
BBX 8 16 0 0
BITMAP 
00
00
00
00
00
00
FC
0C
18
30
60
C0
FC
0C
0C
06
ENDCHAR
STARTCHAR U+00291
ENCODING 657
SWIDTH 500 0
DWIDTH 8 0
BBX 8 16 0 0
BITMAP 
00
00
00
00
00
00
FC
0C
18
34
6A
CA
FC
08
08
00
ENDCHAR
STARTCHAR U+00292
ENCODING 658
SWIDTH 500 0
DWIDTH 8 0
BBX 8 16 0 0
BITMAP 
00
00
00
00
00
00
7E
06
0C
18
3C
06
06
06
66
3C
ENDCHAR
STARTCHAR U+00293
ENCODING 659
SWIDTH 500 0
DWIDTH 8 0
BBX 8 16 0 0
BITMAP 
00
00
00
00
00
00
FC
0C
18
30
78
0C
7C
CE
CC
78
ENDCHAR
STARTCHAR U+00294
ENCODING 660
SWIDTH 500 0
DWIDTH 8 0
BBX 8 16 0 0
BITMAP 
00
00
3C
66
66
66
06
0C
18
18
18
18
18
00
00
00
ENDCHAR
STARTCHAR U+00295
ENCODING 661
SWIDTH 500 0
DWIDTH 8 0
BBX 8 16 0 0
BITMAP 
00
00
3C
66
66
66
60
30
18
18
18
18
18
00
00
00
ENDCHAR
STARTCHAR U+00296
ENCODING 662
SWIDTH 500 0
DWIDTH 8 0
BBX 8 16 0 0
BITMAP 
00
00
18
18
18
18
18
18
0C
06
66
66
3C
00
00
00
ENDCHAR
STARTCHAR U+00297
ENCODING 663
SWIDTH 500 0
DWIDTH 8 0
BBX 8 16 0 0
BITMAP 
00
00
00
00
00
00
3C
66
60
60
60
60
60
60
66
3C
ENDCHAR
STARTCHAR U+00298
ENCODING 664
SWIDTH 500 0
DWIDTH 8 0
BBX 8 16 0 0
BITMAP 
00
00
7C
C6
C6
C6
C6
D6
C6
C6
C6
C6
7C
00
00
00
ENDCHAR
STARTCHAR U+00299
ENCODING 665
SWIDTH 500 0
DWIDTH 8 0
BBX 8 16 0 0
BITMAP 
00
00
00
00
00
00
7C
66
66
7C
66
66
7C
00
00
00
ENDCHAR
STARTCHAR U+0029A
ENCODING 666
SWIDTH 500 0
DWIDTH 8 0
BBX 8 16 0 0
BITMAP 
00
00
00
00
00
00
3C
66
66
36
66
66
3C
00
00
00
ENDCHAR
STARTCHAR U+0029B
ENCODING 667
SWIDTH 500 0
DWIDTH 8 0
BBX 8 16 0 0
BITMAP 
00
00
06
0C
7C
CC
C0
DC
CC
CC
CC
CC
7C
00
00
00
ENDCHAR
STARTCHAR U+0029C
ENCODING 668
SWIDTH 500 0
DWIDTH 8 0
BBX 8 16 0 0
BITMAP 
00
00
00
00
00
00
66
66
66
7E
66
66
66
00
00
00
ENDCHAR
STARTCHAR U+0029D
ENCODING 669
SWIDTH 500 0
DWIDTH 8 0
BBX 8 16 0 0
BITMAP 
00
00
00
18
18
00
78
18
18
18
18
18
78
DC
DA
70
ENDCHAR
STARTCHAR U+0029E
ENCODING 670
SWIDTH 500 0
DWIDTH 8 0
BBX 8 16 0 0
BITMAP 
00
00
00
00
00
00
66
66
36
1E
36
66
66
06
06
06
ENDCHAR
STARTCHAR U+0029F
ENCODING 671
SWIDTH 500 0
DWIDTH 8 0
BBX 8 16 0 0
BITMAP 
00
00
00
00
00
00
60
60
60
60
60
60
7E
00
00
00
ENDCHAR
STARTCHAR U+002A0
ENCODING 672
SWIDTH 500 0
DWIDTH 8 0
BBX 8 16 0 0
BITMAP 
00
06
0C
0C
0C
7C
CC
CC
CC
CC
CC
CC
7C
0C
0C
0C
ENDCHAR
STARTCHAR U+002A1
ENCODING 673
SWIDTH 500 0
DWIDTH 8 0
BBX 8 16 0 0
BITMAP 
00
00
3C
66
06
06
06
0C
18
7E
18
18
18
00
00
00
ENDCHAR
STARTCHAR U+002A2
ENCODING 674
SWIDTH 500 0
DWIDTH 8 0
BBX 8 16 0 0
BITMAP 
00
00
3C
66
60
60
60
30
18
7E
18
18
18
00
00
00
ENDCHAR
STARTCHAR U+002A3
ENCODING 675
SWIDTH 500 0
DWIDTH 8 0
BBX 8 16 0 0
BITMAP 
00
00
18
18
18
18
7F
DB
DB
DE
DC
DC
7F
00
00
00
ENDCHAR
STARTCHAR U+002A4
ENCODING 676
SWIDTH 500 0
DWIDTH 8 0
BBX 8 16 0 0
BITMAP 
00
00
18
18
18
18
7F
DB
DB
DE
DE
DB
7B
03
1B
0E
ENDCHAR
STARTCHAR U+002A5
ENCODING 677
SWIDTH 500 0
DWIDTH 8 0
BBX 8 16 0 0
BITMAP 
00
00
18
18
18
18
7F
DB
DB
DE
DF
DD
7F
04
00
00
ENDCHAR
STARTCHAR U+002A6
ENCODING 678
SWIDTH 500 0
DWIDTH 8 0
BBX 8 16 0 0
BITMAP 
00
00
60
60
60
60
FE
78
78
6C
66
66
3C
00
00
00
ENDCHAR
STARTCHAR U+002A7
ENCODING 679
SWIDTH 500 0
DWIDTH 8 0
BBX 8 16 0 0
BITMAP 
00
06
6C
6C
6C
FC
6C
6C
6C
6C
6C
6C
3C
0C
38
00
ENDCHAR
STARTCHAR U+002A8
ENCODING 680
SWIDTH 500 0
DWIDTH 8 0
BBX 8 16 0 0
BITMAP 
00
00
60
60
60
60
F6
7D
7C
7E
7D
7D
36
00
00
00
ENDCHAR
STARTCHAR U+002A9
ENCODING 681
SWIDTH 500 0
DWIDTH 8 0
BBX 8 16 0 0
BITMAP 
00
00
3C
60
60
60
FE
6B
6B
6B
6B
6B
6B
03
03
0E
ENDCHAR
STARTCHAR U+002AA
ENCODING 682
SWIDTH 500 0
DWIDTH 8 0
BBX 8 16 0 0
BITMAP 
00
00
E0
60
6E
78
78
78
6C
66
66
66
FC
00
00
00
ENDCHAR
STARTCHAR U+002AB
ENCODING 683
SWIDTH 500 0
DWIDTH 8 0
BBX 8 16 0 0
BITMAP 
00
00
E0
60
7E
66
66
66
6C
78
78
78
FE
00
00
00
ENDCHAR
STARTCHAR U+002AC
ENCODING 684
SWIDTH 500 0
DWIDTH 8 0
BBX 8 16 0 0
BITMAP 
00
00
00
00
D6
D6
7C
6C
00
D6
D6
7C
6C
00
00
00
ENDCHAR
STARTCHAR U+002AD
ENCODING 685
SWIDTH 500 0
DWIDTH 8 0
BBX 8 16 0 0
BITMAP 
00
00
00
00
00
00
7E
7E
42
00
00
7E
7E
42
00
00
ENDCHAR
STARTCHAR U+002AE
ENCODING 686
SWIDTH 500 0
DWIDTH 8 0
BBX 8 16 0 0
BITMAP 
00
00
00
E0
33
33
33
33
33
33
33
33
1F
03
03
03
ENDCHAR
STARTCHAR U+002AF
ENCODING 687
SWIDTH 1000 0
DWIDTH 16 0
BBX 16 16 0 0
BITMAP 
0000
0000
0000
E000
3300
3300
3300
3300
3300
3300
3300
3300
1F00
0300
0300
01C0
ENDCHAR
STARTCHAR U+002B0
ENCODING 688
SWIDTH 500 0
DWIDTH 8 0
BBX 8 16 0 0
BITMAP 
00
00
30
30
3C
36
36
36
36
00
00
00
00
00
00
00
ENDCHAR
STARTCHAR U+002B1
ENCODING 689
SWIDTH 500 0
DWIDTH 8 0
BBX 8 16 0 0
BITMAP 
00
00
1C
36
30
3C
36
36
36
00
00
00
00
00
00
00
ENDCHAR
STARTCHAR U+002B2
ENCODING 690
SWIDTH 500 0
DWIDTH 8 0
BBX 8 16 0 0
BITMAP 
00
00
0C
0C
00
1C
0C
0C
0C
0C
38
00
00
00
00
00
ENDCHAR
STARTCHAR U+002B3
ENCODING 691
SWIDTH 500 0
DWIDTH 8 0
BBX 8 16 0 0
BITMAP 
00
00
00
36
38
30
30
30
00
00
00
00
00
00
00
00
ENDCHAR
STARTCHAR U+002B4
ENCODING 692
SWIDTH 500 0
DWIDTH 8 0
BBX 8 16 0 0
BITMAP 
00
00
00
06
06
06
0E
36
00
00
00
00
00
00
00
00
ENDCHAR
STARTCHAR U+002B5
ENCODING 693
SWIDTH 500 0
DWIDTH 8 0
BBX 8 16 0 0
BITMAP 
00
00
00
0C
0C
0C
1C
6C
0C
06
00
00
00
00
00
00
ENDCHAR
STARTCHAR U+002B6
ENCODING 694
SWIDTH 500 0
DWIDTH 8 0
BBX 8 16 0 0
BITMAP 
00
00
00
36
36
3C
36
3C
00
00
00
00
00
00
00
00
ENDCHAR
STARTCHAR U+002B7
ENCODING 695
SWIDTH 500 0
DWIDTH 8 0
BBX 8 16 0 0
BITMAP 
00
00
00
C6
D6
D6
6C
6C
00
00
00
00
00
00
00
00
ENDCHAR
STARTCHAR U+002B8
ENCODING 696
SWIDTH 500 0
DWIDTH 8 0
BBX 8 16 0 0
BITMAP 
00
00
00
36
36
36
36
1C
18
70
00
00
00
00
00
00
ENDCHAR
STARTCHAR U+002B9
ENCODING 697
SWIDTH 500 0
DWIDTH 8 0
BBX 8 16 0 0
BITMAP 
00
00
0C
1C
30
40
00
00
00
00
00
00
00
00
00
00
ENDCHAR
STARTCHAR U+002BA
ENCODING 698
SWIDTH 500 0
DWIDTH 8 0
BBX 8 16 0 0
BITMAP 
00
00
18
3B
67
8C
10
00
00
00
00
00
00
00
00
00
ENDCHAR
STARTCHAR U+002BB
ENCODING 699
SWIDTH 500 0
DWIDTH 8 0
BBX 8 16 0 0
BITMAP 
00
00
0C
18
1C
1C
00
00
00
00
00
00
00
00
00
00
ENDCHAR
STARTCHAR U+002BC
ENCODING 700
SWIDTH 500 0
DWIDTH 8 0
BBX 8 16 0 0
BITMAP 
00
00
1C
1C
0C
18
00
00
00
00
00
00
00
00
00
00
ENDCHAR
STARTCHAR U+002BD
ENCODING 701
SWIDTH 500 0
DWIDTH 8 0
BBX 8 16 0 0
BITMAP 
00
00
1C
1C
18
0C
00
00
00
00
00
00
00
00
00
00
ENDCHAR
STARTCHAR U+002BE
ENCODING 702
SWIDTH 500 0
DWIDTH 8 0
BBX 8 16 0 0
BITMAP 
00
00
18
0C
0C
18
00
00
00
00
00
00
00
00
00
00
ENDCHAR
STARTCHAR U+002BF
ENCODING 703
SWIDTH 500 0
DWIDTH 8 0
BBX 8 16 0 0
BITMAP 
00
00
18
30
30
18
00
00
00
00
00
00
00
00
00
00
ENDCHAR
STARTCHAR U+002C0
ENCODING 704
SWIDTH 500 0
DWIDTH 8 0
BBX 8 16 0 0
BITMAP 
00
00
1C
36
06
0C
18
18
18
00
00
00
00
00
00
00
ENDCHAR
STARTCHAR U+002C1
ENCODING 705
SWIDTH 500 0
DWIDTH 8 0
BBX 8 16 0 0
BITMAP 
00
00
1C
36
30
18
0C
0C
0C
00
00
00
00
00
00
00
ENDCHAR
STARTCHAR U+002C2
ENCODING 706
SWIDTH 500 0
DWIDTH 8 0
BBX 8 16 0 0
BITMAP 
00
00
0C
18
30
18
0C
00
00
00
00
00
00
00
00
00
ENDCHAR
STARTCHAR U+002C3
ENCODING 707
SWIDTH 500 0
DWIDTH 8 0
BBX 8 16 0 0
BITMAP 
00
00
30
18
0C
18
30
00
00
00
00
00
00
00
00
00
ENDCHAR
STARTCHAR U+002C4
ENCODING 708
SWIDTH 500 0
DWIDTH 8 0
BBX 8 16 0 0
BITMAP 
00
00
18
3C
66
66
00
00
00
00
00
00
00
00
00
00
ENDCHAR
STARTCHAR U+002C5
ENCODING 709
SWIDTH 500 0
DWIDTH 8 0
BBX 8 16 0 0
BITMAP 
00
00
66
66
3C
18
00
00
00
00
00
00
00
00
00
00
ENDCHAR
STARTCHAR U+002C6
ENCODING 710
SWIDTH 500 0
DWIDTH 8 0
BBX 8 16 0 0
BITMAP 
00
00
3C
66
00
00
00
00
00
00
00
00
00
00
00
00
ENDCHAR
STARTCHAR U+002C7
ENCODING 711
SWIDTH 500 0
DWIDTH 8 0
BBX 8 16 0 0
BITMAP 
00
00
36
1C
00
00
00
00
00
00
00
00
00
00
00
00
ENDCHAR
STARTCHAR U+002C8
ENCODING 712
SWIDTH 500 0
DWIDTH 8 0
BBX 8 16 0 0
BITMAP 
00
00
00
00
18
18
18
18
00
00
00
00
00
00
00
00
ENDCHAR
STARTCHAR U+002C9
ENCODING 713
SWIDTH 500 0
DWIDTH 8 0
BBX 8 16 0 0
BITMAP 
00
00
7E
00
00
00
00
00
00
00
00
00
00
00
00
00
ENDCHAR
STARTCHAR U+002CA
ENCODING 714
SWIDTH 500 0
DWIDTH 8 0
BBX 8 16 0 0
BITMAP 
00
00
04
0C
18
20
00
00
00
00
00
00
00
00
00
00
ENDCHAR
STARTCHAR U+002CB
ENCODING 715
SWIDTH 500 0
DWIDTH 8 0
BBX 8 16 0 0
BITMAP 
00
00
20
30
18
04
00
00
00
00
00
00
00
00
00
00
ENDCHAR
STARTCHAR U+002CC
ENCODING 716
SWIDTH 500 0
DWIDTH 8 0
BBX 8 16 0 0
BITMAP 
00
00
00
00
00
00
00
00
00
00
00
18
18
18
18
00
ENDCHAR
STARTCHAR U+002CD
ENCODING 717
SWIDTH 500 0
DWIDTH 8 0
BBX 8 16 0 0
BITMAP 
00
00
00
00
00
00
00
00
00
00
00
00
00
00
7E
00
ENDCHAR
STARTCHAR U+002CE
ENCODING 718
SWIDTH 500 0
DWIDTH 8 0
BBX 8 16 0 0
BITMAP 
00
00
00
00
00
00
00
00
00
20
30
18
04
00
00
00
ENDCHAR
STARTCHAR U+002CF
ENCODING 719
SWIDTH 500 0
DWIDTH 8 0
BBX 8 16 0 0
BITMAP 
00
00
00
00
00
00
00
00
00
04
0C
18
20
00
00
00
ENDCHAR
STARTCHAR U+002D0
ENCODING 720
SWIDTH 500 0
DWIDTH 8 0
BBX 8 16 0 0
BITMAP 
00
00
00
00
00
00
1C
08
00
00
00
08
1C
00
00
00
ENDCHAR
STARTCHAR U+002D1
ENCODING 721
SWIDTH 500 0
DWIDTH 8 0
BBX 8 16 0 0
BITMAP 
00
00
00
00
00
00
1C
08
00
00
00
00
00
00
00
00
ENDCHAR
STARTCHAR U+002D2
ENCODING 722
SWIDTH 500 0
DWIDTH 8 0
BBX 8 16 0 0
BITMAP 
00
00
00
00
00
00
18
0C
0C
18
00
00
00
00
00
00
ENDCHAR
STARTCHAR U+002D3
ENCODING 723
SWIDTH 500 0
DWIDTH 8 0
BBX 8 16 0 0
BITMAP 
00
00
00
00
00
00
18
30
30
18
00
00
00
00
00
00
ENDCHAR
STARTCHAR U+002D4
ENCODING 724
SWIDTH 500 0
DWIDTH 8 0
BBX 8 16 0 0
BITMAP 
00
00
00
00
00
00
00
18
18
7E
00
00
00
00
00
00
ENDCHAR
STARTCHAR U+002D5
ENCODING 725
SWIDTH 500 0
DWIDTH 8 0
BBX 8 16 0 0
BITMAP 
00
00
00
00
00
00
00
00
00
7E
18
18
00
00
00
00
ENDCHAR
STARTCHAR U+002D6
ENCODING 726
SWIDTH 500 0
DWIDTH 8 0
BBX 8 16 0 0
BITMAP 
00
00
00
00
00
00
00
18
18
7E
18
18
00
00
00
00
ENDCHAR
STARTCHAR U+002D7
ENCODING 727
SWIDTH 500 0
DWIDTH 8 0
BBX 8 16 0 0
BITMAP 
00
00
00
00
00
00
00
00
7E
42
00
00
00
00
00
00
ENDCHAR
STARTCHAR U+002D8
ENCODING 728
SWIDTH 500 0
DWIDTH 8 0
BBX 8 16 0 0
BITMAP 
00
00
66
3C
00
00
00
00
00
00
00
00
00
00
00
00
ENDCHAR
STARTCHAR U+002D9
ENCODING 729
SWIDTH 500 0
DWIDTH 8 0
BBX 8 16 0 0
BITMAP 
00
00
18
18
00
00
00
00
00
00
00
00
00
00
00
00
ENDCHAR
STARTCHAR U+002DA
ENCODING 730
SWIDTH 500 0
DWIDTH 8 0
BBX 8 16 0 0
BITMAP 
00
00
3C
66
3C
00
00
00
00
00
00
00
00
00
00
00
ENDCHAR
STARTCHAR U+002DB
ENCODING 731
SWIDTH 500 0
DWIDTH 8 0
BBX 8 16 0 0
BITMAP 
00
00
00
00
00
00
00
00
00
00
00
00
00
18
18
0E
ENDCHAR
STARTCHAR U+002DC
ENCODING 732
SWIDTH 500 0
DWIDTH 8 0
BBX 8 16 0 0
BITMAP 
00
00
76
DC
00
00
00
00
00
00
00
00
00
00
00
00
ENDCHAR
STARTCHAR U+002DD
ENCODING 733
SWIDTH 500 0
DWIDTH 8 0
BBX 8 16 0 0
BITMAP 
00
00
36
6C
00
00
00
00
00
00
00
00
00
00
00
00
ENDCHAR
STARTCHAR U+002DE
ENCODING 734
SWIDTH 500 0
DWIDTH 8 0
BBX 8 16 0 0
BITMAP 
00
00
00
00
00
00
0C
06
76
DC
00
00
00
00
00
00
ENDCHAR
STARTCHAR U+002DF
ENCODING 735
SWIDTH 500 0
DWIDTH 8 0
BBX 8 16 0 0
BITMAP 
00
00
24
3C
18
3C
24
00
00
00
00
00
00
00
00
00
ENDCHAR
STARTCHAR U+002E0
ENCODING 736
SWIDTH 500 0
DWIDTH 8 0
BBX 8 16 0 0
BITMAP 
00
00
00
36
36
36
36
1C
36
1C
00
00
00
00
00
00
ENDCHAR
STARTCHAR U+002E1
ENCODING 737
SWIDTH 500 0
DWIDTH 8 0
BBX 8 16 0 0
BITMAP 
00
00
38
18
18
18
18
18
3C
00
00
00
00
00
00
00
ENDCHAR
STARTCHAR U+002E2
ENCODING 738
SWIDTH 500 0
DWIDTH 8 0
BBX 8 16 0 0
BITMAP 
00
00
00
1E
30
1C
06
3C
00
00
00
00
00
00
00
00
ENDCHAR
STARTCHAR U+002E3
ENCODING 739
SWIDTH 500 0
DWIDTH 8 0
BBX 8 16 0 0
BITMAP 
00
00
00
36
36
1C
36
36
00
00
00
00
00
00
00
00
ENDCHAR
STARTCHAR U+002E4
ENCODING 740
SWIDTH 500 0
DWIDTH 8 0
BBX 8 16 0 0
BITMAP 
00
00
3C
66
60
30
18
18
18
00
00
00
00
00
00
00
ENDCHAR
STARTCHAR U+002E5
ENCODING 741
SWIDTH 500 0
DWIDTH 8 0
BBX 8 16 0 0
BITMAP 
00
00
7E
06
06
06
06
06
06
06
06
06
06
00
00
00
ENDCHAR
STARTCHAR U+002E6
ENCODING 742
SWIDTH 500 0
DWIDTH 8 0
BBX 8 16 0 0
BITMAP 
00
00
06
06
06
06
7E
06
06
06
06
06
06
00
00
00
ENDCHAR
STARTCHAR U+002E7
ENCODING 743
SWIDTH 500 0
DWIDTH 8 0
BBX 8 16 0 0
BITMAP 
00
00
06
06
06
06
06
06
7E
06
06
06
06
00
00
00
ENDCHAR
STARTCHAR U+002E8
ENCODING 744
SWIDTH 500 0
DWIDTH 8 0
BBX 8 16 0 0
BITMAP 
00
00
06
06
06
06
06
06
06
06
7E
06
06
00
00
00
ENDCHAR
STARTCHAR U+002E9
ENCODING 745
SWIDTH 500 0
DWIDTH 8 0
BBX 8 16 0 0
BITMAP 
00
00
06
06
06
06
06
06
06
06
06
06
7E
00
00
00
ENDCHAR
STARTCHAR U+002EA
ENCODING 746
SWIDTH 500 0
DWIDTH 8 0
BBX 8 16 0 0
BITMAP 
00
00
00
00
00
00
60
60
60
60
60
60
7E
00
00
00
ENDCHAR
STARTCHAR U+002EB
ENCODING 747
SWIDTH 500 0
DWIDTH 8 0
BBX 8 16 0 0
BITMAP 
00
00
00
00
00
00
60
60
60
7E
60
60
60
00
00
00
ENDCHAR
STARTCHAR U+002EC
ENCODING 748
SWIDTH 500 0
DWIDTH 8 0
BBX 8 16 0 0
BITMAP 
00
00
00
00
00
00
00
00
00
00
00
00
00
66
3C
18
ENDCHAR
STARTCHAR U+002ED
ENCODING 749
SWIDTH 500 0
DWIDTH 8 0
BBX 8 16 0 0
BITMAP 
00
00
00
00
7E
00
7E
00
00
00
00
00
00
00
00
00
ENDCHAR
STARTCHAR U+002EE
ENCODING 750
SWIDTH 500 0
DWIDTH 8 0
BBX 8 16 0 0
BITMAP 
00
00
EE
EE
66
CC
00
00
00
00
00
00
00
00
00
00
ENDCHAR
STARTCHAR U+002EF
ENCODING 751
SWIDTH 500 0
DWIDTH 8 0
BBX 8 16 0 0
BITMAP 
00
00
00
00
00
00
00
00
00
00
00
00
66
66
3C
18
ENDCHAR
STARTCHAR U+002F0
ENCODING 752
SWIDTH 500 0
DWIDTH 8 0
BBX 8 16 0 0
BITMAP 
00
00
00
00
00
00
00
00
00
00
00
00
18
3C
66
66
ENDCHAR
STARTCHAR U+002F1
ENCODING 753
SWIDTH 500 0
DWIDTH 8 0
BBX 8 16 0 0
BITMAP 
00
00
00
00
00
00
00
00
00
00
00
0C
18
30
18
0C
ENDCHAR
STARTCHAR U+002F2
ENCODING 754
SWIDTH 500 0
DWIDTH 8 0
BBX 8 16 0 0
BITMAP 
00
00
00
00
00
00
00
00
00
00
00
30
18
0C
18
30
ENDCHAR
STARTCHAR U+002F3
ENCODING 755
SWIDTH 500 0
DWIDTH 8 0
BBX 8 16 0 0
BITMAP 
00
00
00
00
00
00
00
00
00
00
00
00
00
3C
66
3C
ENDCHAR
STARTCHAR U+002F4
ENCODING 756
SWIDTH 500 0
DWIDTH 8 0
BBX 8 16 0 0
BITMAP 
00
00
00
00
00
00
20
30
18
04
00
00
00
00
00
00
ENDCHAR
STARTCHAR U+002F5
ENCODING 757
SWIDTH 500 0
DWIDTH 8 0
BBX 8 16 0 0
BITMAP 
00
00
00
00
00
00
88
CC
66
11
00
00
00
00
00
00
ENDCHAR
STARTCHAR U+002F6
ENCODING 758
SWIDTH 500 0
DWIDTH 8 0
BBX 8 16 0 0
BITMAP 
00
00
00
00
00
00
11
33
66
88
00
00
00
00
00
00
ENDCHAR
STARTCHAR U+002F7
ENCODING 759
SWIDTH 500 0
DWIDTH 8 0
BBX 8 16 0 0
BITMAP 
00
00
00
00
00
00
00
00
00
00
00
00
00
71
DB
8E
ENDCHAR
STARTCHAR U+002F8
ENCODING 760
SWIDTH 500 0
DWIDTH 8 0
BBX 8 16 0 0
BITMAP 
00
00
00
1C
1C
00
00
00
1C
1C
00
00
00
00
00
00
ENDCHAR
STARTCHAR U+002F9
ENCODING 761
SWIDTH 500 0
DWIDTH 8 0
BBX 8 16 0 0
BITMAP 
00
00
00
00
3C
30
30
30
00
00
00
00
00
00
00
00
ENDCHAR
STARTCHAR U+002FA
ENCODING 762
SWIDTH 500 0
DWIDTH 8 0
BBX 8 16 0 0
BITMAP 
00
00
00
00
3C
0C
0C
0C
00
00
00
00
00
00
00
00
ENDCHAR
STARTCHAR U+002FB
ENCODING 763
SWIDTH 500 0
DWIDTH 8 0
BBX 8 16 0 0
BITMAP 
00
00
00
00
00
00
00
00
00
30
30
30
3C
00
00
00
ENDCHAR
STARTCHAR U+002FC
ENCODING 764
SWIDTH 500 0
DWIDTH 8 0
BBX 8 16 0 0
BITMAP 
00
00
00
00
00
00
00
00
00
0C
0C
0C
3C
00
00
00
ENDCHAR
STARTCHAR U+002FD
ENCODING 765
SWIDTH 1000 0
DWIDTH 16 0
BBX 16 16 0 0
BITMAP 
0000
0000
0000
0000
0000
0000
0000
0000
0000
0000
0000
0000
0000
C300
C300
FF00
ENDCHAR
STARTCHAR U+002FE
ENCODING 766
SWIDTH 1000 0
DWIDTH 16 0
BBX 16 16 0 0
BITMAP 
0000
0000
0000
0000
0000
0000
0000
0000
0000
0000
0000
0000
0000
C000
C000
FF00
ENDCHAR
STARTCHAR U+002FF
ENCODING 767
SWIDTH 500 0
DWIDTH 8 0
BBX 8 16 0 0
BITMAP 
00
00
00
00
00
00
00
00
00
00
00
30
60
FE
60
30
ENDCHAR
STARTCHAR U+00302
ENCODING 770
SWIDTH 500 0
DWIDTH 8 0
BBX 8 16 0 0
BITMAP 
00
00
30
78
CC
00
00
00
00
00
00
00
00
00
00
00
ENDCHAR
STARTCHAR U+00303
ENCODING 771
SWIDTH 500 0
DWIDTH 8 0
BBX 8 16 0 0
BITMAP 
00
00
71
DB
8E
00
00
00
00
00
00
00
00
00
00
00
ENDCHAR
STARTCHAR U+00304
ENCODING 772
SWIDTH 500 0
DWIDTH 8 0
BBX 8 16 0 0
BITMAP 
00
00
00
00
FC
00
00
00
00
00
00
00
00
00
00
00
ENDCHAR
STARTCHAR U+00305
ENCODING 773
SWIDTH 500 0
DWIDTH 8 0
BBX 8 16 0 0
BITMAP 
00
00
FF
00
00
00
00
00
00
00
00
00
00
00
00
00
ENDCHAR
STARTCHAR U+00306
ENCODING 774
SWIDTH 500 0
DWIDTH 8 0
BBX 8 16 0 0
BITMAP 
00
00
00
CC
78
00
00
00
00
00
00
00
00
00
00
00
ENDCHAR
STARTCHAR U+00307
ENCODING 775
SWIDTH 500 0
DWIDTH 8 0
BBX 8 16 0 0
BITMAP 
00
00
00
C0
C0
00
00
00
00
00
00
00
00
00
00
00
ENDCHAR
STARTCHAR U+00308
ENCODING 776
SWIDTH 500 0
DWIDTH 8 0
BBX 8 16 0 0
BITMAP 
00
00
00
CC
CC
00
00
00
00
00
00
00
00
00
00
00
ENDCHAR
STARTCHAR U+00309
ENCODING 777
SWIDTH 500 0
DWIDTH 8 0
BBX 8 16 0 0
BITMAP 
00
00
60
B0
20
60
00
00
00
00
00
00
00
00
00
00
ENDCHAR
STARTCHAR U+0030A
ENCODING 778
SWIDTH 500 0
DWIDTH 8 0
BBX 8 16 0 0
BITMAP 
00
00
78
CC
78
00
00
00
00
00
00
00
00
00
00
00
ENDCHAR
STARTCHAR U+0030B
ENCODING 779
SWIDTH 500 0
DWIDTH 8 0
BBX 8 16 0 0
BITMAP 
00
00
77
66
CC
00
00
00
00
00
00
00
00
00
00
00
ENDCHAR
STARTCHAR U+0030C
ENCODING 780
SWIDTH 500 0
DWIDTH 8 0
BBX 8 16 0 0
BITMAP 
00
00
CC
78
30
00
00
00
00
00
00
00
00
00
00
00
ENDCHAR
STARTCHAR U+0030D
ENCODING 781
SWIDTH 500 0
DWIDTH 8 0
BBX 8 16 0 0
BITMAP 
00
00
C0
C0
C0
00
00
00
00
00
00
00
00
00
00
00
ENDCHAR
STARTCHAR U+0030E
ENCODING 782
SWIDTH 500 0
DWIDTH 8 0
BBX 8 16 0 0
BITMAP 
00
00
CC
CC
CC
00
00
00
00
00
00
00
00
00
00
00
ENDCHAR
STARTCHAR U+0030F
ENCODING 783
SWIDTH 500 0
DWIDTH 8 0
BBX 8 16 0 0
BITMAP 
00
00
00
D8
6C
00
00
00
00
00
00
00
00
00
00
00
ENDCHAR
STARTCHAR U+00310
ENCODING 784
SWIDTH 500 0
DWIDTH 8 0
BBX 8 16 0 0
BITMAP 
00
00
30
30
CC
78
00
00
00
00
00
00
00
00
00
00
ENDCHAR
STARTCHAR U+00311
ENCODING 785
SWIDTH 500 0
DWIDTH 8 0
BBX 8 16 0 0
BITMAP 
00
00
00
78
CC
00
00
00
00
00
00
00
00
00
00
00
ENDCHAR
STARTCHAR U+00312
ENCODING 786
SWIDTH 500 0
DWIDTH 8 0
BBX 8 16 0 0
BITMAP 
00
00
60
C0
E0
E0
00
00
00
00
00
00
00
00
00
00
ENDCHAR
STARTCHAR U+00313
ENCODING 787
SWIDTH 500 0
DWIDTH 8 0
BBX 8 16 0 0
BITMAP 
00
00
E0
E0
60
C0
00
00
00
00
00
00
00
00
00
00
ENDCHAR
STARTCHAR U+00314
ENCODING 788
SWIDTH 500 0
DWIDTH 8 0
BBX 8 16 0 0
BITMAP 
00
00
E0
E0
C0
60
00
00
00
00
00
00
00
00
00
00
ENDCHAR
STARTCHAR U+00315
ENCODING 789
SWIDTH 500 0
DWIDTH 8 0
BBX 8 16 0 0
BITMAP 
00
00
E0
E0
60
C0
00
00
00
00
00
00
00
00
00
00
ENDCHAR
STARTCHAR U+00316
ENCODING 790
SWIDTH 500 0
DWIDTH 8 0
BBX 8 16 0 0
BITMAP 
00
00
00
00
00
00
00
00
00
00
00
00
00
00
C0
60
ENDCHAR
STARTCHAR U+00317
ENCODING 791
SWIDTH 500 0
DWIDTH 8 0
BBX 8 16 0 0
BITMAP 
00
00
00
00
00
00
00
00
00
00
00
00
00
00
60
C0
ENDCHAR
STARTCHAR U+00318
ENCODING 792
SWIDTH 500 0
DWIDTH 8 0
BBX 8 16 0 0
BITMAP 
00
00
00
00
00
00
00
00
00
00
00
00
00
20
E0
20
ENDCHAR
STARTCHAR U+00319
ENCODING 793
SWIDTH 500 0
DWIDTH 8 0
BBX 8 16 0 0
BITMAP 
00
00
00
00
00
00
00
00
00
00
00
00
00
80
E0
80
ENDCHAR
STARTCHAR U+0031A
ENCODING 794
SWIDTH 500 0
DWIDTH 8 0
BBX 8 16 0 0
BITMAP 
00
00
FC
0C
0C
00
00
00
00
00
00
00
00
00
00
00
ENDCHAR
STARTCHAR U+0031B
ENCODING 795
SWIDTH 500 0
DWIDTH 8 0
BBX 8 16 0 0
BITMAP 
00
00
00
00
00
60
60
C0
00
00
00
00
00
00
00
00
ENDCHAR
STARTCHAR U+0031C
ENCODING 796
SWIDTH 500 0
DWIDTH 8 0
BBX 8 16 0 0
BITMAP 
00
00
00
00
00
00
00
00
00
00
00
00
00
60
C0
60
ENDCHAR
STARTCHAR U+0031D
ENCODING 797
SWIDTH 500 0
DWIDTH 8 0
BBX 8 16 0 0
BITMAP 
00
00
00
00
00
00
00
00
00
00
00
00
00
00
60
F0
ENDCHAR
STARTCHAR U+0031E
ENCODING 798
SWIDTH 500 0
DWIDTH 8 0
BBX 8 16 0 0
BITMAP 
00
00
00
00
00
00
00
00
00
00
00
00
00
00
F0
60
ENDCHAR
STARTCHAR U+0031F
ENCODING 799
SWIDTH 500 0
DWIDTH 8 0
BBX 8 16 0 0
BITMAP 
00
00
00
00
00
00
00
00
00
00
00
00
00
60
F0
60
ENDCHAR
STARTCHAR U+00320
ENCODING 800
SWIDTH 500 0
DWIDTH 8 0
BBX 8 16 0 0
BITMAP 
00
00
00
00
00
00
00
00
00
00
00
00
00
00
FC
84
ENDCHAR
STARTCHAR U+00321
ENCODING 801
SWIDTH 500 0
DWIDTH 8 0
BBX 8 16 0 0
BITMAP 
00
00
00
00
00
00
00
00
00
00
00
00
00
30
30
E0
ENDCHAR
STARTCHAR U+00322
ENCODING 802
SWIDTH 500 0
DWIDTH 8 0
BBX 8 16 0 0
BITMAP 
00
00
00
00
00
00
00
00
00
00
00
00
00
C0
C0
60
ENDCHAR
STARTCHAR U+00323
ENCODING 803
SWIDTH 500 0
DWIDTH 8 0
BBX 8 16 0 0
BITMAP 
00
00
00
00
00
00
00
00
00
00
00
00
00
00
C0
C0
ENDCHAR
STARTCHAR U+00324
ENCODING 804
SWIDTH 500 0
DWIDTH 8 0
BBX 8 16 0 0
BITMAP 
00
00
00
00
00
00
00
00
00
00
00
00
00
00
CC
CC
ENDCHAR
STARTCHAR U+00325
ENCODING 805
SWIDTH 500 0
DWIDTH 8 0
BBX 8 16 0 0
BITMAP 
00
00
00
00
00
00
00
00
00
00
00
00
00
78
CC
78
ENDCHAR
STARTCHAR U+00326
ENCODING 806
SWIDTH 500 0
DWIDTH 8 0
BBX 8 16 0 0
BITMAP 
00
00
00
00
00
00
00
00
00
00
00
00
E0
E0
60
C0
ENDCHAR
STARTCHAR U+00327
ENCODING 807
SWIDTH 500 0
DWIDTH 8 0
BBX 8 16 0 0
BITMAP 
00
00
00
00
00
00
00
00
00
00
00
00
00
60
30
E0
ENDCHAR
STARTCHAR U+00328
ENCODING 808
SWIDTH 500 0
DWIDTH 8 0
BBX 8 16 0 0
BITMAP 
00
00
00
00
00
00
00
00
00
00
00
00
00
C0
C0
70
ENDCHAR
STARTCHAR U+00329
ENCODING 809
SWIDTH 500 0
DWIDTH 8 0
BBX 8 16 0 0
BITMAP 
00
00
00
00
00
00
00
00
00
00
00
00
00
C0
C0
C0
ENDCHAR
STARTCHAR U+0032A
ENCODING 810
SWIDTH 500 0
DWIDTH 8 0
BBX 8 16 0 0
BITMAP 
00
00
00
00
00
00
00
00
00
00
00
00
00
00
FC
CC
ENDCHAR
STARTCHAR U+0032B
ENCODING 811
SWIDTH 500 0
DWIDTH 8 0
BBX 8 16 0 0
BITMAP 
00
00
00
00
00
00
00
00
00
00
00
00
00
00
D6
7C
ENDCHAR
STARTCHAR U+0032C
ENCODING 812
SWIDTH 500 0
DWIDTH 8 0
BBX 8 16 0 0
BITMAP 
00
00
00
00
00
00
00
00
00
00
00
00
00
00
D8
70
ENDCHAR
STARTCHAR U+0032D
ENCODING 813
SWIDTH 500 0
DWIDTH 8 0
BBX 8 16 0 0
BITMAP 
00
00
00
00
00
00
00
00
00
00
00
00
00
00
70
D8
ENDCHAR
STARTCHAR U+0032E
ENCODING 814
SWIDTH 500 0
DWIDTH 8 0
BBX 8 16 0 0
BITMAP 
00
00
00
00
00
00
00
00
00
00
00
00
00
00
CC
78
ENDCHAR
STARTCHAR U+0032F
ENCODING 815
SWIDTH 500 0
DWIDTH 8 0
BBX 8 16 0 0
BITMAP 
00
00
00
00
00
00
00
00
00
00
00
00
00
00
78
CC
ENDCHAR
STARTCHAR U+00330
ENCODING 816
SWIDTH 500 0
DWIDTH 8 0
BBX 8 16 0 0
BITMAP 
00
00
00
00
00
00
00
00
00
00
00
00
00
00
76
DC
ENDCHAR
STARTCHAR U+00331
ENCODING 817
SWIDTH 500 0
DWIDTH 8 0
BBX 8 16 0 0
BITMAP 
00
00
00
00
00
00
00
00
00
00
00
00
00
00
FC
00
ENDCHAR
STARTCHAR U+00332
ENCODING 818
SWIDTH 500 0
DWIDTH 8 0
BBX 8 16 0 0
BITMAP 
00
00
00
00
00
00
00
00
00
00
00
00
00
00
00
FF
ENDCHAR
STARTCHAR U+00333
ENCODING 819
SWIDTH 500 0
DWIDTH 8 0
BBX 8 16 0 0
BITMAP 
00
00
00
00
00
00
00
00
00
00
00
00
00
FF
00
FF
ENDCHAR
STARTCHAR U+00334
ENCODING 820
SWIDTH 500 0
DWIDTH 8 0
BBX 8 16 0 0
BITMAP 
00
00
00
00
00
00
00
00
71
DB
8E
00
00
00
00
00
ENDCHAR
STARTCHAR U+00335
ENCODING 821
SWIDTH 500 0
DWIDTH 8 0
BBX 8 16 0 0
BITMAP 
00
00
00
00
00
00
00
00
00
FC
00
00
00
00
00
00
ENDCHAR
STARTCHAR U+00336
ENCODING 822
SWIDTH 500 0
DWIDTH 8 0
BBX 8 16 0 0
BITMAP 
00
00
00
00
00
00
00
00
00
FF
00
00
00
00
00
00
ENDCHAR
STARTCHAR U+00337
ENCODING 823
SWIDTH 500 0
DWIDTH 8 0
BBX 8 16 0 0
BITMAP 
00
00
00
00
00
00
02
04
08
10
20
40
80
00
00
00
ENDCHAR
STARTCHAR U+00338
ENCODING 824
SWIDTH 500 0
DWIDTH 8 0
BBX 8 16 0 0
BITMAP 
00
00
0C
0C
0C
0C
18
18
30
30
60
60
C0
C0
00
00
ENDCHAR
STARTCHAR U+00339
ENCODING 825
SWIDTH 500 0
DWIDTH 8 0
BBX 8 16 0 0
BITMAP 
00
00
00
00
00
00
00
00
00
00
00
00
00
C0
60
C0
ENDCHAR
STARTCHAR U+0033A
ENCODING 826
SWIDTH 500 0
DWIDTH 8 0
BBX 8 16 0 0
BITMAP 
00
00
00
00
00
00
00
00
00
00
00
00
00
00
CC
FC
ENDCHAR
STARTCHAR U+0033B
ENCODING 827
SWIDTH 500 0
DWIDTH 8 0
BBX 8 16 0 0
BITMAP 
00
00
00
00
00
00
00
00
00
00
00
00
00
E0
A0
E0
ENDCHAR
STARTCHAR U+0033C
ENCODING 828
SWIDTH 500 0
DWIDTH 8 0
BBX 8 16 0 0
BITMAP 
00
00
00
00
00
00
00
00
00
00
00
00
00
00
CC
30
ENDCHAR
STARTCHAR U+0033D
ENCODING 829
SWIDTH 500 0
DWIDTH 8 0
BBX 8 16 0 0
BITMAP 
00
00
90
60
60
90
00
00
00
00
00
00
00
00
00
00
ENDCHAR
STARTCHAR U+0033E
ENCODING 830
SWIDTH 500 0
DWIDTH 8 0
BBX 8 16 0 0
BITMAP 
00
00
30
60
60
C0
00
00
00
00
00
00
00
00
00
00
ENDCHAR
STARTCHAR U+0033F
ENCODING 831
SWIDTH 500 0
DWIDTH 8 0
BBX 8 16 0 0
BITMAP 
00
00
FF
00
FF
00
00
00
00
00
00
00
00
00
00
00
ENDCHAR
STARTCHAR U+00340
ENCODING 832
SWIDTH 500 0
DWIDTH 8 0
BBX 8 16 0 0
BITMAP 
00
00
C0
60
00
00
00
00
00
00
00
00
00
00
00
00
ENDCHAR
STARTCHAR U+00341
ENCODING 833
SWIDTH 500 0
DWIDTH 8 0
BBX 8 16 0 0
BITMAP 
00
00
60
C0
00
00
00
00
00
00
00
00
00
00
00
00
ENDCHAR
STARTCHAR U+00342
ENCODING 834
SWIDTH 500 0
DWIDTH 8 0
BBX 8 16 0 0
BITMAP 
00
00
71
DB
8E
00
00
00
00
00
00
00
00
00
00
00
ENDCHAR
STARTCHAR U+00343
ENCODING 835
SWIDTH 500 0
DWIDTH 8 0
BBX 8 16 0 0
BITMAP 
00
00
E0
E0
60
C0
00
00
00
00
00
00
00
00
00
00
ENDCHAR
STARTCHAR U+00344
ENCODING 836
SWIDTH 500 0
DWIDTH 8 0
BBX 8 16 0 0
BITMAP 
00
00
18
18
DB
DB
00
00
00
00
00
00
00
00
00
00
ENDCHAR
STARTCHAR U+00345
ENCODING 837
SWIDTH 500 0
DWIDTH 8 0
BBX 8 16 0 0
BITMAP 
00
00
00
00
00
00
00
00
00
00
00
00
00
C0
C0
60
ENDCHAR
STARTCHAR U+00346
ENCODING 838
SWIDTH 500 0
DWIDTH 8 0
BBX 8 16 0 0
BITMAP 
00
00
00
FC
84
00
00
00
00
00
00
00
00
00
00
00
ENDCHAR
STARTCHAR U+00347
ENCODING 839
SWIDTH 500 0
DWIDTH 8 0
BBX 8 16 0 0
BITMAP 
00
00
00
00
00
00
00
00
00
00
00
00
00
FC
00
FC
ENDCHAR
STARTCHAR U+00348
ENCODING 840
SWIDTH 500 0
DWIDTH 8 0
BBX 8 16 0 0
BITMAP 
00
00
00
00
00
00
00
00
00
00
00
00
00
CC
CC
CC
ENDCHAR
STARTCHAR U+00349
ENCODING 841
SWIDTH 500 0
DWIDTH 8 0
BBX 8 16 0 0
BITMAP 
00
00
00
00
00
00
00
00
00
00
00
00
00
00
F0
30
ENDCHAR
STARTCHAR U+0034A
ENCODING 842
SWIDTH 500 0
DWIDTH 8 0
BBX 8 16 0 0
BITMAP 
00
00
08
76
DC
20
00
00
00
00
00
00
00
00
00
00
ENDCHAR
STARTCHAR U+0034B
ENCODING 843
SWIDTH 500 0
DWIDTH 8 0
BBX 8 16 0 0
BITMAP 
00
00
04
71
DB
8E
20
00
00
00
00
00
00
00
00
00
ENDCHAR
STARTCHAR U+0034C
ENCODING 844
SWIDTH 500 0
DWIDTH 8 0
BBX 8 16 0 0
BITMAP 
00
00
76
DC
3B
6E
00
00
00
00
00
00
00
00
00
00
ENDCHAR
STARTCHAR U+0034D
ENCODING 845
SWIDTH 500 0
DWIDTH 8 0
BBX 8 16 0 0
BITMAP 
00
00
00
00
00
00
00
00
00
00
00
00
00
42
FF
42
ENDCHAR
STARTCHAR U+0034E
ENCODING 846
SWIDTH 500 0
DWIDTH 8 0
BBX 8 16 0 0
BITMAP 
00
00
00
00
00
00
00
00
00
00
00
00
60
F0
60
60
ENDCHAR
STARTCHAR U+0034F
ENCODING 847
SWIDTH 500 0
DWIDTH 8 0
BBX 8 16 0 0
BITMAP 
00
00
00
00
00
00
00
00
00
00
00
00
00
00
00
00
ENDCHAR
STARTCHAR U+00350
ENCODING 848
SWIDTH 500 0
DWIDTH 8 0
BBX 8 16 0 0
BITMAP 
00
00
18
0C
18
00
00
00
00
00
00
00
00
00
00
00
ENDCHAR
STARTCHAR U+00351
ENCODING 849
SWIDTH 500 0
DWIDTH 8 0
BBX 8 16 0 0
BITMAP 
00
00
60
C0
C0
60
00
00
00
00
00
00
00
00
00
00
ENDCHAR
STARTCHAR U+00352
ENCODING 850
SWIDTH 500 0
DWIDTH 8 0
BBX 8 16 0 0
BITMAP 
00
00
78
CC
30
30
00
00
00
00
00
00
00
00
00
00
ENDCHAR
STARTCHAR U+00353
ENCODING 851
SWIDTH 500 0
DWIDTH 8 0
BBX 8 16 0 0
BITMAP 
00
00
00
00
00
00
00
00
00
00
00
00
00
CC
30
CC
ENDCHAR
STARTCHAR U+00354
ENCODING 852
SWIDTH 500 0
DWIDTH 8 0
BBX 8 16 0 0
BITMAP 
00
00
00
00
00
00
00
00
00
00
00
00
00
60
C0
60
ENDCHAR
STARTCHAR U+00355
ENCODING 853
SWIDTH 500 0
DWIDTH 8 0
BBX 8 16 0 0
BITMAP 
00
00
00
00
00
00
00
00
00
00
00
00
00
C0
60
C0
ENDCHAR
STARTCHAR U+00356
ENCODING 854
SWIDTH 500 0
DWIDTH 8 0
BBX 8 16 0 0
BITMAP 
00
00
00
00
00
00
00
00
00
00
00
00
00
C4
6E
DB
ENDCHAR
STARTCHAR U+00357
ENCODING 855
SWIDTH 500 0
DWIDTH 8 0
BBX 8 16 0 0
BITMAP 
00
00
C0
60
60
C0
00
00
00
00
00
00
00
00
00
00
ENDCHAR
STARTCHAR U+00359
ENCODING 857
SWIDTH 500 0
DWIDTH 8 0
BBX 8 16 0 0
BITMAP 
00
00
00
00
00
00
00
00
00
00
00
6C
38
FE
38
6C
ENDCHAR
STARTCHAR U+0035A
ENCODING 858
SWIDTH 1000 0
DWIDTH 16 0
BBX 16 16 0 0
BITMAP 
0000
0000
0000
0000
0000
0000
0000
0000
0000
0000
0000
0000
0000
7700
DD80
7700
ENDCHAR
STARTCHAR U+0035D
ENCODING 861
SWIDTH 1000 0
DWIDTH 16 0
BBX 16 16 0 0
BITMAP 
0000
0000
C00C
7038
1FE0
0000
0000
0000
0000
0000
0000
0000
0000
0000
0000
0000
ENDCHAR
STARTCHAR U+0035E
ENCODING 862
SWIDTH 1000 0
DWIDTH 16 0
BBX 16 16 0 0
BITMAP 
0000
0000
0000
0000
FFFC
0000
0000
0000
0000
0000
0000
0000
0000
0000
0000
0000
ENDCHAR
STARTCHAR U+0035F
ENCODING 863
SWIDTH 1000 0
DWIDTH 16 0
BBX 16 16 0 0
BITMAP 
0000
0000
0000
0000
0000
0000
0000
0000
0000
0000
0000
0000
0000
0000
FFFC
0000
ENDCHAR
STARTCHAR U+00360
ENCODING 864
SWIDTH 1000 0
DWIDTH 16 0
BBX 16 16 0 0
BITMAP 
0000
0000
1E06
739C
C0F0
0000
0000
0000
0000
0000
0000
0000
0000
0000
0000
0000
ENDCHAR
STARTCHAR U+00361
ENCODING 865
SWIDTH 1000 0
DWIDTH 16 0
BBX 16 16 0 0
BITMAP 
0000
0000
1FE0
7038
C00C
0000
0000
0000
0000
0000
0000
0000
0000
0000
0000
0000
ENDCHAR
STARTCHAR U+00362
ENCODING 866
SWIDTH 1000 0
DWIDTH 16 0
BBX 16 16 0 0
BITMAP 
0000
0000
0000
0000
0000
0000
0000
0000
0000
0000
0000
0000
0000
0002
FFFF
0002
ENDCHAR
STARTCHAR U+00363
ENCODING 867
SWIDTH 500 0
DWIDTH 8 0
BBX 8 16 0 0
BITMAP 
00
00
E0
20
E0
E0
00
00
00
00
00
00
00
00
00
00
ENDCHAR
STARTCHAR U+00364
ENCODING 868
SWIDTH 500 0
DWIDTH 8 0
BBX 8 16 0 0
BITMAP 
00
00
E0
E0
80
E0
00
00
00
00
00
00
00
00
00
00
ENDCHAR
STARTCHAR U+00365
ENCODING 869
SWIDTH 500 0
DWIDTH 8 0
BBX 8 16 0 0
BITMAP 
00
00
80
00
80
80
00
00
00
00
00
00
00
00
00
00
ENDCHAR
STARTCHAR U+00366
ENCODING 870
SWIDTH 500 0
DWIDTH 8 0
BBX 8 16 0 0
BITMAP 
00
00
E0
A0
A0
E0
00
00
00
00
00
00
00
00
00
00
ENDCHAR
STARTCHAR U+00367
ENCODING 871
SWIDTH 500 0
DWIDTH 8 0
BBX 8 16 0 0
BITMAP 
00
00
A0
A0
A0
E0
00
00
00
00
00
00
00
00
00
00
ENDCHAR
STARTCHAR U+00368
ENCODING 872
SWIDTH 500 0
DWIDTH 8 0
BBX 8 16 0 0
BITMAP 
00
00
E0
80
80
E0
00
00
00
00
00
00
00
00
00
00
ENDCHAR
STARTCHAR U+00369
ENCODING 873
SWIDTH 500 0
DWIDTH 8 0
BBX 8 16 0 0
BITMAP 
00
00
20
E0
A0
E0
00
00
00
00
00
00
00
00
00
00
ENDCHAR
STARTCHAR U+0036A
ENCODING 874
SWIDTH 500 0
DWIDTH 8 0
BBX 8 16 0 0
BITMAP 
00
00
80
E0
A0
A0
00
00
00
00
00
00
00
00
00
00
ENDCHAR
STARTCHAR U+0036B
ENCODING 875
SWIDTH 500 0
DWIDTH 8 0
BBX 8 16 0 0
BITMAP 
00
00
F8
A8
A8
A8
00
00
00
00
00
00
00
00
00
00
ENDCHAR
STARTCHAR U+0036C
ENCODING 876
SWIDTH 500 0
DWIDTH 8 0
BBX 8 16 0 0
BITMAP 
00
00
E0
80
80
80
00
00
00
00
00
00
00
00
00
00
ENDCHAR
STARTCHAR U+0036D
ENCODING 877
SWIDTH 500 0
DWIDTH 8 0
BBX 8 16 0 0
BITMAP 
00
00
40
E0
40
60
00
00
00
00
00
00
00
00
00
00
ENDCHAR
STARTCHAR U+0036E
ENCODING 878
SWIDTH 500 0
DWIDTH 8 0
BBX 8 16 0 0
BITMAP 
00
00
A0
A0
A0
40
00
00
00
00
00
00
00
00
00
00
ENDCHAR
STARTCHAR U+0036F
ENCODING 879
SWIDTH 500 0
DWIDTH 8 0
BBX 8 16 0 0
BITMAP 
00
00
A0
40
A0
A0
00
00
00
00
00
00
00
00
00
00
ENDCHAR
STARTCHAR U+00374
ENCODING 884
SWIDTH 500 0
DWIDTH 8 0
BBX 8 16 0 0
BITMAP 
00
00
0C
0C
18
10
00
00
00
00
00
00
00
00
00
00
ENDCHAR
STARTCHAR U+00375
ENCODING 885
SWIDTH 500 0
DWIDTH 8 0
BBX 8 16 0 0
BITMAP 
00
00
00
00
00
00
00
00
00
00
00
00
00
18
30
30
ENDCHAR
STARTCHAR U+0037A
ENCODING 890
SWIDTH 500 0
DWIDTH 8 0
BBX 8 16 0 0
BITMAP 
00
00
00
00
00
00
00
00
00
00
00
00
00
00
18
1C
ENDCHAR
STARTCHAR U+0037E
ENCODING 894
SWIDTH 500 0
DWIDTH 8 0
BBX 8 16 0 0
BITMAP 
00
00
00
00
00
00
1C
1C
00
00
00
1C
1C
0C
18
00
ENDCHAR
STARTCHAR U+00384
ENCODING 900
SWIDTH 500 0
DWIDTH 8 0
BBX 8 16 0 0
BITMAP 
00
00
18
18
18
18
00
00
00
00
00
00
00
00
00
00
ENDCHAR
STARTCHAR U+00385
ENCODING 901
SWIDTH 500 0
DWIDTH 8 0
BBX 8 16 0 0
BITMAP 
00
00
18
18
DB
DB
00
00
00
00
00
00
00
00
00
00
ENDCHAR
STARTCHAR U+00386
ENCODING 902
SWIDTH 500 0
DWIDTH 8 0
BBX 8 16 0 0
BITMAP 
00
00
C0
C0
C0
18
3C
66
66
66
7E
66
66
66
00
00
ENDCHAR
STARTCHAR U+00387
ENCODING 903
SWIDTH 500 0
DWIDTH 8 0
BBX 8 16 0 0
BITMAP 
00
00
00
00
00
00
1C
1C
00
00
00
00
00
00
00
00
ENDCHAR
STARTCHAR U+00388
ENCODING 904
SWIDTH 500 0
DWIDTH 8 0
BBX 8 16 0 0
BITMAP 
00
00
C0
C0
C0
3F
30
30
30
3E
30
30
30
3F
00
00
ENDCHAR
STARTCHAR U+00389
ENCODING 905
SWIDTH 500 0
DWIDTH 8 0
BBX 8 16 0 0
BITMAP 
00
00
C0
C0
C0
33
33
33
33
3F
33
33
33
33
00
00
ENDCHAR
STARTCHAR U+0038A
ENCODING 906
SWIDTH 500 0
DWIDTH 8 0
BBX 8 16 0 0
BITMAP 
00
00
C0
C0
C0
1E
0C
0C
0C
0C
0C
0C
0C
1E
00
00
ENDCHAR
STARTCHAR U+0038C
ENCODING 908
SWIDTH 500 0
DWIDTH 8 0
BBX 8 16 0 0
BITMAP 
00
00
C0
C0
C0
1E
33
33
33
33
33
33
33
1E
00
00
ENDCHAR
STARTCHAR U+0038E
ENCODING 910
SWIDTH 500 0
DWIDTH 8 0
BBX 8 16 0 0
BITMAP 
00
00
C0
C0
C0
33
33
33
33
1E
0C
0C
0C
0C
00
00
ENDCHAR
STARTCHAR U+0038F
ENCODING 911
SWIDTH 500 0
DWIDTH 8 0
BBX 8 16 0 0
BITMAP 
00
00
C0
C0
C0
3E
63
63
63
63
63
63
36
77
00
00
ENDCHAR
STARTCHAR U+00390
ENCODING 912
SWIDTH 500 0
DWIDTH 8 0
BBX 8 16 0 0
BITMAP 
00
00
18
18
DB
DB
00
38
18
18
18
18
1B
0E
00
00
ENDCHAR
STARTCHAR U+00391
ENCODING 913
SWIDTH 500 0
DWIDTH 8 0
BBX 8 16 0 0
BITMAP 
00
00
18
3C
66
66
66
66
7E
66
66
66
66
00
00
00
ENDCHAR
STARTCHAR U+00392
ENCODING 914
SWIDTH 500 0
DWIDTH 8 0
BBX 8 16 0 0
BITMAP 
00
00
7C
66
66
66
66
7C
66
66
66
66
7C
00
00
00
ENDCHAR
STARTCHAR U+00393
ENCODING 915
SWIDTH 500 0
DWIDTH 8 0
BBX 8 16 0 0
BITMAP 
00
00
7E
60
60
60
60
60
60
60
60
60
60
00
00
00
ENDCHAR
STARTCHAR U+00394
ENCODING 916
SWIDTH 500 0
DWIDTH 8 0
BBX 8 16 0 0
BITMAP 
00
00
18
3C
66
66
66
66
66
66
66
66
7E
00
00
00
ENDCHAR
STARTCHAR U+00395
ENCODING 917
SWIDTH 500 0
DWIDTH 8 0
BBX 8 16 0 0
BITMAP 
00
00
7E
60
60
60
60
7C
60
60
60
60
7E
00
00
00
ENDCHAR
STARTCHAR U+00396
ENCODING 918
SWIDTH 500 0
DWIDTH 8 0
BBX 8 16 0 0
BITMAP 
00
00
7E
06
06
06
0C
18
30
60
60
60
7E
00
00
00
ENDCHAR
STARTCHAR U+00397
ENCODING 919
SWIDTH 500 0
DWIDTH 8 0
BBX 8 16 0 0
BITMAP 
00
00
66
66
66
66
66
66
7E
66
66
66
66
00
00
00
ENDCHAR
STARTCHAR U+00398
ENCODING 920
SWIDTH 500 0
DWIDTH 8 0
BBX 8 16 0 0
BITMAP 
00
00
3C
66
66
66
66
7E
66
66
66
66
3C
00
00
00
ENDCHAR
STARTCHAR U+00399
ENCODING 921
SWIDTH 500 0
DWIDTH 8 0
BBX 8 16 0 0
BITMAP 
00
00
3C
18
18
18
18
18
18
18
18
18
3C
00
00
00
ENDCHAR
STARTCHAR U+0039A
ENCODING 922
SWIDTH 500 0
DWIDTH 8 0
BBX 8 16 0 0
BITMAP 
00
00
66
66
66
66
6C
6C
78
6C
6C
66
66
00
00
00
ENDCHAR
STARTCHAR U+0039B
ENCODING 923
SWIDTH 500 0
DWIDTH 8 0
BBX 8 16 0 0
BITMAP 
00
00
18
3C
66
66
66
66
66
66
66
66
66
00
00
00
ENDCHAR
STARTCHAR U+0039C
ENCODING 924
SWIDTH 500 0
DWIDTH 8 0
BBX 8 16 0 0
BITMAP 
00
00
C6
C6
C6
C6
EE
D6
D6
D6
C6
C6
C6
00
00
00
ENDCHAR
STARTCHAR U+0039D
ENCODING 925
SWIDTH 500 0
DWIDTH 8 0
BBX 8 16 0 0
BITMAP 
00
00
C6
C6
C6
C6
E6
F6
DE
CE
C6
C6
C6
00
00
00
ENDCHAR
STARTCHAR U+0039E
ENCODING 926
SWIDTH 500 0
DWIDTH 8 0
BBX 8 16 0 0
BITMAP 
00
00
00
00
7E
66
00
00
3C
00
00
66
7E
00
00
00
ENDCHAR
STARTCHAR U+0039F
ENCODING 927
SWIDTH 500 0
DWIDTH 8 0
BBX 8 16 0 0
BITMAP 
00
00
3C
66
66
66
66
66
66
66
66
66
3C
00
00
00
ENDCHAR
STARTCHAR U+003A0
ENCODING 928
SWIDTH 500 0
DWIDTH 8 0
BBX 8 16 0 0
BITMAP 
00
00
7E
66
66
66
66
66
66
66
66
66
66
00
00
00
ENDCHAR
STARTCHAR U+003A1
ENCODING 929
SWIDTH 500 0
DWIDTH 8 0
BBX 8 16 0 0
BITMAP 
00
00
7C
66
66
66
66
7C
60
60
60
60
60
00
00
00
ENDCHAR
STARTCHAR U+003A3
ENCODING 931
SWIDTH 500 0
DWIDTH 8 0
BBX 8 16 0 0
BITMAP 
00
00
7E
60
60
60
30
18
30
60
60
60
7E
00
00
00
ENDCHAR
STARTCHAR U+003A4
ENCODING 932
SWIDTH 500 0
DWIDTH 8 0
BBX 8 16 0 0
BITMAP 
00
00
7E
18
18
18
18
18
18
18
18
18
18
00
00
00
ENDCHAR
STARTCHAR U+003A5
ENCODING 933
SWIDTH 500 0
DWIDTH 8 0
BBX 8 16 0 0
BITMAP 
00
00
66
66
66
66
66
66
3C
18
18
18
18
00
00
00
ENDCHAR
STARTCHAR U+003A6
ENCODING 934
SWIDTH 500 0
DWIDTH 8 0
BBX 8 16 0 0
BITMAP 
00
00
18
18
18
18
7E
DB
DB
DB
7E
18
18
00
00
00
ENDCHAR
STARTCHAR U+003A7
ENCODING 935
SWIDTH 500 0
DWIDTH 8 0
BBX 8 16 0 0
BITMAP 
00
00
66
66
66
66
34
18
18
2C
66
66
66
00
00
00
ENDCHAR
STARTCHAR U+003A8
ENCODING 936
SWIDTH 500 0
DWIDTH 8 0
BBX 8 16 0 0
BITMAP 
00
00
DB
DB
DB
DB
DB
DB
DB
7E
18
18
18
00
00
00
ENDCHAR
STARTCHAR U+003A9
ENCODING 937
SWIDTH 500 0
DWIDTH 8 0
BBX 8 16 0 0
BITMAP 
00
00
7C
C6
C6
C6
C6
C6
C6
C6
C6
6C
EE
00
00
00
ENDCHAR
STARTCHAR U+003AA
ENCODING 938
SWIDTH 500 0
DWIDTH 8 0
BBX 8 16 0 0
BITMAP 
66
66
00
3C
18
18
18
18
18
18
18
18
18
3C
00
00
ENDCHAR
STARTCHAR U+003AB
ENCODING 939
SWIDTH 500 0
DWIDTH 8 0
BBX 8 16 0 0
BITMAP 
66
66
00
66
66
66
66
66
66
3C
18
18
18
18
00
00
ENDCHAR
STARTCHAR U+003AC
ENCODING 940
SWIDTH 500 0
DWIDTH 8 0
BBX 8 16 0 0
BITMAP 
00
00
30
30
30
30
00
76
CC
CC
CC
CC
CC
76
00
00
ENDCHAR
STARTCHAR U+003AD
ENCODING 941
SWIDTH 500 0
DWIDTH 8 0
BBX 8 16 0 0
BITMAP 
00
00
18
18
18
18
00
3C
66
60
38
60
66
3C
00
00
ENDCHAR
STARTCHAR U+003AE
ENCODING 942
SWIDTH 500 0
DWIDTH 8 0
BBX 8 16 0 0
BITMAP 
00
18
18
18
18
00
7C
66
66
66
66
66
66
06
06
06
ENDCHAR
STARTCHAR U+003AF
ENCODING 943
SWIDTH 500 0
DWIDTH 8 0
BBX 8 16 0 0
BITMAP 
00
00
30
30
30
30
00
70
30
30
30
30
36
1C
00
00
ENDCHAR
STARTCHAR U+003B0
ENCODING 944
SWIDTH 500 0
DWIDTH 8 0
BBX 8 16 0 0
BITMAP 
00
00
18
18
DB
DB
00
6C
66
66
66
66
66
3C
00
00
ENDCHAR
STARTCHAR U+003B1
ENCODING 945
SWIDTH 500 0
DWIDTH 8 0
BBX 8 16 0 0
BITMAP 
00
00
00
00
00
00
76
CC
CC
CC
CC
CC
76
00
00
00
ENDCHAR
STARTCHAR U+003B2
ENCODING 946
SWIDTH 500 0
DWIDTH 8 0
BBX 8 16 0 0
BITMAP 
00
00
3C
66
66
66
66
6C
66
66
66
66
6C
60
60
60
ENDCHAR
STARTCHAR U+003B3
ENCODING 947
SWIDTH 500 0
DWIDTH 8 0
BBX 8 16 0 0
BITMAP 
00
00
00
00
00
00
66
66
66
66
66
3C
18
18
18
18
ENDCHAR
STARTCHAR U+003B4
ENCODING 948
SWIDTH 500 0
DWIDTH 8 0
BBX 8 16 0 0
BITMAP 
00
00
7E
30
1C
66
66
66
66
66
66
66
3C
00
00
00
ENDCHAR
STARTCHAR U+003B5
ENCODING 949
SWIDTH 500 0
DWIDTH 8 0
BBX 8 16 0 0
BITMAP 
00
00
00
00
00
00
3C
66
60
38
60
66
3C
00
00
00
ENDCHAR
STARTCHAR U+003B6
ENCODING 950
SWIDTH 500 0
DWIDTH 8 0
BBX 8 16 0 0
BITMAP 
00
00
7C
0C
0C
0C
18
30
60
60
60
60
3C
06
06
0C
ENDCHAR
STARTCHAR U+003B7
ENCODING 951
SWIDTH 500 0
DWIDTH 8 0
BBX 8 16 0 0
BITMAP 
00
00
00
00
00
00
7C
66
66
66
66
66
66
06
06
06
ENDCHAR
STARTCHAR U+003B8
ENCODING 952
SWIDTH 500 0
DWIDTH 8 0
BBX 8 16 0 0
BITMAP 
00
00
3C
66
66
66
66
7E
66
66
66
66
3C
00
00
00
ENDCHAR
STARTCHAR U+003B9
ENCODING 953
SWIDTH 500 0
DWIDTH 8 0
BBX 8 16 0 0
BITMAP 
00
00
00
00
00
00
70
30
30
30
30
36
1C
00
00
00
ENDCHAR
STARTCHAR U+003BA
ENCODING 954
SWIDTH 500 0
DWIDTH 8 0
BBX 8 16 0 0
BITMAP 
00
00
00
00
00
00
66
66
6C
78
6C
66
66
00
00
00
ENDCHAR
STARTCHAR U+003BB
ENCODING 955
SWIDTH 500 0
DWIDTH 8 0
BBX 8 16 0 0
BITMAP 
00
00
30
30
30
30
18
18
3C
66
66
66
66
00
00
00
ENDCHAR
STARTCHAR U+003BC
ENCODING 956
SWIDTH 500 0
DWIDTH 8 0
BBX 8 16 0 0
BITMAP 
00
00
00
00
00
00
66
66
66
66
66
66
7B
60
60
C0
ENDCHAR
STARTCHAR U+003BD
ENCODING 957
SWIDTH 500 0
DWIDTH 8 0
BBX 8 16 0 0
BITMAP 
00
00
00
00
00
00
66
66
66
66
66
3C
18
00
00
00
ENDCHAR
STARTCHAR U+003BE
ENCODING 958
SWIDTH 500 0
DWIDTH 8 0
BBX 8 16 0 0
BITMAP 
00
00
3C
60
60
60
38
30
60
60
60
60
3C
06
06
0C
ENDCHAR
STARTCHAR U+003BF
ENCODING 959
SWIDTH 500 0
DWIDTH 8 0
BBX 8 16 0 0
BITMAP 
00
00
00
00
00
00
3C
66
66
66
66
66
3C
00
00
00
ENDCHAR
STARTCHAR U+003C0
ENCODING 960
SWIDTH 500 0
DWIDTH 8 0
BBX 8 16 0 0
BITMAP 
00
00
00
00
00
00
7E
66
66
66
66
66
66
00
00
00
ENDCHAR
STARTCHAR U+003C1
ENCODING 961
SWIDTH 500 0
DWIDTH 8 0
BBX 8 16 0 0
BITMAP 
00
00
00
00
00
00
3C
66
66
66
66
66
7C
60
60
60
ENDCHAR
STARTCHAR U+003C2
ENCODING 962
SWIDTH 500 0
DWIDTH 8 0
BBX 8 16 0 0
BITMAP 
00
00
00
00
00
00
1C
30
60
60
60
60
3C
06
06
0C
ENDCHAR
STARTCHAR U+003C3
ENCODING 963
SWIDTH 500 0
DWIDTH 8 0
BBX 8 16 0 0
BITMAP 
00
00
00
00
00
00
7E
CC
CC
CC
CC
CC
78
00
00
00
ENDCHAR
STARTCHAR U+003C4
ENCODING 964
SWIDTH 500 0
DWIDTH 8 0
BBX 8 16 0 0
BITMAP 
00
00
00
00
00
00
7E
18
18
18
18
18
18
00
00
00
ENDCHAR
STARTCHAR U+003C5
ENCODING 965
SWIDTH 500 0
DWIDTH 8 0
BBX 8 16 0 0
BITMAP 
00
00
00
00
00
00
6C
66
66
66
66
66
3C
00
00
00
ENDCHAR
STARTCHAR U+003C6
ENCODING 966
SWIDTH 500 0
DWIDTH 8 0
BBX 8 16 0 0
BITMAP 
00
00
00
00
00
00
CC
DA
DA
DA
DA
DA
7C
18
18
18
ENDCHAR
STARTCHAR U+003C7
ENCODING 967
SWIDTH 500 0
DWIDTH 8 0
BBX 8 16 0 0
BITMAP 
00
00
00
00
00
00
66
66
66
3C
18
3C
66
66
66
66
ENDCHAR
STARTCHAR U+003C8
ENCODING 968
SWIDTH 500 0
DWIDTH 8 0
BBX 8 16 0 0
BITMAP 
00
00
10
10
10
10
D6
D6
D6
D6
D6
D6
7C
10
10
10
ENDCHAR
STARTCHAR U+003C9
ENCODING 969
SWIDTH 500 0
DWIDTH 8 0
BBX 8 16 0 0
BITMAP 
00
00
00
00
00
00
6C
C6
D6
D6
D6
D6
6C
00
00
00
ENDCHAR
STARTCHAR U+003CA
ENCODING 970
SWIDTH 500 0
DWIDTH 8 0
BBX 8 16 0 0
BITMAP 
00
00
00
CC
CC
00
70
30
30
30
30
36
1C
00
00
00
ENDCHAR
STARTCHAR U+003CB
ENCODING 971
SWIDTH 500 0
DWIDTH 8 0
BBX 8 16 0 0
BITMAP 
00
00
00
66
66
00
6C
66
66
66
66
66
3C
00
00
00
ENDCHAR
STARTCHAR U+003CC
ENCODING 972
SWIDTH 500 0
DWIDTH 8 0
BBX 8 16 0 0
BITMAP 
00
00
18
18
18
18
00
3C
66
66
66
66
66
3C
00
00
ENDCHAR
STARTCHAR U+003CD
ENCODING 973
SWIDTH 500 0
DWIDTH 8 0
BBX 8 16 0 0
BITMAP 
00
00
18
18
18
18
00
6C
66
66
66
66
66
3C
00
00
ENDCHAR
STARTCHAR U+003CE
ENCODING 974
SWIDTH 500 0
DWIDTH 8 0
BBX 8 16 0 0
BITMAP 
00
00
18
18
18
18
00
6C
C6
D6
D6
D6
D6
6C
00
00
ENDCHAR
STARTCHAR U+003D0
ENCODING 976
SWIDTH 500 0
DWIDTH 8 0
BBX 8 16 0 0
BITMAP 
00
00
3C
66
66
66
66
6C
66
66
66
66
3C
00
00
00
ENDCHAR
STARTCHAR U+003D1
ENCODING 977
SWIDTH 500 0
DWIDTH 8 0
BBX 8 16 0 0
BITMAP 
00
00
18
2C
1E
CC
6C
6C
6C
6C
6C
6C
38
00
00
00
ENDCHAR
STARTCHAR U+003D2
ENCODING 978
SWIDTH 500 0
DWIDTH 8 0
BBX 8 16 0 0
BITMAP 
00
00
C3
66
66
66
3C
3C
18
18
18
18
18
00
00
00
ENDCHAR
STARTCHAR U+003D3
ENCODING 979
SWIDTH 500 0
DWIDTH 8 0
BBX 8 16 0 0
BITMAP 
00
00
C0
C0
80
C3
66
66
3C
3C
18
18
18
18
00
00
ENDCHAR
STARTCHAR U+003D4
ENCODING 980
SWIDTH 500 0
DWIDTH 8 0
BBX 8 16 0 0
BITMAP 
66
66
00
C3
66
66
66
3C
3C
18
18
18
18
18
00
00
ENDCHAR
STARTCHAR U+003D5
ENCODING 981
SWIDTH 500 0
DWIDTH 8 0
BBX 8 16 0 0
BITMAP 
00
10
10
10
10
10
7C
D6
D6
D6
D6
D6
7C
10
10
10
ENDCHAR
STARTCHAR U+003D6
ENCODING 982
SWIDTH 500 0
DWIDTH 8 0
BBX 8 16 0 0
BITMAP 
00
00
00
00
00
00
FE
63
6B
6B
6B
6B
36
00
00
00
ENDCHAR
STARTCHAR U+003D7
ENCODING 983
SWIDTH 500 0
DWIDTH 8 0
BBX 8 16 0 0
BITMAP 
00
00
00
00
00
00
C7
67
6E
7E
76
E3
E3
03
06
1C
ENDCHAR
STARTCHAR U+003D8
ENCODING 984
SWIDTH 500 0
DWIDTH 8 0
BBX 8 16 0 0
BITMAP 
00
00
3C
66
66
66
66
66
66
66
66
66
3C
18
18
18
ENDCHAR
STARTCHAR U+003D9
ENCODING 985
SWIDTH 500 0
DWIDTH 8 0
BBX 8 16 0 0
BITMAP 
00
00
00
00
00
00
3C
66
66
66
66
66
3C
18
18
18
ENDCHAR
STARTCHAR U+003DA
ENCODING 986
SWIDTH 500 0
DWIDTH 8 0
BBX 8 16 0 0
BITMAP 
00
00
3C
66
66
66
60
60
60
60
3C
06
06
06
06
0C
ENDCHAR
STARTCHAR U+003DB
ENCODING 987
SWIDTH 500 0
DWIDTH 8 0
BBX 8 16 0 0
BITMAP 
00
00
00
00
00
00
06
3C
60
60
60
60
3C
06
06
0C
ENDCHAR
STARTCHAR U+003DC
ENCODING 988
SWIDTH 500 0
DWIDTH 8 0
BBX 8 16 0 0
BITMAP 
00
00
7E
60
60
60
60
7C
60
60
60
60
60
00
00
00
ENDCHAR
STARTCHAR U+003DD
ENCODING 989
SWIDTH 500 0
DWIDTH 8 0
BBX 8 16 0 0
BITMAP 
00
00
7E
60
60
60
60
7C
60
60
60
60
60
60
60
60
ENDCHAR
STARTCHAR U+003DE
ENCODING 990
SWIDTH 500 0
DWIDTH 8 0
BBX 8 16 0 0
BITMAP 
00
00
00
00
30
18
30
66
7E
66
0C
18
0C
00
00
00
ENDCHAR
STARTCHAR U+003DF
ENCODING 991
SWIDTH 500 0
DWIDTH 8 0
BBX 8 16 0 0
BITMAP 
00
00
18
18
18
18
30
60
7E
06
0C
18
18
00
00
00
ENDCHAR
STARTCHAR U+003E0
ENCODING 992
SWIDTH 500 0
DWIDTH 8 0
BBX 8 16 0 0
BITMAP 
00
00
00
00
78
DC
36
6E
DE
36
66
0C
38
00
00
00
ENDCHAR
STARTCHAR U+003E1
ENCODING 993
SWIDTH 500 0
DWIDTH 8 0
BBX 8 16 0 0
BITMAP 
00
00
00
00
00
00
78
1C
36
6E
1E
36
06
06
06
0C
ENDCHAR
STARTCHAR U+003E2
ENCODING 994
SWIDTH 500 0
DWIDTH 8 0
BBX 8 16 0 0
BITMAP 
00
00
D6
D6
D6
D6
D6
D6
D6
D6
D6
D6
7E
06
7E
C6
ENDCHAR
STARTCHAR U+003E3
ENCODING 995
SWIDTH 500 0
DWIDTH 8 0
BBX 8 16 0 0
BITMAP 
00
00
00
00
00
00
D6
D6
D6
D6
D6
D6
7E
06
7E
C6
ENDCHAR
STARTCHAR U+003E4
ENCODING 996
SWIDTH 500 0
DWIDTH 8 0
BBX 8 16 0 0
BITMAP 
00
00
76
D6
C6
C6
C6
7E
06
06
06
06
06
00
00
00
ENDCHAR
STARTCHAR U+003E5
ENCODING 997
SWIDTH 500 0
DWIDTH 8 0
BBX 8 16 0 0
BITMAP 
00
00
36
66
66
66
66
3E
06
06
06
06
06
00
00
00
ENDCHAR
STARTCHAR U+003E6
ENCODING 998
SWIDTH 500 0
DWIDTH 8 0
BBX 8 16 0 0
BITMAP 
00
00
60
60
60
60
7C
66
63
63
63
63
63
03
76
DC
ENDCHAR
STARTCHAR U+003E7
ENCODING 999
SWIDTH 500 0
DWIDTH 8 0
BBX 8 16 0 0
BITMAP 
00
00
0C
18
7C
D6
D6
D6
D6
76
06
76
DC
00
00
00
ENDCHAR
STARTCHAR U+003E8
ENCODING 1000
SWIDTH 500 0
DWIDTH 8 0
BBX 8 16 0 0
BITMAP 
00
00
3C
66
66
66
0C
18
30
66
66
66
3C
00
00
00
ENDCHAR
STARTCHAR U+003E9
ENCODING 1001
SWIDTH 500 0
DWIDTH 8 0
BBX 8 16 0 0
BITMAP 
00
00
3C
66
66
66
66
3C
18
30
60
66
3C
00
00
00
ENDCHAR
STARTCHAR U+003EA
ENCODING 1002
SWIDTH 500 0
DWIDTH 8 0
BBX 8 16 0 0
BITMAP 
00
00
66
BD
18
18
18
3C
3C
66
66
66
7E
00
00
00
ENDCHAR
STARTCHAR U+003EB
ENCODING 1003
SWIDTH 500 0
DWIDTH 8 0
BBX 8 16 0 0
BITMAP 
00
00
00
00
00
00
66
BD
18
3C
66
66
7E
00
00
00
ENDCHAR
STARTCHAR U+003EC
ENCODING 1004
SWIDTH 500 0
DWIDTH 8 0
BBX 8 16 0 0
BITMAP 
00
00
76
DC
C0
FC
C6
C6
C6
C6
C6
CC
78
00
00
00
ENDCHAR
STARTCHAR U+003ED
ENCODING 1005
SWIDTH 500 0
DWIDTH 8 0
BBX 8 16 0 0
BITMAP 
00
00
00
06
7C
C0
F8
CC
CC
CC
CC
CC
78
00
00
00
ENDCHAR
STARTCHAR U+003EE
ENCODING 1006
SWIDTH 500 0
DWIDTH 8 0
BBX 8 16 0 0
BITMAP 
00
00
18
18
18
18
7E
99
5A
18
18
18
18
00
00
00
ENDCHAR
STARTCHAR U+003EF
ENCODING 1007
SWIDTH 500 0
DWIDTH 8 0
BBX 8 16 0 0
BITMAP 
00
00
18
18
18
18
7E
18
18
18
18
18
38
00
00
00
ENDCHAR
STARTCHAR U+003F0
ENCODING 1008
SWIDTH 500 0
DWIDTH 8 0
BBX 8 16 0 0
BITMAP 
00
00
00
00
00
00
C7
67
6E
7E
76
E6
E3
00
00
00
ENDCHAR
STARTCHAR U+003F1
ENCODING 1009
SWIDTH 500 0
DWIDTH 8 0
BBX 8 16 0 0
BITMAP 
00
00
00
00
00
00
3C
66
66
66
66
66
7C
60
3C
06
ENDCHAR
STARTCHAR U+003F2
ENCODING 1010
SWIDTH 500 0
DWIDTH 8 0
BBX 8 16 0 0
BITMAP 
00
00
00
00
00
00
3C
62
60
60
60
62
3C
00
00
00
ENDCHAR
STARTCHAR U+003F3
ENCODING 1011
SWIDTH 500 0
DWIDTH 8 0
BBX 8 16 0 0
BITMAP 
00
00
00
0C
0C
00
3C
0C
0C
0C
0C
0C
0C
0C
0C
78
ENDCHAR
STARTCHAR U+003F4
ENCODING 1012
SWIDTH 500 0
DWIDTH 8 0
BBX 8 16 0 0
BITMAP 
00
00
3C
66
66
66
66
7E
66
66
66
66
3C
00
00
00
ENDCHAR
STARTCHAR U+003F5
ENCODING 1013
SWIDTH 500 0
DWIDTH 8 0
BBX 8 16 0 0
BITMAP 
00
00
00
00
00
00
3C
62
60
7C
60
62
3C
00
00
00
ENDCHAR
STARTCHAR U+003F6
ENCODING 1014
SWIDTH 500 0
DWIDTH 8 0
BBX 8 16 0 0
BITMAP 
00
00
00
00
00
00
3C
46
06
3E
06
46
3C
00
00
00
ENDCHAR
STARTCHAR U+003F7
ENCODING 1015
SWIDTH 500 0
DWIDTH 8 0
BBX 8 16 0 0
BITMAP 
00
00
60
60
60
60
7C
66
66
66
7C
60
60
00
00
00
ENDCHAR
STARTCHAR U+003F8
ENCODING 1016
SWIDTH 500 0
DWIDTH 8 0
BBX 8 16 0 0
BITMAP 
00
00
60
60
60
60
7C
66
66
66
66
66
7C
60
60
60
ENDCHAR
STARTCHAR U+003F9
ENCODING 1017
SWIDTH 500 0
DWIDTH 8 0
BBX 8 16 0 0
BITMAP 
00
00
3C
62
60
60
60
60
60
60
60
62
3C
00
00
00
ENDCHAR
STARTCHAR U+003FA
ENCODING 1018
SWIDTH 500 0
DWIDTH 8 0
BBX 8 16 0 0
BITMAP 
00
00
C6
EE
FE
D6
C6
C6
C6
C6
C6
C6
C6
00
00
00
ENDCHAR
STARTCHAR U+003FB
ENCODING 1019
SWIDTH 500 0
DWIDTH 8 0
BBX 8 16 0 0
BITMAP 
00
00
00
00
00
00
C6
EE
FE
D6
C6
C6
C6
C0
C0
C0
ENDCHAR
STARTCHAR U+00400
ENCODING 1024
SWIDTH 500 0
DWIDTH 8 0
BBX 8 16 0 0
BITMAP 
30
18
00
7E
60
60
60
60
7C
60
60
60
60
7E
00
00
ENDCHAR
STARTCHAR U+00401
ENCODING 1025
SWIDTH 500 0
DWIDTH 8 0
BBX 8 16 0 0
BITMAP 
66
66
00
7E
60
60
60
60
7C
60
60
60
60
7E
00
00
ENDCHAR
STARTCHAR U+00402
ENCODING 1026
SWIDTH 500 0
DWIDTH 8 0
BBX 8 16 0 0
BITMAP 
00
00
F8
60
7C
66
66
66
66
66
66
66
66
06
06
1C
ENDCHAR
STARTCHAR U+00403
ENCODING 1027
SWIDTH 500 0
DWIDTH 8 0
BBX 8 16 0 0
BITMAP 
0C
18
00
7E
60
60
60
60
60
60
60
60
60
60
00
00
ENDCHAR
STARTCHAR U+00404
ENCODING 1028
SWIDTH 500 0
DWIDTH 8 0
BBX 8 16 0 0
BITMAP 
00
00
3C
66
66
66
60
7C
60
66
66
66
3C
00
00
00
ENDCHAR
STARTCHAR U+00405
ENCODING 1029
SWIDTH 500 0
DWIDTH 8 0
BBX 8 16 0 0
BITMAP 
00
00
00
00
3C
66
60
30
18
0C
06
66
3C
00
00
00
ENDCHAR
STARTCHAR U+00406
ENCODING 1030
SWIDTH 500 0
DWIDTH 8 0
BBX 8 16 0 0
BITMAP 
00
00
3C
18
18
18
18
18
18
18
18
18
3C
00
00
00
ENDCHAR
STARTCHAR U+00407
ENCODING 1031
SWIDTH 500 0
DWIDTH 8 0
BBX 8 16 0 0
BITMAP 
66
66
00
3C
18
18
18
18
18
18
18
18
18
3C
00
00
ENDCHAR
STARTCHAR U+00408
ENCODING 1032
SWIDTH 500 0
DWIDTH 8 0
BBX 8 16 0 0
BITMAP 
00
00
06
06
06
06
06
06
06
06
66
66
3C
00
00
00
ENDCHAR
STARTCHAR U+00409
ENCODING 1033
SWIDTH 500 0
DWIDTH 8 0
BBX 8 16 0 0
BITMAP 
00
00
3C
6C
6C
6C
6C
6E
6D
6D
6D
6D
CE
00
00
00
ENDCHAR
STARTCHAR U+0040A
ENCODING 1034
SWIDTH 500 0
DWIDTH 8 0
BBX 8 16 0 0
BITMAP 
00
00
D8
D8
D8
D8
D8
D8
FC
DA
DA
DA
DC
00
00
00
ENDCHAR
STARTCHAR U+0040B
ENCODING 1035
SWIDTH 500 0
DWIDTH 8 0
BBX 8 16 0 0
BITMAP 
00
00
F8
60
7C
66
66
66
66
66
66
66
66
00
00
00
ENDCHAR
STARTCHAR U+0040C
ENCODING 1036
SWIDTH 500 0
DWIDTH 8 0
BBX 8 16 0 0
BITMAP 
18
30
00
C6
CE
D8
D8
D8
F0
D8
CC
CC
CC
C6
00
00
ENDCHAR
STARTCHAR U+0040D
ENCODING 1037
SWIDTH 500 0
DWIDTH 8 0
BBX 8 16 0 0
BITMAP 
30
18
00
C6
C6
C6
C6
CE
DE
F6
E6
C6
C6
C6
00
00
ENDCHAR
STARTCHAR U+0040E
ENCODING 1038
SWIDTH 500 0
DWIDTH 8 0
BBX 8 16 0 0
BITMAP 
66
3C
00
66
66
66
66
66
66
66
3C
0C
18
70
00
00
ENDCHAR
STARTCHAR U+0040F
ENCODING 1039
SWIDTH 500 0
DWIDTH 8 0
BBX 8 16 0 0
BITMAP 
00
00
66
66
66
66
66
66
66
66
66
66
7E
18
18
00
ENDCHAR
STARTCHAR U+00410
ENCODING 1040
SWIDTH 500 0
DWIDTH 8 0
BBX 8 16 0 0
BITMAP 
00
00
18
3C
66
66
66
66
7E
66
66
66
66
00
00
00
ENDCHAR
STARTCHAR U+00411
ENCODING 1041
SWIDTH 500 0
DWIDTH 8 0
BBX 8 16 0 0
BITMAP 
00
00
7E
60
60
60
7C
66
66
66
66
66
7C
00
00
00
ENDCHAR
STARTCHAR U+00412
ENCODING 1042
SWIDTH 500 0
DWIDTH 8 0
BBX 8 16 0 0
BITMAP 
00
00
7C
66
66
66
66
7C
66
66
66
66
7C
00
00
00
ENDCHAR
STARTCHAR U+00413
ENCODING 1043
SWIDTH 500 0
DWIDTH 8 0
BBX 8 16 0 0
BITMAP 
00
00
7E
60
60
60
60
60
60
60
60
60
60
00
00
00
ENDCHAR
STARTCHAR U+00414
ENCODING 1044
SWIDTH 500 0
DWIDTH 8 0
BBX 8 16 0 0
BITMAP 
00
00
3E
66
66
66
66
66
66
66
66
66
FF
C3
00
00
ENDCHAR
STARTCHAR U+00415
ENCODING 1045
SWIDTH 500 0
DWIDTH 8 0
BBX 8 16 0 0
BITMAP 
00
00
7E
60
60
60
60
7C
60
60
60
60
7E
00
00
00
ENDCHAR
STARTCHAR U+00416
ENCODING 1046
SWIDTH 500 0
DWIDTH 8 0
BBX 8 16 0 0
BITMAP 
00
00
DB
DB
DB
DB
7E
3C
3C
7E
5A
DB
DB
00
00
00
ENDCHAR
STARTCHAR U+00417
ENCODING 1047
SWIDTH 500 0
DWIDTH 8 0
BBX 8 16 0 0
BITMAP 
00
00
3C
66
66
66
06
1C
06
66
66
66
3C
00
00
00
ENDCHAR
STARTCHAR U+00418
ENCODING 1048
SWIDTH 500 0
DWIDTH 8 0
BBX 8 16 0 0
BITMAP 
00
00
C6
C6
C6
C6
CE
DE
F6
E6
C6
C6
C6
00
00
00
ENDCHAR
STARTCHAR U+00419
ENCODING 1049
SWIDTH 500 0
DWIDTH 8 0
BBX 8 16 0 0
BITMAP 
CC
78
00
C6
C6
C6
C6
CE
DE
F6
E6
C6
C6
C6
00
00
ENDCHAR
STARTCHAR U+0041A
ENCODING 1050
SWIDTH 500 0
DWIDTH 8 0
BBX 8 16 0 0
BITMAP 
00
00
C6
CE
D8
D8
D8
F0
D8
CC
CC
CC
C6
00
00
00
ENDCHAR
STARTCHAR U+0041B
ENCODING 1051
SWIDTH 500 0
DWIDTH 8 0
BBX 8 16 0 0
BITMAP 
00
00
3E
66
66
66
66
66
66
66
66
66
C6
00
00
00
ENDCHAR
STARTCHAR U+0041C
ENCODING 1052
SWIDTH 500 0
DWIDTH 8 0
BBX 8 16 0 0
BITMAP 
00
00
C6
C6
C6
C6
EE
D6
D6
D6
C6
C6
C6
00
00
00
ENDCHAR
STARTCHAR U+0041D
ENCODING 1053
SWIDTH 500 0
DWIDTH 8 0
BBX 8 16 0 0
BITMAP 
00
00
66
66
66
66
66
66
7E
66
66
66
66
00
00
00
ENDCHAR
STARTCHAR U+0041E
ENCODING 1054
SWIDTH 500 0
DWIDTH 8 0
BBX 8 16 0 0
BITMAP 
00
00
3C
66
66
66
66
66
66
66
66
66
3C
00
00
00
ENDCHAR
STARTCHAR U+0041F
ENCODING 1055
SWIDTH 500 0
DWIDTH 8 0
BBX 8 16 0 0
BITMAP 
00
00
7E
66
66
66
66
66
66
66
66
66
66
00
00
00
ENDCHAR
STARTCHAR U+00420
ENCODING 1056
SWIDTH 500 0
DWIDTH 8 0
BBX 8 16 0 0
BITMAP 
00
00
7C
66
66
66
66
7C
60
60
60
60
60
00
00
00
ENDCHAR
STARTCHAR U+00421
ENCODING 1057
SWIDTH 500 0
DWIDTH 8 0
BBX 8 16 0 0
BITMAP 
00
00
3C
66
66
66
60
60
60
66
66
66
3C
00
00
00
ENDCHAR
STARTCHAR U+00422
ENCODING 1058
SWIDTH 500 0
DWIDTH 8 0
BBX 8 16 0 0
BITMAP 
00
00
7E
18
18
18
18
18
18
18
18
18
18
00
00
00
ENDCHAR
STARTCHAR U+00423
ENCODING 1059
SWIDTH 500 0
DWIDTH 8 0
BBX 8 16 0 0
BITMAP 
00
00
66
66
66
66
66
66
66
3C
0C
18
70
00
00
00
ENDCHAR
STARTCHAR U+00424
ENCODING 1060
SWIDTH 500 0
DWIDTH 8 0
BBX 8 16 0 0
BITMAP 
00
00
18
7E
DB
DB
DB
DB
DB
7E
18
18
18
00
00
00
ENDCHAR
STARTCHAR U+00425
ENCODING 1061
SWIDTH 500 0
DWIDTH 8 0
BBX 8 16 0 0
BITMAP 
00
00
66
66
66
66
34
18
18
2C
66
66
66
00
00
00
ENDCHAR
STARTCHAR U+00426
ENCODING 1062
SWIDTH 500 0
DWIDTH 8 0
BBX 8 16 0 0
BITMAP 
00
00
CC
CC
CC
CC
CC
CC
CC
CC
CC
CC
FE
06
00
00
ENDCHAR
STARTCHAR U+00427
ENCODING 1063
SWIDTH 500 0
DWIDTH 8 0
BBX 8 16 0 0
BITMAP 
00
00
66
66
66
66
66
66
66
3E
06
06
06
00
00
00
ENDCHAR
STARTCHAR U+00428
ENCODING 1064
SWIDTH 500 0
DWIDTH 8 0
BBX 8 16 0 0
BITMAP 
00
00
D6
D6
D6
D6
D6
D6
D6
D6
D6
D6
FE
00
00
00
ENDCHAR
STARTCHAR U+00429
ENCODING 1065
SWIDTH 500 0
DWIDTH 8 0
BBX 8 16 0 0
BITMAP 
00
00
D6
D6
D6
D6
D6
D6
D6
D6
D6
D6
FE
06
00
00
ENDCHAR
STARTCHAR U+0042A
ENCODING 1066
SWIDTH 500 0
DWIDTH 8 0
BBX 8 16 0 0
BITMAP 
00
00
E0
E0
E0
E0
60
60
7C
66
66
66
7C
00
00
00
ENDCHAR
STARTCHAR U+0042B
ENCODING 1067
SWIDTH 500 0
DWIDTH 8 0
BBX 8 16 0 0
BITMAP 
00
00
C6
C6
C6
C6
C6
C6
F6
DE
DE
DE
F6
00
00
00
ENDCHAR
STARTCHAR U+0042C
ENCODING 1068
SWIDTH 500 0
DWIDTH 8 0
BBX 8 16 0 0
BITMAP 
00
00
60
60
60
60
60
60
7C
66
66
66
7C
00
00
00
ENDCHAR
STARTCHAR U+0042D
ENCODING 1069
SWIDTH 500 0
DWIDTH 8 0
BBX 8 16 0 0
BITMAP 
00
00
3C
66
66
66
06
3E
06
66
66
66
3C
00
00
00
ENDCHAR
STARTCHAR U+0042E
ENCODING 1070
SWIDTH 500 0
DWIDTH 8 0
BBX 8 16 0 0
BITMAP 
00
00
CE
DB
DB
DB
DB
FB
DB
DB
DB
DB
CE
00
00
00
ENDCHAR
STARTCHAR U+0042F
ENCODING 1071
SWIDTH 500 0
DWIDTH 8 0
BBX 8 16 0 0
BITMAP 
00
00
3E
66
66
66
66
3E
36
66
66
66
66
00
00
00
ENDCHAR
STARTCHAR U+00430
ENCODING 1072
SWIDTH 500 0
DWIDTH 8 0
BBX 8 16 0 0
BITMAP 
00
00
00
00
00
00
3C
06
06
3E
66
66
3E
00
00
00
ENDCHAR
STARTCHAR U+00431
ENCODING 1073
SWIDTH 500 0
DWIDTH 8 0
BBX 8 16 0 0
BITMAP 
00
00
06
3C
60
7C
66
66
66
66
66
66
3C
00
00
00
ENDCHAR
STARTCHAR U+00432
ENCODING 1074
SWIDTH 500 0
DWIDTH 8 0
BBX 8 16 0 0
BITMAP 
00
00
00
00
00
00
7C
66
66
7C
66
66
7C
00
00
00
ENDCHAR
STARTCHAR U+00433
ENCODING 1075
SWIDTH 500 0
DWIDTH 8 0
BBX 8 16 0 0
BITMAP 
00
00
00
00
00
00
7E
60
60
60
60
60
60
00
00
00
ENDCHAR
STARTCHAR U+00434
ENCODING 1076
SWIDTH 500 0
DWIDTH 8 0
BBX 8 16 0 0
BITMAP 
00
00
00
00
00
00
3E
66
66
66
66
66
FF
C3
00
00
ENDCHAR
STARTCHAR U+00435
ENCODING 1077
SWIDTH 500 0
DWIDTH 8 0
BBX 8 16 0 0
BITMAP 
00
00
00
00
00
00
3C
66
66
7E
60
60
3C
00
00
00
ENDCHAR
STARTCHAR U+00436
ENCODING 1078
SWIDTH 500 0
DWIDTH 8 0
BBX 8 16 0 0
BITMAP 
00
00
00
00
00
00
92
D6
7C
38
7C
D6
92
00
00
00
ENDCHAR
STARTCHAR U+00437
ENCODING 1079
SWIDTH 500 0
DWIDTH 8 0
BBX 8 16 0 0
BITMAP 
00
00
00
00
00
00
3C
66
06
1C
06
66
3C
00
00
00
ENDCHAR
STARTCHAR U+00438
ENCODING 1080
SWIDTH 500 0
DWIDTH 8 0
BBX 8 16 0 0
BITMAP 
00
00
00
00
00
00
C6
CE
DE
F6
E6
C6
C6
00
00
00
ENDCHAR
STARTCHAR U+00439
ENCODING 1081
SWIDTH 500 0
DWIDTH 8 0
BBX 8 16 0 0
BITMAP 
00
00
CC
CC
78
00
C6
CE
DE
F6
E6
C6
C6
00
00
00
ENDCHAR
STARTCHAR U+0043A
ENCODING 1082
SWIDTH 500 0
DWIDTH 8 0
BBX 8 16 0 0
BITMAP 
00
00
00
00
00
00
C6
CE
D8
F0
D8
CC
C6
00
00
00
ENDCHAR
STARTCHAR U+0043B
ENCODING 1083
SWIDTH 500 0
DWIDTH 8 0
BBX 8 16 0 0
BITMAP 
00
00
00
00
00
00
3E
66
66
66
66
66
C6
00
00
00
ENDCHAR
STARTCHAR U+0043C
ENCODING 1084
SWIDTH 500 0
DWIDTH 8 0
BBX 8 16 0 0
BITMAP 
00
00
00
00
00
00
C6
C6
EE
D6
D6
C6
C6
00
00
00
ENDCHAR
STARTCHAR U+0043D
ENCODING 1085
SWIDTH 500 0
DWIDTH 8 0
BBX 8 16 0 0
BITMAP 
00
00
00
00
00
00
66
66
66
7E
66
66
66
00
00
00
ENDCHAR
STARTCHAR U+0043E
ENCODING 1086
SWIDTH 500 0
DWIDTH 8 0
BBX 8 16 0 0
BITMAP 
00
00
00
00
00
00
3C
66
66
66
66
66
3C
00
00
00
ENDCHAR
STARTCHAR U+0043F
ENCODING 1087
SWIDTH 500 0
DWIDTH 8 0
BBX 8 16 0 0
BITMAP 
00
00
00
00
00
00
7E
66
66
66
66
66
66
00
00
00
ENDCHAR
STARTCHAR U+00440
ENCODING 1088
SWIDTH 500 0
DWIDTH 8 0
BBX 8 16 0 0
BITMAP 
00
00
00
00
00
00
7C
66
66
66
66
66
7C
60
60
60
ENDCHAR
STARTCHAR U+00441
ENCODING 1089
SWIDTH 500 0
DWIDTH 8 0
BBX 8 16 0 0
BITMAP 
00
00
00
00
00
00
3C
66
60
60
60
66
3C
00
00
00
ENDCHAR
STARTCHAR U+00442
ENCODING 1090
SWIDTH 500 0
DWIDTH 8 0
BBX 8 16 0 0
BITMAP 
00
00
00
00
00
00
7E
18
18
18
18
18
18
00
00
00
ENDCHAR
STARTCHAR U+00443
ENCODING 1091
SWIDTH 500 0
DWIDTH 8 0
BBX 8 16 0 0
BITMAP 
00
00
00
00
00
00
66
66
66
66
66
66
3C
0C
18
F0
ENDCHAR
STARTCHAR U+00444
ENCODING 1092
SWIDTH 500 0
DWIDTH 8 0
BBX 8 16 0 0
BITMAP 
00
00
00
10
7C
D6
D6
D6
D6
D6
D6
D6
7C
10
10
00
ENDCHAR
STARTCHAR U+00445
ENCODING 1093
SWIDTH 500 0
DWIDTH 8 0
BBX 8 16 0 0
BITMAP 
00
00
00
00
00
00
66
66
3C
18
3C
66
66
00
00
00
ENDCHAR
STARTCHAR U+00446
ENCODING 1094
SWIDTH 500 0
DWIDTH 8 0
BBX 8 16 0 0
BITMAP 
00
00
00
00
00
00
CC
CC
CC
CC
CC
CC
FE
06
00
00
ENDCHAR
STARTCHAR U+00447
ENCODING 1095
SWIDTH 500 0
DWIDTH 8 0
BBX 8 16 0 0
BITMAP 
00
00
00
00
00
00
66
66
66
66
3E
06
06
00
00
00
ENDCHAR
STARTCHAR U+00448
ENCODING 1096
SWIDTH 500 0
DWIDTH 8 0
BBX 8 16 0 0
BITMAP 
00
00
00
00
00
00
D6
D6
D6
D6
D6
D6
FE
00
00
00
ENDCHAR
STARTCHAR U+00449
ENCODING 1097
SWIDTH 500 0
DWIDTH 8 0
BBX 8 16 0 0
BITMAP 
00
00
00
00
00
00
D6
D6
D6
D6
D6
D6
FE
06
00
00
ENDCHAR
STARTCHAR U+0044A
ENCODING 1098
SWIDTH 500 0
DWIDTH 8 0
BBX 8 16 0 0
BITMAP 
00
00
00
00
00
00
E0
E0
60
7C
66
66
7C
00
00
00
ENDCHAR
STARTCHAR U+0044B
ENCODING 1099
SWIDTH 500 0
DWIDTH 8 0
BBX 8 16 0 0
BITMAP 
00
00
00
00
00
00
C6
C6
C6
F6
DE
DE
F6
00
00
00
ENDCHAR
STARTCHAR U+0044C
ENCODING 1100
SWIDTH 500 0
DWIDTH 8 0
BBX 8 16 0 0
BITMAP 
00
00
00
00
00
00
60
60
60
7C
66
66
7C
00
00
00
ENDCHAR
STARTCHAR U+0044D
ENCODING 1101
SWIDTH 500 0
DWIDTH 8 0
BBX 8 16 0 0
BITMAP 
00
00
00
00
00
00
3C
66
06
3E
06
66
3C
00
00
00
ENDCHAR
STARTCHAR U+0044E
ENCODING 1102
SWIDTH 500 0
DWIDTH 8 0
BBX 8 16 0 0
BITMAP 
00
00
00
00
00
00
CC
D6
D6
F6
D6
D6
CC
00
00
00
ENDCHAR
STARTCHAR U+0044F
ENCODING 1103
SWIDTH 500 0
DWIDTH 8 0
BBX 8 16 0 0
BITMAP 
00
00
00
00
00
00
3E
66
66
3E
66
66
66
00
00
00
ENDCHAR
STARTCHAR U+00450
ENCODING 1104
SWIDTH 500 0
DWIDTH 8 0
BBX 8 16 0 0
BITMAP 
00
00
70
30
18
00
3C
66
66
7E
60
60
3C
00
00
00
ENDCHAR
STARTCHAR U+00451
ENCODING 1105
SWIDTH 500 0
DWIDTH 8 0
BBX 8 16 0 0
BITMAP 
00
00
00
66
66
00
3C
66
66
7E
60
60
3C
00
00
00
ENDCHAR
STARTCHAR U+00452
ENCODING 1106
SWIDTH 500 0
DWIDTH 8 0
BBX 8 16 0 0
BITMAP 
00
00
60
FC
60
7C
66
66
66
66
66
66
66
06
06
1C
ENDCHAR
STARTCHAR U+00453
ENCODING 1107
SWIDTH 500 0
DWIDTH 8 0
BBX 8 16 0 0
BITMAP 
00
00
0E
0C
18
00
7E
60
60
60
60
60
60
00
00
00
ENDCHAR
STARTCHAR U+00454
ENCODING 1108
SWIDTH 500 0
DWIDTH 8 0
BBX 8 16 0 0
BITMAP 
00
00
00
00
00
00
3C
66
60
7C
60
66
3C
00
00
00
ENDCHAR
STARTCHAR U+00455
ENCODING 1109
SWIDTH 500 0
DWIDTH 8 0
BBX 8 16 0 0
BITMAP 
00
00
00
00
00
00
3E
60
60
3C
06
06
7C
00
00
00
ENDCHAR
STARTCHAR U+00456
ENCODING 1110
SWIDTH 500 0
DWIDTH 8 0
BBX 8 16 0 0
BITMAP 
00
00
00
18
18
00
78
18
18
18
18
18
7E
00
00
00
ENDCHAR
STARTCHAR U+00457
ENCODING 1111
SWIDTH 500 0
DWIDTH 8 0
BBX 8 16 0 0
BITMAP 
00
00
00
66
66
00
78
18
18
18
18
18
7E
00
00
00
ENDCHAR
STARTCHAR U+00458
ENCODING 1112
SWIDTH 500 0
DWIDTH 8 0
BBX 8 16 0 0
BITMAP 
00
00
00
0C
0C
00
3C
0C
0C
0C
0C
0C
0C
0C
0C
78
ENDCHAR
STARTCHAR U+00459
ENCODING 1113
SWIDTH 500 0
DWIDTH 8 0
BBX 8 16 0 0
BITMAP 
00
00
00
00
00
00
3C
6C
6C
6E
6D
6D
CE
00
00
00
ENDCHAR
STARTCHAR U+0045A
ENCODING 1114
SWIDTH 500 0
DWIDTH 8 0
BBX 8 16 0 0
BITMAP 
00
00
00
00
00
00
D8
D8
D8
FC
DA
DA
DC
00
00
00
ENDCHAR
STARTCHAR U+0045B
ENCODING 1115
SWIDTH 500 0
DWIDTH 8 0
BBX 8 16 0 0
BITMAP 
00
00
60
FC
60
7C
66
66
66
66
66
66
66
00
00
00
ENDCHAR
STARTCHAR U+0045C
ENCODING 1116
SWIDTH 500 0
DWIDTH 8 0
BBX 8 16 0 0
BITMAP 
00
00
1C
18
30
00
C6
CE
D8
F0
D8
CC
C6
00
00
00
ENDCHAR
STARTCHAR U+0045D
ENCODING 1117
SWIDTH 500 0
DWIDTH 8 0
BBX 8 16 0 0
BITMAP 
00
00
70
30
18
00
C6
CE
DE
F6
E6
C6
C6
00
00
00
ENDCHAR
STARTCHAR U+0045E
ENCODING 1118
SWIDTH 500 0
DWIDTH 8 0
BBX 8 16 0 0
BITMAP 
00
00
66
66
3C
00
66
66
66
66
66
66
3C
0C
18
F0
ENDCHAR
STARTCHAR U+0045F
ENCODING 1119
SWIDTH 500 0
DWIDTH 8 0
BBX 8 16 0 0
BITMAP 
00
00
00
00
00
00
66
66
66
66
66
66
7E
18
18
00
ENDCHAR
STARTCHAR U+00460
ENCODING 1120
SWIDTH 1000 0
DWIDTH 16 0
BBX 16 16 0 0
BITMAP 
0000
0000
3870
6CD8
CCCC
D86C
C00C
C30C
C30C
C30C
C30C
6798
3CF0
0000
0000
0000
ENDCHAR
STARTCHAR U+00461
ENCODING 1121
SWIDTH 500 0
DWIDTH 8 0
BBX 8 16 0 0
BITMAP 
00
00
00
00
00
00
DA
DA
DA
DA
DA
6C
6C
00
00
00
ENDCHAR
STARTCHAR U+00462
ENCODING 1122
SWIDTH 500 0
DWIDTH 8 0
BBX 8 16 0 0
BITMAP 
00
70
60
FE
60
7E
63
63
63
63
63
63
7E
00
00
00
ENDCHAR
STARTCHAR U+00463
ENCODING 1123
SWIDTH 500 0
DWIDTH 8 0
BBX 8 16 0 0
BITMAP 
00
00
70
60
FC
60
7C
66
66
66
66
66
7C
00
00
00
ENDCHAR
STARTCHAR U+00464
ENCODING 1124
SWIDTH 1000 0
DWIDTH 16 0
BBX 16 16 0 0
BITMAP 
0000
0000
C780
CCC0
CCC0
CCC0
CC00
FF80
CC00
CCC0
CCC0
CCC0
C780
0000
0000
0000
ENDCHAR
STARTCHAR U+00465
ENCODING 1125
SWIDTH 1000 0
DWIDTH 16 0
BBX 16 16 0 0
BITMAP 
0000
0000
0000
0000
0000
0000
C780
CCC0
CC00
FF80
CC00
CCC0
C780
0000
0000
0000
ENDCHAR
STARTCHAR U+00466
ENCODING 1126
SWIDTH 500 0
DWIDTH 8 0
BBX 8 16 0 0
BITMAP 
00
00
18
3C
66
66
66
E7
DB
DB
DB
DB
DB
00
00
00
ENDCHAR
STARTCHAR U+00467
ENCODING 1127
SWIDTH 500 0
DWIDTH 8 0
BBX 8 16 0 0
BITMAP 
00
00
00
00
00
00
18
3C
66
E7
DB
DB
DB
00
00
00
ENDCHAR
STARTCHAR U+00468
ENCODING 1128
SWIDTH 1000 0
DWIDTH 16 0
BBX 16 16 0 0
BITMAP 
0000
0000
60C0
61E0
6330
6330
6330
7F38
66D8
66D8
66D8
66D8
66D8
0000
0000
0000
ENDCHAR
STARTCHAR U+00469
ENCODING 1129
SWIDTH 1000 0
DWIDTH 16 0
BBX 16 16 0 0
BITMAP 
0000
0000
0000
0000
0000
0000
60C0
61E0
6330
7F38
66D8
66D8
66D8
0000
0000
0000
ENDCHAR
STARTCHAR U+0046A
ENCODING 1130
SWIDTH 500 0
DWIDTH 8 0
BBX 8 16 0 0
BITMAP 
00
00
7E
66
3C
18
7E
DB
DB
DB
DB
DB
DB
00
00
00
ENDCHAR
STARTCHAR U+0046B
ENCODING 1131
SWIDTH 500 0
DWIDTH 8 0
BBX 8 16 0 0
BITMAP 
00
00
00
00
00
00
7E
66
3C
7E
DB
DB
DB
00
00
00
ENDCHAR
STARTCHAR U+0046C
ENCODING 1132
SWIDTH 1000 0
DWIDTH 16 0
BBX 16 16 0 0
BITMAP 
0000
0000
63F0
6330
61E0
60C0
7FF0
66D8
66D8
66D8
66D8
66D8
66D8
0000
0000
0000
ENDCHAR
STARTCHAR U+0046D
ENCODING 1133
SWIDTH 1000 0
DWIDTH 16 0
BBX 16 16 0 0
BITMAP 
0000
0000
0000
0000
0000
0000
63F0
6330
61E0
7FF0
66D8
66D8
66D8
0000
0000
0000
ENDCHAR
STARTCHAR U+0046E
ENCODING 1134
SWIDTH 500 0
DWIDTH 8 0
BBX 8 16 0 0
BITMAP 
00
36
1C
00
3C
66
06
06
3C
66
06
06
3C
60
66
3E
ENDCHAR
STARTCHAR U+0046F
ENCODING 1135
SWIDTH 500 0
DWIDTH 8 0
BBX 8 16 0 0
BITMAP 
00
00
66
3C
18
00
3C
66
06
3C
66
06
3C
60
66
3E
ENDCHAR
STARTCHAR U+00470
ENCODING 1136
SWIDTH 500 0
DWIDTH 8 0
BBX 8 16 0 0
BITMAP 
00
00
DA
DA
DA
DA
DA
DA
7C
18
18
18
18
00
00
00
ENDCHAR
STARTCHAR U+00471
ENCODING 1137
SWIDTH 500 0
DWIDTH 8 0
BBX 8 16 0 0
BITMAP 
00
00
00
00
00
00
DA
DA
DA
DA
DA
DA
7C
18
18
18
ENDCHAR
STARTCHAR U+00472
ENCODING 1138
SWIDTH 500 0
DWIDTH 8 0
BBX 8 16 0 0
BITMAP 
00
00
7C
C6
C6
C6
F6
D6
DE
C6
C6
C6
7C
00
00
00
ENDCHAR
STARTCHAR U+00473
ENCODING 1139
SWIDTH 500 0
DWIDTH 8 0
BBX 8 16 0 0
BITMAP 
00
00
00
00
00
00
7C
C6
F6
D6
DE
C6
7C
00
00
00
ENDCHAR
STARTCHAR U+00474
ENCODING 1140
SWIDTH 1000 0
DWIDTH 16 0
BBX 16 16 0 0
BITMAP 
0000
0000
C380
C6C0
C6C0
C6C0
6C00
6C00
6C00
3800
3800
3800
1000
0000
0000
0000
ENDCHAR
STARTCHAR U+00475
ENCODING 1141
SWIDTH 1000 0
DWIDTH 16 0
BBX 16 16 0 0
BITMAP 
0000
0000
0000
0000
0000
0000
C380
C6C0
6CC0
6C00
3800
3800
1000
0000
0000
0000
ENDCHAR
STARTCHAR U+00476
ENCODING 1142
SWIDTH 1000 0
DWIDTH 16 0
BBX 16 16 0 0
BITMAP 
D800
6C00
0000
C380
C6C0
C6C0
C6C0
6C00
6C00
6C00
3800
3800
3800
1000
0000
0000
ENDCHAR
STARTCHAR U+00477
ENCODING 1143
SWIDTH 1000 0
DWIDTH 16 0
BBX 16 16 0 0
BITMAP 
0000
0000
EE00
6600
3300
0000
61C0
6360
3660
3600
1C00
1C00
0800
0000
0000
0000
ENDCHAR
STARTCHAR U+0047A
ENCODING 1146
SWIDTH 1000 0
DWIDTH 16 0
BBX 16 16 0 0
BITMAP 
0000
0C00
7F80
CCC0
C0C0
C0C0
C0C0
C0C0
C0C0
C0C0
C0C0
CCC0
7F80
0C00
0000
0000
ENDCHAR
STARTCHAR U+0047B
ENCODING 1147
SWIDTH 1000 0
DWIDTH 16 0
BBX 16 16 0 0
BITMAP 
0000
0000
0000
0C00
7F80
CCC0
C0C0
C0C0
C0C0
C0C0
C0C0
CCC0
7F80
0C00
0000
0000
ENDCHAR
STARTCHAR U+0047C
ENCODING 1148
SWIDTH 1000 0
DWIDTH 16 0
BBX 16 16 0 0
BITMAP 
0000
0000
00C0
0780
0C00
60C0
C060
C060
C060
C060
C060
C460
CE60
7BC0
0000
0000
ENDCHAR
STARTCHAR U+0047D
ENCODING 1149
SWIDTH 1000 0
DWIDTH 16 0
BBX 16 16 0 0
BITMAP 
0000
0000
0300
1E00
3000
0000
7380
C0C0
C0C0
C0C0
CCC0
DEC0
7380
0000
0000
0000
ENDCHAR
STARTCHAR U+0047E
ENCODING 1150
SWIDTH 1000 0
DWIDTH 16 0
BBX 16 16 0 0
BITMAP 
7FF8
3330
0000
3870
6CD8
CCCC
D86C
C00C
C30C
C30C
C30C
C30C
6798
3CF0
0000
0000
ENDCHAR
STARTCHAR U+0047F
ENCODING 1151
SWIDTH 500 0
DWIDTH 8 0
BBX 8 16 0 0
BITMAP 
00
00
00
FE
54
00
DA
DA
DA
DA
DA
6C
6C
00
00
00
ENDCHAR
STARTCHAR U+00480
ENCODING 1152
SWIDTH 500 0
DWIDTH 8 0
BBX 8 16 0 0
BITMAP 
00
00
3C
66
66
66
60
60
3C
0C
0C
0C
0C
00
00
00
ENDCHAR
STARTCHAR U+00481
ENCODING 1153
SWIDTH 500 0
DWIDTH 8 0
BBX 8 16 0 0
BITMAP 
00
00
00
00
00
00
3C
66
60
60
60
66
3E
06
06
06
ENDCHAR
STARTCHAR U+00482
ENCODING 1154
SWIDTH 500 0
DWIDTH 8 0
BBX 8 16 0 0
BITMAP 
00
00
00
00
06
36
1C
0E
1B
D8
70
38
6C
60
00
00
ENDCHAR
STARTCHAR U+00483
ENCODING 1155
SWIDTH 500 0
DWIDTH 8 0
BBX 8 16 0 0
BITMAP 
00
00
0C
78
C0
00
00
00
00
00
00
00
00
00
00
00
ENDCHAR
STARTCHAR U+00484
ENCODING 1156
SWIDTH 500 0
DWIDTH 8 0
BBX 8 16 0 0
BITMAP 
00
00
1C
36
E6
00
00
00
00
00
00
00
00
00
00
00
ENDCHAR
STARTCHAR U+00485
ENCODING 1157
SWIDTH 500 0
DWIDTH 8 0
BBX 8 16 0 0
BITMAP 
00
00
C0
FC
C0
00
00
00
00
00
00
00
00
00
00
00
ENDCHAR
STARTCHAR U+00486
ENCODING 1158
SWIDTH 500 0
DWIDTH 8 0
BBX 8 16 0 0
BITMAP 
00
00
0C
FC
0C
00
00
00
00
00
00
00
00
00
00
00
ENDCHAR
STARTCHAR U+0048A
ENCODING 1162
SWIDTH 500 0
DWIDTH 8 0
BBX 8 16 0 0
BITMAP 
CC
78
00
C6
C6
C6
C6
CE
DE
F6
E6
C6
C6
C6
0C
18
ENDCHAR
STARTCHAR U+0048B
ENCODING 1163
SWIDTH 500 0
DWIDTH 8 0
BBX 8 16 0 0
BITMAP 
00
00
CC
CC
78
00
C6
CE
DE
F6
E6
C6
C6
0C
18
00
ENDCHAR
STARTCHAR U+0048C
ENCODING 1164
SWIDTH 500 0
DWIDTH 8 0
BBX 8 16 0 0
BITMAP 
00
00
60
F8
60
60
60
60
7C
66
66
66
7C
00
00
00
ENDCHAR
STARTCHAR U+0048D
ENCODING 1165
SWIDTH 500 0
DWIDTH 8 0
BBX 8 16 0 0
BITMAP 
00
00
60
F8
60
60
60
60
7C
66
66
66
7C
00
00
00
ENDCHAR
STARTCHAR U+0048E
ENCODING 1166
SWIDTH 500 0
DWIDTH 8 0
BBX 8 16 0 0
BITMAP 
00
00
FC
C6
F6
DE
FC
C6
C0
C0
C0
C0
C0
00
00
00
ENDCHAR
STARTCHAR U+0048F
ENCODING 1167
SWIDTH 500 0
DWIDTH 8 0
BBX 8 16 0 0
BITMAP 
00
00
00
00
00
00
FC
C6
C6
C6
F6
DE
FC
C6
C0
C0
ENDCHAR
STARTCHAR U+00490
ENCODING 1168
SWIDTH 500 0
DWIDTH 8 0
BBX 8 16 0 0
BITMAP 
00
00
06
06
7E
60
60
60
60
60
60
60
60
00
00
00
ENDCHAR
STARTCHAR U+00491
ENCODING 1169
SWIDTH 500 0
DWIDTH 8 0
BBX 8 16 0 0
BITMAP 
00
00
06
06
06
06
7E
60
60
60
60
60
60
00
00
00
ENDCHAR
STARTCHAR U+00492
ENCODING 1170
SWIDTH 500 0
DWIDTH 8 0
BBX 8 16 0 0
BITMAP 
00
00
7E
60
60
60
60
FC
60
60
60
60
60
00
00
00
ENDCHAR
STARTCHAR U+00493
ENCODING 1171
SWIDTH 500 0
DWIDTH 8 0
BBX 8 16 0 0
BITMAP 
00
00
00
00
00
00
7E
60
60
FC
60
60
60
00
00
00
ENDCHAR
STARTCHAR U+00494
ENCODING 1172
SWIDTH 500 0
DWIDTH 8 0
BBX 8 16 0 0
BITMAP 
00
00
7E
60
60
60
7C
66
66
66
66
66
66
06
06
3C
ENDCHAR
STARTCHAR U+00495
ENCODING 1173
SWIDTH 500 0
DWIDTH 8 0
BBX 8 16 0 0
BITMAP 
00
00
00
00
00
00
7E
60
60
7C
66
66
66
06
06
3C
ENDCHAR
STARTCHAR U+00496
ENCODING 1174
SWIDTH 500 0
DWIDTH 8 0
BBX 8 16 0 0
BITMAP 
00
00
DB
DB
DB
DB
7E
3C
3C
7E
5A
DB
DB
03
03
00
ENDCHAR
STARTCHAR U+00497
ENCODING 1175
SWIDTH 500 0
DWIDTH 8 0
BBX 8 16 0 0
BITMAP 
00
00
00
00
00
00
92
D6
7C
38
7C
D6
96
06
00
00
ENDCHAR
STARTCHAR U+00498
ENCODING 1176
SWIDTH 500 0
DWIDTH 8 0
BBX 8 16 0 0
BITMAP 
00
00
3C
66
66
66
06
1C
06
66
66
66
3C
18
18
70
ENDCHAR
STARTCHAR U+00499
ENCODING 1177
SWIDTH 500 0
DWIDTH 8 0
BBX 8 16 0 0
BITMAP 
00
00
00
00
00
00
3C
66
06
1C
06
66
3C
18
18
70
ENDCHAR
STARTCHAR U+0049A
ENCODING 1178
SWIDTH 500 0
DWIDTH 8 0
BBX 8 16 0 0
BITMAP 
00
00
C6
CE
D8
D8
D8
F0
D8
CC
CC
CC
C6
06
06
00
ENDCHAR
STARTCHAR U+0049B
ENCODING 1179
SWIDTH 500 0
DWIDTH 8 0
BBX 8 16 0 0
BITMAP 
00
00
00
00
00
00
C6
CE
D8
F0
D8
CC
C6
06
06
00
ENDCHAR
STARTCHAR U+0049C
ENCODING 1180
SWIDTH 500 0
DWIDTH 8 0
BBX 8 16 0 0
BITMAP 
00
00
C6
D6
D4
DC
F8
DC
D6
D6
D6
D6
C6
00
00
00
ENDCHAR
STARTCHAR U+0049D
ENCODING 1181
SWIDTH 500 0
DWIDTH 8 0
BBX 8 16 0 0
BITMAP 
00
00
00
00
00
00
D6
D6
DC
F8
DC
D6
D6
00
00
00
ENDCHAR
STARTCHAR U+0049E
ENCODING 1182
SWIDTH 500 0
DWIDTH 8 0
BBX 8 16 0 0
BITMAP 
00
00
63
F7
7C
7C
7C
78
6C
66
66
66
63
00
00
00
ENDCHAR
STARTCHAR U+0049F
ENCODING 1183
SWIDTH 500 0
DWIDTH 8 0
BBX 8 16 0 0
BITMAP 
00
00
60
F8
66
66
66
6C
78
6C
66
66
66
00
00
00
ENDCHAR
STARTCHAR U+004A0
ENCODING 1184
SWIDTH 1000 0
DWIDTH 16 0
BBX 16 16 0 0
BITMAP 
0000
0000
F8C0
19C0
1B00
1B00
1B00
1E00
1B00
1980
1980
1980
18C0
0000
0000
0000
ENDCHAR
STARTCHAR U+004A1
ENCODING 1185
SWIDTH 1000 0
DWIDTH 16 0
BBX 16 16 0 0
BITMAP 
0000
0000
0000
0000
0000
0000
F8C0
19C0
1B00
1E00
1B00
1980
18C0
0000
0000
0000
ENDCHAR
STARTCHAR U+004A2
ENCODING 1186
SWIDTH 500 0
DWIDTH 8 0
BBX 8 16 0 0
BITMAP 
00
00
CC
CC
CC
CC
CC
CC
FC
CC
CC
CC
CE
06
06
00
ENDCHAR
STARTCHAR U+004A3
ENCODING 1187
SWIDTH 500 0
DWIDTH 8 0
BBX 8 16 0 0
BITMAP 
00
00
00
00
00
00
CC
CC
CC
FC
CC
CC
CE
06
06
00
ENDCHAR
STARTCHAR U+004A4
ENCODING 1188
SWIDTH 500 0
DWIDTH 8 0
BBX 8 16 0 0
BITMAP 
00
00
CE
CC
CC
CC
CC
FC
CC
CC
CC
CC
CC
00
00
00
ENDCHAR
STARTCHAR U+004A5
ENCODING 1189
SWIDTH 500 0
DWIDTH 8 0
BBX 8 16 0 0
BITMAP 
00
00
00
00
00
00
CE
CC
CC
FC
CC
CC
CC
00
00
00
ENDCHAR
STARTCHAR U+004A6
ENCODING 1190
SWIDTH 500 0
DWIDTH 8 0
BBX 8 16 0 0
BITMAP 
00
00
F8
D8
D8
D8
DE
DB
DB
DB
DB
DB
DB
03
03
0E
ENDCHAR
STARTCHAR U+004A7
ENCODING 1191
SWIDTH 500 0
DWIDTH 8 0
BBX 8 16 0 0
BITMAP 
00
00
00
00
00
00
F0
B0
B0
BC
B6
B6
B6
06
06
1C
ENDCHAR
STARTCHAR U+004A8
ENCODING 1192
SWIDTH 500 0
DWIDTH 8 0
BBX 8 16 0 0
BITMAP 
00
00
78
CC
C0
CC
DA
DA
DA
DA
DA
DA
7C
18
0E
00
ENDCHAR
STARTCHAR U+004A9
ENCODING 1193
SWIDTH 500 0
DWIDTH 8 0
BBX 8 16 0 0
BITMAP 
00
00
00
00
00
00
78
CC
C0
CC
DA
DA
7C
18
0E
00
ENDCHAR
STARTCHAR U+004AA
ENCODING 1194
SWIDTH 500 0
DWIDTH 8 0
BBX 8 16 0 0
BITMAP 
00
00
3C
66
66
66
60
60
60
66
66
66
3C
18
18
70
ENDCHAR
STARTCHAR U+004AB
ENCODING 1195
SWIDTH 500 0
DWIDTH 8 0
BBX 8 16 0 0
BITMAP 
00
00
00
00
00
00
3C
66
60
60
60
66
3C
18
18
70
ENDCHAR
STARTCHAR U+004AC
ENCODING 1196
SWIDTH 500 0
DWIDTH 8 0
BBX 8 16 0 0
BITMAP 
00
00
7E
18
18
18
18
18
18
18
18
18
1C
0C
0C
00
ENDCHAR
STARTCHAR U+004AD
ENCODING 1197
SWIDTH 500 0
DWIDTH 8 0
BBX 8 16 0 0
BITMAP 
00
00
00
00
00
00
7E
18
18
18
18
18
1C
0C
0C
00
ENDCHAR
STARTCHAR U+004AE
ENCODING 1198
SWIDTH 500 0
DWIDTH 8 0
BBX 8 16 0 0
BITMAP 
00
00
66
66
66
66
66
66
3C
18
18
18
18
00
00
00
ENDCHAR
STARTCHAR U+004AF
ENCODING 1199
SWIDTH 500 0
DWIDTH 8 0
BBX 8 16 0 0
BITMAP 
00
00
00
00
00
00
66
66
66
66
66
3C
18
18
18
18
ENDCHAR
STARTCHAR U+004B0
ENCODING 1200
SWIDTH 500 0
DWIDTH 8 0
BBX 8 16 0 0
BITMAP 
00
00
66
66
66
66
66
66
3C
18
7E
18
18
00
00
00
ENDCHAR
STARTCHAR U+004B1
ENCODING 1201
SWIDTH 500 0
DWIDTH 8 0
BBX 8 16 0 0
BITMAP 
00
00
00
00
00
00
66
66
66
66
66
3C
18
7E
18
18
ENDCHAR
STARTCHAR U+004B2
ENCODING 1202
SWIDTH 500 0
DWIDTH 8 0
BBX 8 16 0 0
BITMAP 
00
00
CC
CC
CC
CC
68
30
30
58
CC
CC
CE
06
06
00
ENDCHAR
STARTCHAR U+004B3
ENCODING 1203
SWIDTH 500 0
DWIDTH 8 0
BBX 8 16 0 0
BITMAP 
00
00
00
00
00
00
CC
CC
78
30
78
CC
CE
06
06
00
ENDCHAR
STARTCHAR U+004B4
ENCODING 1204
SWIDTH 500 0
DWIDTH 8 0
BBX 8 16 0 0
BITMAP 
00
00
F6
66
66
66
66
66
66
66
66
66
7F
03
03
00
ENDCHAR
STARTCHAR U+004B5
ENCODING 1205
SWIDTH 500 0
DWIDTH 8 0
BBX 8 16 0 0
BITMAP 
00
00
00
00
00
00
F6
66
66
66
66
66
7F
03
03
00
ENDCHAR
STARTCHAR U+004B6
ENCODING 1206
SWIDTH 500 0
DWIDTH 8 0
BBX 8 16 0 0
BITMAP 
00
00
CC
CC
CC
CC
CC
CC
CC
7C
0C
0C
0E
06
06
00
ENDCHAR
STARTCHAR U+004B7
ENCODING 1207
SWIDTH 500 0
DWIDTH 8 0
BBX 8 16 0 0
BITMAP 
00
00
00
00
00
00
CC
CC
CC
CC
7C
0C
0E
06
06
00
ENDCHAR
STARTCHAR U+004B8
ENCODING 1208
SWIDTH 500 0
DWIDTH 8 0
BBX 8 16 0 0
BITMAP 
00
00
C6
C6
C6
C6
C6
D6
D6
7E
16
16
06
00
00
00
ENDCHAR
STARTCHAR U+004B9
ENCODING 1209
SWIDTH 500 0
DWIDTH 8 0
BBX 8 16 0 0
BITMAP 
00
00
00
00
00
00
C6
C6
D6
D6
7E
16
16
00
00
00
ENDCHAR
STARTCHAR U+004BA
ENCODING 1210
SWIDTH 500 0
DWIDTH 8 0
BBX 8 16 0 0
BITMAP 
00
00
C0
C0
C0
C0
FC
C6
C6
C6
C6
C6
C6
00
00
00
ENDCHAR
STARTCHAR U+004BB
ENCODING 1211
SWIDTH 500 0
DWIDTH 8 0
BBX 8 16 0 0
BITMAP 
00
00
60
60
60
60
7C
66
66
66
66
66
66
00
00
00
ENDCHAR
STARTCHAR U+004BC
ENCODING 1212
SWIDTH 1000 0
DWIDTH 16 0
BBX 16 16 0 0
BITMAP 
0000
0000
6780
CCC0
CCC0
CCC0
7FC0
0C00
0C00
0CC0
0CC0
0CC0
0780
0000
0000
0000
ENDCHAR
STARTCHAR U+004BD
ENCODING 1213
SWIDTH 1000 0
DWIDTH 16 0
BBX 16 16 0 0
BITMAP 
0000
0000
0000
0000
0000
0000
6780
CCC0
CCC0
7FC0
0C00
0C00
0780
0000
0000
0000
ENDCHAR
STARTCHAR U+004BE
ENCODING 1214
SWIDTH 1000 0
DWIDTH 16 0
BBX 16 16 0 0
BITMAP 
0000
0000
6780
CCC0
CCC0
CCC0
7FC0
0C00
0C00
0CC0
0CC0
0CC0
0780
0300
0340
0180
ENDCHAR
STARTCHAR U+004BF
ENCODING 1215
SWIDTH 1000 0
DWIDTH 16 0
BBX 16 16 0 0
BITMAP 
0000
0000
0000
0000
0000
0000
6780
CCC0
CCC0
7FC0
0C00
0C00
0780
0300
0340
0180
ENDCHAR
STARTCHAR U+004C0
ENCODING 1216
SWIDTH 500 0
DWIDTH 8 0
BBX 8 16 0 0
BITMAP 
00
00
3C
18
18
18
18
18
18
18
18
18
3C
00
00
00
ENDCHAR
STARTCHAR U+004C1
ENCODING 1217
SWIDTH 500 0
DWIDTH 8 0
BBX 8 16 0 0
BITMAP 
66
3C
00
DB
DB
DB
DB
7E
3C
3C
7E
5A
DB
DB
00
00
ENDCHAR
STARTCHAR U+004C2
ENCODING 1218
SWIDTH 500 0
DWIDTH 8 0
BBX 8 16 0 0
BITMAP 
00
00
6C
6C
38
00
92
D6
7C
38
7C
D6
92
00
00
00
ENDCHAR
STARTCHAR U+004C3
ENCODING 1219
SWIDTH 500 0
DWIDTH 8 0
BBX 8 16 0 0
BITMAP 
00
00
C6
CE
D8
F8
CC
C6
C6
C6
C6
C6
C6
06
0C
78
ENDCHAR
STARTCHAR U+004C4
ENCODING 1220
SWIDTH 500 0
DWIDTH 8 0
BBX 8 16 0 0
BITMAP 
00
00
00
00
00
00
C6
CE
F8
CC
C6
C6
C6
06
0C
78
ENDCHAR
STARTCHAR U+004C5
ENCODING 1221
SWIDTH 500 0
DWIDTH 8 0
BBX 8 16 0 0
BITMAP 
00
00
7E
66
66
66
66
66
66
66
C6
C6
C6
0C
18
00
ENDCHAR
STARTCHAR U+004C6
ENCODING 1222
SWIDTH 500 0
DWIDTH 8 0
BBX 8 16 0 0
BITMAP 
00
00
00
00
00
00
7E
66
66
66
66
C6
C6
0C
18
00
ENDCHAR
STARTCHAR U+004C7
ENCODING 1223
SWIDTH 500 0
DWIDTH 8 0
BBX 8 16 0 0
BITMAP 
00
00
66
66
66
66
66
66
7E
66
66
66
66
06
06
3C
ENDCHAR
STARTCHAR U+004C8
ENCODING 1224
SWIDTH 500 0
DWIDTH 8 0
BBX 8 16 0 0
BITMAP 
00
00
00
00
00
00
66
66
66
7E
66
66
66
06
06
3C
ENDCHAR
STARTCHAR U+004C9
ENCODING 1225
SWIDTH 500 0
DWIDTH 8 0
BBX 8 16 0 0
BITMAP 
00
00
CC
CC
CC
CC
CC
CC
FC
CC
CC
CC
CE
0C
18
00
ENDCHAR
STARTCHAR U+004CA
ENCODING 1226
SWIDTH 500 0
DWIDTH 8 0
BBX 8 16 0 0
BITMAP 
00
00
00
00
00
00
CC
CC
CC
FC
CC
CC
CE
0C
18
00
ENDCHAR
STARTCHAR U+004CB
ENCODING 1227
SWIDTH 500 0
DWIDTH 8 0
BBX 8 16 0 0
BITMAP 
00
00
66
66
66
66
66
66
66
3E
06
06
0E
0C
0C
00
ENDCHAR
STARTCHAR U+004CC
ENCODING 1228
SWIDTH 500 0
DWIDTH 8 0
BBX 8 16 0 0
BITMAP 
00
00
00
00
00
00
66
66
66
66
3E
06
0E
0C
0C
00
ENDCHAR
STARTCHAR U+004CD
ENCODING 1229
SWIDTH 500 0
DWIDTH 8 0
BBX 8 16 0 0
BITMAP 
00
00
C6
C6
C6
C6
EE
D6
D6
D6
C6
C6
C6
0C
18
00
ENDCHAR
STARTCHAR U+004CE
ENCODING 1230
SWIDTH 500 0
DWIDTH 8 0
BBX 8 16 0 0
BITMAP 
00
00
00
00
00
00
C6
EE
D6
D6
C6
C6
C6
0C
18
00
ENDCHAR
STARTCHAR U+004D0
ENCODING 1232
SWIDTH 500 0
DWIDTH 8 0
BBX 8 16 0 0
BITMAP 
66
3C
00
18
3C
66
66
66
66
7E
66
66
66
66
00
00
ENDCHAR
STARTCHAR U+004D1
ENCODING 1233
SWIDTH 500 0
DWIDTH 8 0
BBX 8 16 0 0
BITMAP 
00
00
66
66
3C
00
3C
06
06
3E
66
66
3E
00
00
00
ENDCHAR
STARTCHAR U+004D2
ENCODING 1234
SWIDTH 500 0
DWIDTH 8 0
BBX 8 16 0 0
BITMAP 
66
66
00
18
3C
66
66
66
66
7E
66
66
66
66
00
00
ENDCHAR
STARTCHAR U+004D3
ENCODING 1235
SWIDTH 500 0
DWIDTH 8 0
BBX 8 16 0 0
BITMAP 
00
00
00
66
66
00
3C
06
06
3E
66
66
3E
00
00
00
ENDCHAR
STARTCHAR U+004D4
ENCODING 1236
SWIDTH 500 0
DWIDTH 8 0
BBX 8 16 0 0
BITMAP 
00
00
3E
78
D8
D8
D8
DE
F8
D8
D8
D8
DE
00
00
00
ENDCHAR
STARTCHAR U+004D5
ENCODING 1237
SWIDTH 500 0
DWIDTH 8 0
BBX 8 16 0 0
BITMAP 
00
00
00
00
00
00
6E
1B
1B
7F
D8
D8
77
00
00
00
ENDCHAR
STARTCHAR U+004D6
ENCODING 1238
SWIDTH 500 0
DWIDTH 8 0
BBX 8 16 0 0
BITMAP 
66
3C
00
7E
60
60
60
60
7C
60
60
60
60
7E
00
00
ENDCHAR
STARTCHAR U+004D7
ENCODING 1239
SWIDTH 500 0
DWIDTH 8 0
BBX 8 16 0 0
BITMAP 
00
00
66
66
3C
00
3C
66
66
7E
60
60
3C
00
00
00
ENDCHAR
STARTCHAR U+004D8
ENCODING 1240
SWIDTH 500 0
DWIDTH 8 0
BBX 8 16 0 0
BITMAP 
00
00
3C
66
66
66
06
06
7E
66
66
66
3C
00
00
00
ENDCHAR
STARTCHAR U+004D9
ENCODING 1241
SWIDTH 500 0
DWIDTH 8 0
BBX 8 16 0 0
BITMAP 
00
00
00
00
00
00
3C
06
06
7E
66
66
3C
00
00
00
ENDCHAR
STARTCHAR U+004DA
ENCODING 1242
SWIDTH 500 0
DWIDTH 8 0
BBX 8 16 0 0
BITMAP 
66
66
00
3C
66
66
66
06
06
7E
66
66
66
3C
00
00
ENDCHAR
STARTCHAR U+004DB
ENCODING 1243
SWIDTH 500 0
DWIDTH 8 0
BBX 8 16 0 0
BITMAP 
00
00
00
66
66
00
3C
06
06
7E
66
66
3C
00
00
00
ENDCHAR
STARTCHAR U+004DC
ENCODING 1244
SWIDTH 500 0
DWIDTH 8 0
BBX 8 16 0 0
BITMAP 
66
66
00
DB
DB
DB
DB
7E
3C
3C
7E
5A
DB
DB
00
00
ENDCHAR
STARTCHAR U+004DD
ENCODING 1245
SWIDTH 500 0
DWIDTH 8 0
BBX 8 16 0 0
BITMAP 
00
00
00
6C
6C
00
92
D6
7C
38
7C
D6
92
00
00
00
ENDCHAR
STARTCHAR U+004DE
ENCODING 1246
SWIDTH 500 0
DWIDTH 8 0
BBX 8 16 0 0
BITMAP 
66
66
00
3C
66
66
66
06
1C
06
66
66
66
3C
00
00
ENDCHAR
STARTCHAR U+004DF
ENCODING 1247
SWIDTH 500 0
DWIDTH 8 0
BBX 8 16 0 0
BITMAP 
00
00
00
66
66
00
3C
66
06
1C
06
66
3C
00
00
00
ENDCHAR
STARTCHAR U+004E0
ENCODING 1248
SWIDTH 500 0
DWIDTH 8 0
BBX 8 16 0 0
BITMAP 
00
00
7E
06
0C
1C
06
06
06
06
06
66
3C
00
00
00
ENDCHAR
STARTCHAR U+004E1
ENCODING 1249
SWIDTH 500 0
DWIDTH 8 0
BBX 8 16 0 0
BITMAP 
00
00
00
00
00
00
7E
06
0C
18
3C
06
06
06
66
3C
ENDCHAR
STARTCHAR U+004E2
ENCODING 1250
SWIDTH 500 0
DWIDTH 8 0
BBX 8 16 0 0
BITMAP 
FE
00
C6
C6
C6
C6
CE
DE
F6
E6
C6
C6
C6
00
00
00
ENDCHAR
STARTCHAR U+004E3
ENCODING 1251
SWIDTH 500 0
DWIDTH 8 0
BBX 8 16 0 0
BITMAP 
00
00
00
00
FE
00
C6
CE
DE
F6
E6
C6
C6
00
00
00
ENDCHAR
STARTCHAR U+004E4
ENCODING 1252
SWIDTH 500 0
DWIDTH 8 0
BBX 8 16 0 0
BITMAP 
C6
C6
00
C6
C6
C6
C6
CE
DE
F6
E6
C6
C6
C6
00
00
ENDCHAR
STARTCHAR U+004E5
ENCODING 1253
SWIDTH 500 0
DWIDTH 8 0
BBX 8 16 0 0
BITMAP 
00
00
00
C6
C6
00
C6
CE
DE
F6
E6
C6
C6
00
00
00
ENDCHAR
STARTCHAR U+004E6
ENCODING 1254
SWIDTH 500 0
DWIDTH 8 0
BBX 8 16 0 0
BITMAP 
66
66
00
3C
66
66
66
66
66
66
66
66
66
3C
00
00
ENDCHAR
STARTCHAR U+004E7
ENCODING 1255
SWIDTH 500 0
DWIDTH 8 0
BBX 8 16 0 0
BITMAP 
00
00
00
66
66
00
3C
66
66
66
66
66
3C
00
00
00
ENDCHAR
STARTCHAR U+004E8
ENCODING 1256
SWIDTH 500 0
DWIDTH 8 0
BBX 8 16 0 0
BITMAP 
00
00
3C
66
66
66
66
7E
66
66
66
66
3C
00
00
00
ENDCHAR
STARTCHAR U+004E9
ENCODING 1257
SWIDTH 500 0
DWIDTH 8 0
BBX 8 16 0 0
BITMAP 
00
00
00
00
00
00
3C
66
66
7E
66
66
3C
00
00
00
ENDCHAR
STARTCHAR U+004EA
ENCODING 1258
SWIDTH 500 0
DWIDTH 8 0
BBX 8 16 0 0
BITMAP 
66
66
00
3C
66
66
66
66
7E
66
66
66
66
3C
00
00
ENDCHAR
STARTCHAR U+004EB
ENCODING 1259
SWIDTH 500 0
DWIDTH 8 0
BBX 8 16 0 0
BITMAP 
00
00
00
66
66
00
3C
66
66
7E
66
66
3C
00
00
00
ENDCHAR
STARTCHAR U+004EC
ENCODING 1260
SWIDTH 500 0
DWIDTH 8 0
BBX 8 16 0 0
BITMAP 
66
66
00
3C
66
66
66
06
3E
06
66
66
66
3C
00
00
ENDCHAR
STARTCHAR U+004ED
ENCODING 1261
SWIDTH 500 0
DWIDTH 8 0
BBX 8 16 0 0
BITMAP 
00
00
00
66
66
00
3C
66
06
3E
06
66
3C
00
00
00
ENDCHAR
STARTCHAR U+004EE
ENCODING 1262
SWIDTH 500 0
DWIDTH 8 0
BBX 8 16 0 0
BITMAP 
7E
00
66
66
66
66
66
66
66
3C
0C
18
70
00
00
00
ENDCHAR
STARTCHAR U+004EF
ENCODING 1263
SWIDTH 500 0
DWIDTH 8 0
BBX 8 16 0 0
BITMAP 
00
00
00
00
7E
00
66
66
66
66
66
66
3C
0C
18
F0
ENDCHAR
STARTCHAR U+004F0
ENCODING 1264
SWIDTH 500 0
DWIDTH 8 0
BBX 8 16 0 0
BITMAP 
66
66
00
66
66
66
66
66
66
66
3C
0C
18
70
00
00
ENDCHAR
STARTCHAR U+004F1
ENCODING 1265
SWIDTH 500 0
DWIDTH 8 0
BBX 8 16 0 0
BITMAP 
00
00
00
66
66
00
66
66
66
66
66
66
3C
0C
18
F0
ENDCHAR
STARTCHAR U+004F2
ENCODING 1266
SWIDTH 500 0
DWIDTH 8 0
BBX 8 16 0 0
BITMAP 
36
6C
00
CC
CC
CC
CC
CC
CC
CC
78
18
30
E0
00
00
ENDCHAR
STARTCHAR U+004F3
ENCODING 1267
SWIDTH 1000 0
DWIDTH 16 0
BBX 16 16 0 0
BITMAP 
0000
0000
3B80
3300
6600
0000
6600
6600
6600
6600
6600
6600
3C00
0C00
1800
F000
ENDCHAR
STARTCHAR U+004F4
ENCODING 1268
SWIDTH 500 0
DWIDTH 8 0
BBX 8 16 0 0
BITMAP 
66
66
00
66
66
66
66
66
66
66
3E
06
06
06
00
00
ENDCHAR
STARTCHAR U+004F5
ENCODING 1269
SWIDTH 500 0
DWIDTH 8 0
BBX 8 16 0 0
BITMAP 
00
00
00
66
66
00
66
66
66
66
3E
06
06
00
00
00
ENDCHAR
STARTCHAR U+004F8
ENCODING 1272
SWIDTH 500 0
DWIDTH 8 0
BBX 8 16 0 0
BITMAP 
6C
6C
00
C6
C6
C6
C6
C6
C6
F6
DE
DE
DE
F6
00
00
ENDCHAR
STARTCHAR U+004F9
ENCODING 1273
SWIDTH 500 0
DWIDTH 8 0
BBX 8 16 0 0
BITMAP 
00
00
00
6C
6C
00
C6
C6
C6
F6
DE
DE
F6
00
00
00
ENDCHAR
STARTCHAR U+00500
ENCODING 1280
SWIDTH 500 0
DWIDTH 8 0
BBX 8 16 0 0
BITMAP 
00
00
06
06
06
06
7E
C6
C6
C6
C6
C6
7E
00
00
00
ENDCHAR
STARTCHAR U+00501
ENCODING 1281
SWIDTH 500 0
DWIDTH 8 0
BBX 8 16 0 0
BITMAP 
00
00
06
06
06
06
3E
66
66
66
66
66
3E
00
00
00
ENDCHAR
STARTCHAR U+00502
ENCODING 1282
SWIDTH 1000 0
DWIDTH 16 0
BBX 16 16 0 0
BITMAP 
0000
0000
0600
0600
0600
0600
7E00
C660
C660
C660
C660
C660
7FC0
0000
0000
0000
ENDCHAR
STARTCHAR U+00503
ENCODING 1283
SWIDTH 1000 0
DWIDTH 16 0
BBX 16 16 0 0
BITMAP 
0000
0000
0C00
0C00
0C00
0C00
7C00
CC00
CC00
CCC0
CCC0
CCC0
7F80
0000
0000
0000
ENDCHAR
STARTCHAR U+00504
ENCODING 1284
SWIDTH 1000 0
DWIDTH 16 0
BBX 16 16 0 0
BITMAP 
0000
0000
7800
CC00
0C00
0CC0
78C0
18C0
0CC0
0CC0
0CC0
0CC0
0780
0000
0000
0000
ENDCHAR
STARTCHAR U+00505
ENCODING 1285
SWIDTH 1000 0
DWIDTH 16 0
BBX 16 16 0 0
BITMAP 
0000
0000
0000
0000
0000
0000
7800
CC00
0C00
78C0
18C0
0CC0
0780
0000
0000
0000
ENDCHAR
STARTCHAR U+00506
ENCODING 1286
SWIDTH 500 0
DWIDTH 8 0
BBX 8 16 0 0
BITMAP 
00
00
78
CC
0C
0C
0C
78
18
0C
0C
0C
0E
06
06
00
ENDCHAR
STARTCHAR U+00507
ENCODING 1287
SWIDTH 500 0
DWIDTH 8 0
BBX 8 16 0 0
BITMAP 
00
00
00
00
00
00
78
CC
0C
78
18
0C
0E
06
06
00
ENDCHAR
STARTCHAR U+00508
ENCODING 1288
SWIDTH 1000 0
DWIDTH 16 0
BBX 16 16 0 0
BITMAP 
0000
0000
7E00
6600
6600
6600
6660
6660
6660
6660
6660
6660
C3C0
0000
0000
0000
ENDCHAR
STARTCHAR U+00509
ENCODING 1289
SWIDTH 1000 0
DWIDTH 16 0
BBX 16 16 0 0
BITMAP 
0000
0000
0000
0000
0000
0000
7E00
6600
6600
6660
6660
6660
C3C0
0000
0000
0000
ENDCHAR
STARTCHAR U+0050A
ENCODING 1290
SWIDTH 1000 0
DWIDTH 16 0
BBX 16 16 0 0
BITMAP 
0000
0000
CC00
CC00
CC00
CC00
CC00
CCC0
FCC0
CCC0
CCC0
CCC0
C780
0000
0000
0000
ENDCHAR
STARTCHAR U+0050B
ENCODING 1291
SWIDTH 1000 0
DWIDTH 16 0
BBX 16 16 0 0
BITMAP 
0000
0000
0000
0000
0000
0000
CC00
CC00
CC00
FCC0
CCC0
CCC0
C780
0000
0000
0000
ENDCHAR
STARTCHAR U+0050C
ENCODING 1292
SWIDTH 500 0
DWIDTH 8 0
BBX 8 16 0 0
BITMAP 
00
00
3C
66
66
66
60
6E
66
66
66
66
3C
00
00
00
ENDCHAR
STARTCHAR U+0050D
ENCODING 1293
SWIDTH 500 0
DWIDTH 8 0
BBX 8 16 0 0
BITMAP 
00
00
00
00
00
00
3C
66
60
6E
66
66
3C
00
00
00
ENDCHAR
STARTCHAR U+0050E
ENCODING 1294
SWIDTH 500 0
DWIDTH 8 0
BBX 8 16 0 0
BITMAP 
00
00
FE
30
30
30
33
33
33
33
33
33
1E
00
00
00
ENDCHAR
STARTCHAR U+0050F
ENCODING 1295
SWIDTH 500 0
DWIDTH 8 0
BBX 8 16 0 0
BITMAP 
00
00
00
00
00
00
FE
30
30
33
33
33
1E
00
00
00
ENDCHAR
STARTCHAR U+00531
ENCODING 1329
SWIDTH 500 0
DWIDTH 8 0
BBX 8 16 0 0
BITMAP 
00
00
CC
CC
CC
CC
CC
CC
CC
CC
CC
CE
7A
00
00
00
ENDCHAR
STARTCHAR U+00532
ENCODING 1330
SWIDTH 500 0
DWIDTH 8 0
BBX 8 16 0 0
BITMAP 
00
00
3C
66
66
66
60
7E
60
60
60
60
60
00
00
00
ENDCHAR
STARTCHAR U+00533
ENCODING 1331
SWIDTH 500 0
DWIDTH 8 0
BBX 8 16 0 0
BITMAP 
00
00
78
CC
CC
CC
CC
7E
0C
0C
0C
0C
0C
00
00
00
ENDCHAR
STARTCHAR U+00534
ENCODING 1332
SWIDTH 500 0
DWIDTH 8 0
BBX 8 16 0 0
BITMAP 
00
00
78
CC
CC
CC
0C
0F
0C
0C
0C
0C
0C
00
00
00
ENDCHAR
STARTCHAR U+00535
ENCODING 1333
SWIDTH 500 0
DWIDTH 8 0
BBX 8 16 0 0
BITMAP 
00
00
60
60
60
60
60
7E
60
66
66
66
3C
00
00
00
ENDCHAR
STARTCHAR U+00536
ENCODING 1334
SWIDTH 500 0
DWIDTH 8 0
BBX 8 16 0 0
BITMAP 
00
00
78
CC
CC
CC
CC
CC
CC
7C
0C
D8
FC
C6
00
00
ENDCHAR
STARTCHAR U+00537
ENCODING 1335
SWIDTH 500 0
DWIDTH 8 0
BBX 8 16 0 0
BITMAP 
00
00
60
60
60
60
60
7E
60
60
60
60
7C
06
00
00
ENDCHAR
STARTCHAR U+00538
ENCODING 1336
SWIDTH 500 0
DWIDTH 8 0
BBX 8 16 0 0
BITMAP 
00
00
3C
66
66
66
60
60
60
60
60
60
7E
00
00
00
ENDCHAR
STARTCHAR U+00539
ENCODING 1337
SWIDTH 500 0
DWIDTH 8 0
BBX 8 16 0 0
BITMAP 
00
00
78
CC
CC
CC
FE
EC
EC
F8
C0
C0
C0
00
00
00
ENDCHAR
STARTCHAR U+0053A
ENCODING 1338
SWIDTH 500 0
DWIDTH 8 0
BBX 8 16 0 0
BITMAP 
00
00
0C
0C
0C
0C
0C
7E
CC
CC
CC
CC
78
00
00
00
ENDCHAR
STARTCHAR U+0053B
ENCODING 1339
SWIDTH 500 0
DWIDTH 8 0
BBX 8 16 0 0
BITMAP 
00
00
60
60
60
60
60
7C
66
66
60
60
60
00
00
00
ENDCHAR
STARTCHAR U+0053C
ENCODING 1340
SWIDTH 500 0
DWIDTH 8 0
BBX 8 16 0 0
BITMAP 
00
00
30
30
30
30
30
30
30
30
30
30
3E
00
00
00
ENDCHAR
STARTCHAR U+0053D
ENCODING 1341
SWIDTH 500 0
DWIDTH 8 0
BBX 8 16 0 0
BITMAP 
00
00
C0
C0
C0
C0
F6
D6
D6
CC
C0
C0
C0
00
00
00
ENDCHAR
STARTCHAR U+0053E
ENCODING 1342
SWIDTH 500 0
DWIDTH 8 0
BBX 8 16 0 0
BITMAP 
00
00
C0
FE
4C
CC
CC
CC
CC
CC
CC
CC
78
00
00
00
ENDCHAR
STARTCHAR U+0053F
ENCODING 1343
SWIDTH 500 0
DWIDTH 8 0
BBX 8 16 0 0
BITMAP 
00
00
60
60
60
60
66
66
66
3E
06
06
06
00
00
00
ENDCHAR
STARTCHAR U+00540
ENCODING 1344
SWIDTH 500 0
DWIDTH 8 0
BBX 8 16 0 0
BITMAP 
00
00
18
0C
06
06
06
06
0C
18
30
60
7E
00
00
00
ENDCHAR
STARTCHAR U+00541
ENCODING 1345
SWIDTH 500 0
DWIDTH 8 0
BBX 8 16 0 0
BITMAP 
00
00
78
CC
CC
CC
0C
0C
0C
0C
78
DC
76
00
00
00
ENDCHAR
STARTCHAR U+00542
ENCODING 1346
SWIDTH 500 0
DWIDTH 8 0
BBX 8 16 0 0
BITMAP 
00
00
78
CC
CC
CC
0C
0C
0C
0C
0C
0C
0E
00
00
00
ENDCHAR
STARTCHAR U+00543
ENCODING 1347
SWIDTH 500 0
DWIDTH 8 0
BBX 8 16 0 0
BITMAP 
00
00
06
06
06
06
7C
18
3C
66
66
66
7E
00
00
00
ENDCHAR
STARTCHAR U+00544
ENCODING 1348
SWIDTH 500 0
DWIDTH 8 0
BBX 8 16 0 0
BITMAP 
00
00
CE
CC
CC
CC
CC
CC
CC
CC
CC
CC
78
00
00
00
ENDCHAR
STARTCHAR U+00545
ENCODING 1349
SWIDTH 500 0
DWIDTH 8 0
BBX 8 16 0 0
BITMAP 
00
00
3C
66
66
66
06
7C
06
66
66
66
3C
00
00
00
ENDCHAR
STARTCHAR U+00546
ENCODING 1350
SWIDTH 500 0
DWIDTH 8 0
BBX 8 16 0 0
BITMAP 
00
00
E0
60
60
60
66
66
66
66
66
66
3C
00
00
00
ENDCHAR
STARTCHAR U+00547
ENCODING 1351
SWIDTH 500 0
DWIDTH 8 0
BBX 8 16 0 0
BITMAP 
00
00
70
9E
30
60
60
60
60
66
66
66
3C
00
00
00
ENDCHAR
STARTCHAR U+00548
ENCODING 1352
SWIDTH 500 0
DWIDTH 8 0
BBX 8 16 0 0
BITMAP 
00
00
3C
66
66
66
66
66
66
66
66
66
66
00
00
00
ENDCHAR
STARTCHAR U+00549
ENCODING 1353
SWIDTH 500 0
DWIDTH 8 0
BBX 8 16 0 0
BITMAP 
00
00
3C
66
66
66
06
06
06
06
6C
78
0E
06
00
00
ENDCHAR
STARTCHAR U+0054A
ENCODING 1354
SWIDTH 500 0
DWIDTH 8 0
BBX 8 16 0 0
BITMAP 
00
00
7C
D6
D6
D6
D6
D6
D6
16
06
06
06
00
00
00
ENDCHAR
STARTCHAR U+0054B
ENCODING 1355
SWIDTH 500 0
DWIDTH 8 0
BBX 8 16 0 0
BITMAP 
00
00
78
CC
CC
CC
CC
4C
2C
1C
0C
D8
FC
C6
00
00
ENDCHAR
STARTCHAR U+0054C
ENCODING 1356
SWIDTH 500 0
DWIDTH 8 0
BBX 8 16 0 0
BITMAP 
00
00
78
CC
CC
CC
CC
CE
CC
CC
CC
CC
CC
00
00
00
ENDCHAR
STARTCHAR U+0054D
ENCODING 1357
SWIDTH 500 0
DWIDTH 8 0
BBX 8 16 0 0
BITMAP 
00
00
66
66
66
66
66
66
66
66
66
66
3C
00
00
00
ENDCHAR
STARTCHAR U+0054E
ENCODING 1358
SWIDTH 500 0
DWIDTH 8 0
BBX 8 16 0 0
BITMAP 
00
00
0C
0C
0C
0C
CC
CC
CC
7C
0C
0C
0E
00
00
00
ENDCHAR
STARTCHAR U+0054F
ENCODING 1359
SWIDTH 500 0
DWIDTH 8 0
BBX 8 16 0 0
BITMAP 
00
00
3C
66
66
66
60
3C
06
66
66
66
3C
00
00
00
ENDCHAR
STARTCHAR U+00550
ENCODING 1360
SWIDTH 500 0
DWIDTH 8 0
BBX 8 16 0 0
BITMAP 
00
00
3C
66
66
66
60
60
60
60
60
60
60
00
00
00
ENDCHAR
STARTCHAR U+00551
ENCODING 1361
SWIDTH 500 0
DWIDTH 8 0
BBX 8 16 0 0
BITMAP 
00
00
3C
66
66
66
3C
66
06
66
66
66
3C
00
00
00
ENDCHAR
STARTCHAR U+00552
ENCODING 1362
SWIDTH 500 0
DWIDTH 8 0
BBX 8 16 0 0
BITMAP 
00
00
60
60
60
60
78
6C
6C
66
60
60
60
00
00
00
ENDCHAR
STARTCHAR U+00553
ENCODING 1363
SWIDTH 500 0
DWIDTH 8 0
BBX 8 16 0 0
BITMAP 
00
00
10
7C
D6
D6
D6
D6
D6
D6
D6
7C
10
00
00
00
ENDCHAR
STARTCHAR U+00554
ENCODING 1364
SWIDTH 500 0
DWIDTH 8 0
BBX 8 16 0 0
BITMAP 
00
00
3C
66
66
66
66
7C
60
FC
60
60
60
00
00
00
ENDCHAR
STARTCHAR U+00555
ENCODING 1365
SWIDTH 500 0
DWIDTH 8 0
BBX 8 16 0 0
BITMAP 
00
00
3C
66
66
66
66
66
66
66
66
66
3C
00
00
00
ENDCHAR
STARTCHAR U+00556
ENCODING 1366
SWIDTH 500 0
DWIDTH 8 0
BBX 8 16 0 0
BITMAP 
00
00
70
D0
D0
D0
7C
16
16
D6
D6
D6
7C
00
00
00
ENDCHAR
STARTCHAR U+00559
ENCODING 1369
SWIDTH 500 0
DWIDTH 8 0
BBX 8 16 0 0
BITMAP 
00
00
00
1C
30
30
1C
00
00
00
00
00
00
00
00
00
ENDCHAR
STARTCHAR U+0055A
ENCODING 1370
SWIDTH 500 0
DWIDTH 8 0
BBX 8 16 0 0
BITMAP 
00
00
00
38
0C
0C
38
00
00
00
00
00
00
00
00
00
ENDCHAR
STARTCHAR U+0055B
ENCODING 1371
SWIDTH 500 0
DWIDTH 8 0
BBX 8 16 0 0
BITMAP 
00
00
70
60
C0
00
00
00
00
00
00
00
00
00
00
00
ENDCHAR
STARTCHAR U+0055C
ENCODING 1372
SWIDTH 500 0
DWIDTH 8 0
BBX 8 16 0 0
BITMAP 
00
00
0C
78
C0
00
00
00
00
00
00
00
00
00
00
00
ENDCHAR
STARTCHAR U+0055D
ENCODING 1373
SWIDTH 500 0
DWIDTH 8 0
BBX 8 16 0 0
BITMAP 
00
00
00
38
18
0C
00
00
00
00
00
00
00
00
00
00
ENDCHAR
STARTCHAR U+0055E
ENCODING 1374
SWIDTH 500 0
DWIDTH 8 0
BBX 8 16 0 0
BITMAP 
00
00
70
98
B0
00
00
00
00
00
00
00
00
00
00
00
ENDCHAR
STARTCHAR U+0055F
ENCODING 1375
SWIDTH 500 0
DWIDTH 8 0
BBX 8 16 0 0
BITMAP 
00
00
00
18
30
7E
00
00
00
00
00
00
00
00
00
00
ENDCHAR
STARTCHAR U+00561
ENCODING 1377
SWIDTH 500 0
DWIDTH 8 0
BBX 8 16 0 0
BITMAP 
00
00
00
00
00
00
D6
D6
D6
D6
D6
D6
7E
00
00
00
ENDCHAR
STARTCHAR U+00562
ENCODING 1378
SWIDTH 500 0
DWIDTH 8 0
BBX 8 16 0 0
BITMAP 
00
00
00
00
00
00
7C
66
66
66
60
7E
60
60
60
60
ENDCHAR
STARTCHAR U+00563
ENCODING 1379
SWIDTH 500 0
DWIDTH 8 0
BBX 8 16 0 0
BITMAP 
00
00
00
00
00
00
7C
CC
CC
CC
CC
CC
7E
0C
0C
0C
ENDCHAR
STARTCHAR U+00564
ENCODING 1380
SWIDTH 500 0
DWIDTH 8 0
BBX 8 16 0 0
BITMAP 
00
00
00
00
00
00
F8
CC
CC
CC
CC
CC
CE
0C
0C
0C
ENDCHAR
STARTCHAR U+00565
ENCODING 1381
SWIDTH 500 0
DWIDTH 8 0
BBX 8 16 0 0
BITMAP 
00
00
60
60
60
60
7E
60
60
60
66
66
3E
00
00
00
ENDCHAR
STARTCHAR U+00566
ENCODING 1382
SWIDTH 500 0
DWIDTH 8 0
BBX 8 16 0 0
BITMAP 
00
00
00
00
00
00
7C
CC
CC
CC
CC
CC
7C
0C
0C
0E
ENDCHAR
STARTCHAR U+00567
ENCODING 1383
SWIDTH 500 0
DWIDTH 8 0
BBX 8 16 0 0
BITMAP 
00
00
30
30
30
30
3E
30
30
30
30
30
3C
00
00
00
ENDCHAR
STARTCHAR U+00568
ENCODING 1384
SWIDTH 500 0
DWIDTH 8 0
BBX 8 16 0 0
BITMAP 
00
00
00
00
00
00
7C
66
66
66
66
66
66
60
60
7E
ENDCHAR
STARTCHAR U+00569
ENCODING 1385
SWIDTH 500 0
DWIDTH 8 0
BBX 8 16 0 0
BITMAP 
00
00
00
00
00
00
F8
CC
CC
FE
CC
CC
F8
C0
C0
C0
ENDCHAR
STARTCHAR U+0056A
ENCODING 1386
SWIDTH 500 0
DWIDTH 8 0
BBX 8 16 0 0
BITMAP 
00
00
0C
0C
0C
0C
7E
CC
CC
CC
CC
CC
78
00
00
00
ENDCHAR
STARTCHAR U+0056B
ENCODING 1387
SWIDTH 500 0
DWIDTH 8 0
BBX 8 16 0 0
BITMAP 
00
00
60
60
60
60
7C
66
66
66
66
66
66
60
60
60
ENDCHAR
STARTCHAR U+0056C
ENCODING 1388
SWIDTH 500 0
DWIDTH 8 0
BBX 8 16 0 0
BITMAP 
00
00
00
00
00
00
70
30
30
30
30
30
30
30
30
3E
ENDCHAR
STARTCHAR U+0056D
ENCODING 1389
SWIDTH 500 0
DWIDTH 8 0
BBX 8 16 0 0
BITMAP 
00
00
C0
C0
C0
C0
F6
D6
D6
D6
D6
D6
CE
C0
C0
C0
ENDCHAR
STARTCHAR U+0056E
ENCODING 1390
SWIDTH 500 0
DWIDTH 8 0
BBX 8 16 0 0
BITMAP 
00
00
F8
60
30
7E
CC
CC
CC
CC
CC
CC
78
00
00
00
ENDCHAR
STARTCHAR U+0056F
ENCODING 1391
SWIDTH 500 0
DWIDTH 8 0
BBX 8 16 0 0
BITMAP 
00
00
60
60
60
60
66
66
66
66
66
66
3E
06
06
06
ENDCHAR
STARTCHAR U+00570
ENCODING 1392
SWIDTH 500 0
DWIDTH 8 0
BBX 8 16 0 0
BITMAP 
00
00
60
60
60
60
7C
66
66
66
66
66
66
00
00
00
ENDCHAR
STARTCHAR U+00571
ENCODING 1393
SWIDTH 500 0
DWIDTH 8 0
BBX 8 16 0 0
BITMAP 
00
00
18
0C
18
3C
66
66
66
66
66
66
3E
00
00
00
ENDCHAR
STARTCHAR U+00572
ENCODING 1394
SWIDTH 500 0
DWIDTH 8 0
BBX 8 16 0 0
BITMAP 
00
00
00
00
00
00
F8
CC
CC
CC
CC
CC
CC
0C
0C
0E
ENDCHAR
STARTCHAR U+00573
ENCODING 1395
SWIDTH 500 0
DWIDTH 8 0
BBX 8 16 0 0
BITMAP 
00
00
06
18
F0
3C
66
66
66
66
66
66
3E
00
00
00
ENDCHAR
STARTCHAR U+00574
ENCODING 1396
SWIDTH 500 0
DWIDTH 8 0
BBX 8 16 0 0
BITMAP 
00
00
06
0C
CC
CC
CC
CC
CC
CC
CC
CC
7C
00
00
00
ENDCHAR
STARTCHAR U+00575
ENCODING 1397
SWIDTH 500 0
DWIDTH 8 0
BBX 8 16 0 0
BITMAP 
00
00
00
00
00
00
3C
0C
0C
0C
0C
0C
0C
0C
0C
78
ENDCHAR
STARTCHAR U+00576
ENCODING 1398
SWIDTH 500 0
DWIDTH 8 0
BBX 8 16 0 0
BITMAP 
00
00
38
60
66
66
66
66
66
66
66
66
3E
00
00
00
ENDCHAR
STARTCHAR U+00577
ENCODING 1399
SWIDTH 500 0
DWIDTH 8 0
BBX 8 16 0 0
BITMAP 
00
00
00
00
00
00
3C
66
66
06
0C
18
30
60
60
3E
ENDCHAR
STARTCHAR U+00578
ENCODING 1400
SWIDTH 500 0
DWIDTH 8 0
BBX 8 16 0 0
BITMAP 
00
00
00
00
00
00
7C
66
66
66
66
66
66
00
00
00
ENDCHAR
STARTCHAR U+00579
ENCODING 1401
SWIDTH 500 0
DWIDTH 8 0
BBX 8 16 0 0
BITMAP 
00
00
00
00
00
00
18
30
18
0C
0C
18
30
60
60
3E
ENDCHAR
STARTCHAR U+0057A
ENCODING 1402
SWIDTH 500 0
DWIDTH 8 0
BBX 8 16 0 0
BITMAP 
00
00
00
00
00
00
D6
D6
D6
D6
D6
D6
7E
06
06
06
ENDCHAR
STARTCHAR U+0057B
ENCODING 1403
SWIDTH 500 0
DWIDTH 8 0
BBX 8 16 0 0
BITMAP 
00
00
00
00
00
00
3C
66
66
66
3C
18
30
60
60
3E
ENDCHAR
STARTCHAR U+0057C
ENCODING 1404
SWIDTH 500 0
DWIDTH 8 0
BBX 8 16 0 0
BITMAP 
00
00
00
00
00
00
F8
CC
CC
CC
CC
C8
DE
00
00
00
ENDCHAR
STARTCHAR U+0057D
ENCODING 1405
SWIDTH 500 0
DWIDTH 8 0
BBX 8 16 0 0
BITMAP 
00
00
00
00
00
00
66
66
66
66
66
66
3E
00
00
00
ENDCHAR
STARTCHAR U+0057E
ENCODING 1406
SWIDTH 500 0
DWIDTH 8 0
BBX 8 16 0 0
BITMAP 
00
00
0C
0C
0C
0C
CC
CC
CC
CC
CC
CC
7C
0C
0C
0E
ENDCHAR
STARTCHAR U+0057F
ENCODING 1407
SWIDTH 500 0
DWIDTH 8 0
BBX 8 16 0 0
BITMAP 
00
00
00
00
00
00
DC
D6
D6
D6
D6
D6
76
00
00
00
ENDCHAR
STARTCHAR U+00580
ENCODING 1408
SWIDTH 500 0
DWIDTH 8 0
BBX 8 16 0 0
BITMAP 
00
00
00
00
00
00
7C
66
66
66
66
66
66
60
60
60
ENDCHAR
STARTCHAR U+00581
ENCODING 1409
SWIDTH 500 0
DWIDTH 8 0
BBX 8 16 0 0
BITMAP 
00
00
00
00
00
00
3E
66
66
66
66
66
3E
06
66
3C
ENDCHAR
STARTCHAR U+00582
ENCODING 1410
SWIDTH 500 0
DWIDTH 8 0
BBX 8 16 0 0
BITMAP 
00
00
00
00
00
00
70
30
30
30
30
30
3E
00
00
00
ENDCHAR
STARTCHAR U+00583
ENCODING 1411
SWIDTH 500 0
DWIDTH 8 0
BBX 8 16 0 0
BITMAP 
00
00
10
10
10
10
DC
D6
D6
D6
D6
D6
76
10
10
10
ENDCHAR
STARTCHAR U+00584
ENCODING 1412
SWIDTH 500 0
DWIDTH 8 0
BBX 8 16 0 0
BITMAP 
00
00
00
00
00
00
7C
66
66
66
66
7C
60
FE
60
60
ENDCHAR
STARTCHAR U+00585
ENCODING 1413
SWIDTH 500 0
DWIDTH 8 0
BBX 8 16 0 0
BITMAP 
00
00
00
00
00
00
3C
66
66
66
66
66
3C
00
00
00
ENDCHAR
STARTCHAR U+00586
ENCODING 1414
SWIDTH 500 0
DWIDTH 8 0
BBX 8 16 0 0
BITMAP 
00
00
70
D0
D0
D0
78
3C
16
D6
D6
D6
7C
10
10
10
ENDCHAR
STARTCHAR U+00587
ENCODING 1415
SWIDTH 500 0
DWIDTH 8 0
BBX 8 16 0 0
BITMAP 
00
00
C0
C0
C0
C0
CC
CC
CC
CC
CC
CC
7E
00
00
00
ENDCHAR
STARTCHAR U+00589
ENCODING 1417
SWIDTH 500 0
DWIDTH 8 0
BBX 8 16 0 0
BITMAP 
00
00
00
00
00
00
1C
1C
00
00
00
1C
1C
00
00
00
ENDCHAR
STARTCHAR U+0058A
ENCODING 1418
SWIDTH 500 0
DWIDTH 8 0
BBX 8 16 0 0
BITMAP 
00
00
00
00
00
00
00
00
66
3C
00
00
00
00
00
00
ENDCHAR
STARTCHAR U+005D0
ENCODING 1488
SWIDTH 500 0
DWIDTH 8 0
BBX 8 16 0 0
BITMAP 
00
00
00
00
00
00
66
66
36
3C
6C
66
66
00
00
00
ENDCHAR
STARTCHAR U+005D1
ENCODING 1489
SWIDTH 500 0
DWIDTH 8 0
BBX 8 16 0 0
BITMAP 
00
00
00
00
00
00
F8
0C
0C
0C
0C
0C
FE
00
00
00
ENDCHAR
STARTCHAR U+005D2
ENCODING 1490
SWIDTH 500 0
DWIDTH 8 0
BBX 8 16 0 0
BITMAP 
00
00
00
00
00
00
38
0C
0C
0C
0C
1C
76
00
00
00
ENDCHAR
STARTCHAR U+005D3
ENCODING 1491
SWIDTH 500 0
DWIDTH 8 0
BBX 8 16 0 0
BITMAP 
00
00
00
00
00
00
7E
0C
0C
0C
0C
0C
0C
00
00
00
ENDCHAR
STARTCHAR U+005D4
ENCODING 1492
SWIDTH 500 0
DWIDTH 8 0
BBX 8 16 0 0
BITMAP 
00
00
00
00
00
00
7C
06
66
66
66
66
66
00
00
00
ENDCHAR
STARTCHAR U+005D5
ENCODING 1493
SWIDTH 500 0
DWIDTH 8 0
BBX 8 16 0 0
BITMAP 
00
00
00
00
00
00
38
0C
0C
0C
0C
0C
0C
00
00
00
ENDCHAR
STARTCHAR U+005D6
ENCODING 1494
SWIDTH 500 0
DWIDTH 8 0
BBX 8 16 0 0
BITMAP 
00
00
00
00
00
00
7E
0C
18
18
18
18
18
00
00
00
ENDCHAR
STARTCHAR U+005D7
ENCODING 1495
SWIDTH 500 0
DWIDTH 8 0
BBX 8 16 0 0
BITMAP 
00
00
00
00
00
00
7C
66
66
66
66
66
66
00
00
00
ENDCHAR
STARTCHAR U+005D8
ENCODING 1496
SWIDTH 500 0
DWIDTH 8 0
BBX 8 16 0 0
BITMAP 
00
00
00
00
00
00
6C
66
66
66
66
66
3C
00
00
00
ENDCHAR
STARTCHAR U+005D9
ENCODING 1497
SWIDTH 500 0
DWIDTH 8 0
BBX 8 16 0 0
BITMAP 
00
00
00
00
00
00
38
0C
0C
0C
0C
00
00
00
00
00
ENDCHAR
STARTCHAR U+005DA
ENCODING 1498
SWIDTH 500 0
DWIDTH 8 0
BBX 8 16 0 0
BITMAP 
00
00
00
00
00
00
7C
06
06
06
06
06
06
06
06
06
ENDCHAR
STARTCHAR U+005DB
ENCODING 1499
SWIDTH 500 0
DWIDTH 8 0
BBX 8 16 0 0
BITMAP 
00
00
00
00
00
00
7C
06
06
06
06
06
7C
00
00
00
ENDCHAR
STARTCHAR U+005DC
ENCODING 1500
SWIDTH 500 0
DWIDTH 8 0
BBX 8 16 0 0
BITMAP 
00
00
60
60
60
60
7C
06
06
06
0C
18
18
00
00
00
ENDCHAR
STARTCHAR U+005DD
ENCODING 1501
SWIDTH 500 0
DWIDTH 8 0
BBX 8 16 0 0
BITMAP 
00
00
00
00
00
00
7C
66
66
66
66
66
7E
00
00
00
ENDCHAR
STARTCHAR U+005DE
ENCODING 1502
SWIDTH 500 0
DWIDTH 8 0
BBX 8 16 0 0
BITMAP 
00
00
00
00
00
00
7C
66
66
66
66
66
6E
00
00
00
ENDCHAR
STARTCHAR U+005DF
ENCODING 1503
SWIDTH 500 0
DWIDTH 8 0
BBX 8 16 0 0
BITMAP 
00
00
00
00
00
00
38
0C
0C
0C
0C
0C
0C
0C
0C
0C
ENDCHAR
STARTCHAR U+005E0
ENCODING 1504
SWIDTH 500 0
DWIDTH 8 0
BBX 8 16 0 0
BITMAP 
00
00
00
00
00
00
38
0C
0C
0C
0C
0C
3C
00
00
00
ENDCHAR
STARTCHAR U+005E1
ENCODING 1505
SWIDTH 500 0
DWIDTH 8 0
BBX 8 16 0 0
BITMAP 
00
00
00
00
00
00
3C
66
66
66
66
66
3C
00
00
00
ENDCHAR
STARTCHAR U+005E2
ENCODING 1506
SWIDTH 500 0
DWIDTH 8 0
BBX 8 16 0 0
BITMAP 
00
00
00
00
00
00
66
66
66
66
66
66
FC
00
00
00
ENDCHAR
STARTCHAR U+005E3
ENCODING 1507
SWIDTH 500 0
DWIDTH 8 0
BBX 8 16 0 0
BITMAP 
00
00
00
00
00
00
7C
66
66
66
36
06
06
06
06
06
ENDCHAR
STARTCHAR U+005E4
ENCODING 1508
SWIDTH 500 0
DWIDTH 8 0
BBX 8 16 0 0
BITMAP 
00
00
00
00
00
00
7C
66
66
66
36
06
7C
00
00
00
ENDCHAR
STARTCHAR U+005E5
ENCODING 1509
SWIDTH 500 0
DWIDTH 8 0
BBX 8 16 0 0
BITMAP 
00
00
00
00
00
00
66
66
66
66
6C
38
30
30
30
30
ENDCHAR
STARTCHAR U+005E6
ENCODING 1510
SWIDTH 500 0
DWIDTH 8 0
BBX 8 16 0 0
BITMAP 
00
00
00
00
00
00
66
66
66
3C
06
06
7C
00
00
00
ENDCHAR
STARTCHAR U+005E7
ENCODING 1511
SWIDTH 500 0
DWIDTH 8 0
BBX 8 16 0 0
BITMAP 
00
00
00
00
00
00
7C
06
66
66
6C
6C
6C
60
60
60
ENDCHAR
STARTCHAR U+005E8
ENCODING 1512
SWIDTH 500 0
DWIDTH 8 0
BBX 8 16 0 0
BITMAP 
00
00
00
00
00
00
7C
06
06
06
06
06
06
00
00
00
ENDCHAR
STARTCHAR U+005E9
ENCODING 1513
SWIDTH 500 0
DWIDTH 8 0
BBX 8 16 0 0
BITMAP 
00
00
00
00
00
00
D6
D6
D6
D6
D6
E6
7C
00
00
00
ENDCHAR
STARTCHAR U+005EA
ENCODING 1514
SWIDTH 500 0
DWIDTH 8 0
BBX 8 16 0 0
BITMAP 
00
00
00
00
00
00
FC
66
66
66
66
66
C6
00
00
00
ENDCHAR
STARTCHAR U+005F0
ENCODING 1520
SWIDTH 500 0
DWIDTH 8 0
BBX 8 16 0 0
BITMAP 
00
00
00
00
00
00
CC
66
66
66
66
66
66
00
00
00
ENDCHAR
STARTCHAR U+005F1
ENCODING 1521
SWIDTH 500 0
DWIDTH 8 0
BBX 8 16 0 0
BITMAP 
00
00
00
00
00
00
CC
66
66
66
66
06
06
00
00
00
ENDCHAR
STARTCHAR U+005F2
ENCODING 1522
SWIDTH 500 0
DWIDTH 8 0
BBX 8 16 0 0
BITMAP 
00
00
00
00
00
00
CC
66
66
66
66
00
00
00
00
00
ENDCHAR
STARTCHAR U+0060C
ENCODING 1548
SWIDTH 1000 0
DWIDTH 16 0
BBX 16 16 0 0
BITMAP 
0000
0000
0000
0000
0000
0000
0000
0000
0000
0200
0400
0600
0600
0000
0000
0000
ENDCHAR
STARTCHAR U+0060D
ENCODING 1549
SWIDTH 1000 0
DWIDTH 16 0
BBX 16 16 0 0
BITMAP 
0000
0000
0000
0000
0000
0000
0000
0000
0000
0000
0000
0600
0E00
1000
0000
0000
ENDCHAR
STARTCHAR U+0061B
ENCODING 1563
SWIDTH 1000 0
DWIDTH 16 0
BBX 16 16 0 0
BITMAP 
0000
0000
0000
0000
0000
0000
0200
0400
0600
0600
0000
0000
0600
0600
0000
0000
ENDCHAR
STARTCHAR U+0061E
ENCODING 1566
SWIDTH 1000 0
DWIDTH 16 0
BBX 16 16 0 0
BITMAP 
0000
0000
0000
0000
0000
0000
0000
0000
0000
0C00
0C00
0000
3300
3300
0000
0000
ENDCHAR
STARTCHAR U+0061F
ENCODING 1567
SWIDTH 1000 0
DWIDTH 16 0
BBX 16 16 0 0
BITMAP 
0000
0000
0000
0200
0E00
1C00
1000
1800
0C00
0400
0400
0000
0C00
0C00
0000
0000
ENDCHAR
STARTCHAR U+00621
ENCODING 1569
SWIDTH 1000 0
DWIDTH 16 0
BBX 16 16 0 0
BITMAP 
0000
0000
0000
0000
0000
0000
0000
0000
1C00
3E00
2000
7E00
7C00
0000
0000
0000
ENDCHAR
STARTCHAR U+00622
ENCODING 1570
SWIDTH 1000 0
DWIDTH 16 0
BBX 16 16 0 0
BITMAP 
0900
1600
0000
0400
0400
0400
0400
0400
0400
0400
0400
0400
0400
0400
0000
0000
ENDCHAR
STARTCHAR U+00623
ENCODING 1571
SWIDTH 1000 0
DWIDTH 16 0
BBX 16 16 0 0
BITMAP 
0000
0000
0600
0800
0E00
0000
0400
0400
0400
0400
0400
0400
0400
0400
0400
0000
ENDCHAR
STARTCHAR U+00624
ENCODING 1572
SWIDTH 1000 0
DWIDTH 16 0
BBX 16 16 0 0
BITMAP 
0000
0000
0000
0000
0C00
1000
1C00
0000
1C00
3E00
2200
3E00
1E00
0400
1C00
1800
ENDCHAR
STARTCHAR U+00625
ENCODING 1573
SWIDTH 1000 0
DWIDTH 16 0
BBX 16 16 0 0
BITMAP 
0000
0000
0400
0400
0400
0400
0400
0400
0400
0400
0400
0400
0400
0600
0800
0E00
ENDCHAR
STARTCHAR U+00626
ENCODING 1574
SWIDTH 1000 0
DWIDTH 16 0
BBX 16 16 0 0
BITMAP 
0000
0000
0000
0000
0000
0000
6780
8F80
E800
0F00
8780
8080
FF80
7F00
0000
0000
ENDCHAR
STARTCHAR U+00627
ENCODING 1575
SWIDTH 1000 0
DWIDTH 16 0
BBX 16 16 0 0
BITMAP 
0000
0000
0200
0200
0200
0200
0200
0200
0200
0200
0200
0200
0200
0000
0000
0000
ENDCHAR
STARTCHAR U+00628
ENCODING 1576
SWIDTH 1000 0
DWIDTH 16 0
BBX 16 16 0 0
BITMAP 
0000
0000
0000
0000
0000
0000
0000
0000
0000
8080
8080
FF80
7F00
0000
0800
0000
ENDCHAR
STARTCHAR U+00629
ENCODING 1577
SWIDTH 1000 0
DWIDTH 16 0
BBX 16 16 0 0
BITMAP 
0000
0000
0000
0000
0000
1400
0000
1C00
3E00
2200
2200
3E00
1C00
0000
0000
0000
ENDCHAR
STARTCHAR U+0062A
ENCODING 1578
SWIDTH 1000 0
DWIDTH 16 0
BBX 16 16 0 0
BITMAP 
0000
0000
0000
0000
0000
0000
0000
1400
0000
8080
8080
FF80
7F00
0000
0000
0000
ENDCHAR
STARTCHAR U+0062B
ENCODING 1579
SWIDTH 1000 0
DWIDTH 16 0
BBX 16 16 0 0
BITMAP 
0000
0000
0000
0000
0000
0800
0000
1400
0000
8080
8080
FF80
7F00
0000
0000
0000
ENDCHAR
STARTCHAR U+0062C
ENCODING 1580
SWIDTH 1000 0
DWIDTH 16 0
BBX 16 16 0 0
BITMAP 
0000
0000
0000
0000
0000
0000
3C00
6600
0300
3F80
7F00
C000
8800
C000
7F00
3E00
ENDCHAR
STARTCHAR U+0062D
ENCODING 1581
SWIDTH 1000 0
DWIDTH 16 0
BBX 16 16 0 0
BITMAP 
0000
0000
0000
0000
0000
0000
3C00
6600
0300
3F80
7F00
C000
8000
C000
7F00
3E00
ENDCHAR
STARTCHAR U+0062E
ENCODING 1582
SWIDTH 1000 0
DWIDTH 16 0
BBX 16 16 0 0
BITMAP 
0000
0000
0000
0000
0800
0000
3C00
6600
0300
3F80
7F00
C000
8000
C000
7F00
3E00
ENDCHAR
STARTCHAR U+0062F
ENCODING 1583
SWIDTH 1000 0
DWIDTH 16 0
BBX 16 16 0 0
BITMAP 
0000
0000
0000
0000
0000
0000
0000
3000
3800
0C00
0600
7E00
7C00
0000
0000
0000
ENDCHAR
STARTCHAR U+00630
ENCODING 1584
SWIDTH 1000 0
DWIDTH 16 0
BBX 16 16 0 0
BITMAP 
0000
0000
0000
0000
0000
1000
0000
3000
3800
0C00
0600
7E00
7C00
0000
0000
0000
ENDCHAR
STARTCHAR U+00631
ENCODING 1585
SWIDTH 1000 0
DWIDTH 16 0
BBX 16 16 0 0
BITMAP 
0000
0000
0000
0000
0000
0000
0000
0000
0200
0200
0200
0200
0600
0400
1C00
1800
ENDCHAR
STARTCHAR U+00632
ENCODING 1586
SWIDTH 1000 0
DWIDTH 16 0
BBX 16 16 0 0
BITMAP 
0000
0000
0000
0000
0000
0000
0200
0000
0200
0200
0200
0200
0600
0400
1C00
1800
ENDCHAR
STARTCHAR U+00633
ENCODING 1587
SWIDTH 1000 0
DWIDTH 16 0
BBX 16 16 0 0
BITMAP 
0000
0000
0000
0000
0000
0000
0000
0000
0020
1120
1920
0FE0
8EC0
8800
F800
7000
ENDCHAR
STARTCHAR U+00634
ENCODING 1588
SWIDTH 1000 0
DWIDTH 16 0
BBX 16 16 0 0
BITMAP 
0000
0000
0000
0000
0100
0000
0280
0000
0020
1120
1920
0FE0
8EC0
8800
F800
7000
ENDCHAR
STARTCHAR U+00635
ENCODING 1589
SWIDTH 1000 0
DWIDTH 16 0
BBX 16 16 0 0
BITMAP 
0000
0000
0000
0000
0000
0000
0000
01C0
03E0
1620
1C20
0FE0
8FC0
8800
F800
7000
ENDCHAR
STARTCHAR U+00636
ENCODING 1590
SWIDTH 1000 0
DWIDTH 16 0
BBX 16 16 0 0
BITMAP 
0000
0000
0000
0000
0000
0100
0000
01C0
03E0
1620
1C20
0FE0
8FC0
8800
F800
7000
ENDCHAR
STARTCHAR U+00637
ENCODING 1591
SWIDTH 1000 0
DWIDTH 16 0
BBX 16 16 0 0
BITMAP 
0000
0000
2000
2000
2000
2000
2000
2700
2F80
3880
3080
FF80
FF00
0000
0000
0000
ENDCHAR
STARTCHAR U+00638
ENCODING 1592
SWIDTH 1000 0
DWIDTH 16 0
BBX 16 16 0 0
BITMAP 
0000
0000
0000
0000
2000
2400
2000
2700
2F80
3880
3080
FF80
FF00
0000
0000
0000
ENDCHAR
STARTCHAR U+00639
ENCODING 1593
SWIDTH 1000 0
DWIDTH 16 0
BBX 16 16 0 0
BITMAP 
0000
0000
0000
0000
0000
0000
3800
7C00
4000
7C00
3800
6000
4100
6300
7E00
3C00
ENDCHAR
STARTCHAR U+0063A
ENCODING 1594
SWIDTH 1000 0
DWIDTH 16 0
BBX 16 16 0 0
BITMAP 
0000
0000
0000
0000
1000
0000
3800
7C00
4000
7C00
3800
6000
4100
6300
7E00
3C00
ENDCHAR
STARTCHAR U+00640
ENCODING 1600
SWIDTH 1000 0
DWIDTH 16 0
BBX 16 16 0 0
BITMAP 
0000
0000
0000
0000
0000
0000
0000
0000
0000
0000
0000
FFE0
FFE0
0000
0000
0000
ENDCHAR
STARTCHAR U+00641
ENCODING 1601
SWIDTH 1000 0
DWIDTH 16 0
BBX 16 16 0 0
BITMAP 
0000
0000
0000
0000
0000
0000
0200
0000
0700
0F80
0880
0F80
8780
8180
FF00
7E00
ENDCHAR
STARTCHAR U+00642
ENCODING 1602
SWIDTH 1000 0
DWIDTH 16 0
BBX 16 16 0 0
BITMAP 
0000
0000
0000
0000
0000
0000
0500
0000
0700
0F80
0880
4F80
4780
6180
3F00
1E00
ENDCHAR
STARTCHAR U+00643
ENCODING 1603
SWIDTH 1000 0
DWIDTH 16 0
BBX 16 16 0 0
BITMAP 
0000
0000
0000
0000
0100
0900
1100
0900
1100
0100
4100
7F00
3E00
0000
0000
0000
ENDCHAR
STARTCHAR U+00644
ENCODING 1604
SWIDTH 1000 0
DWIDTH 16 0
BBX 16 16 0 0
BITMAP 
0000
0000
0100
0100
0100
0100
0100
0100
0100
0100
0100
4100
4100
6300
3E00
1C00
ENDCHAR
STARTCHAR U+00645
ENCODING 1605
SWIDTH 1000 0
DWIDTH 16 0
BBX 16 16 0 0
BITMAP 
0000
0000
0000
0000
0000
0000
0000
0000
1800
3C00
2600
1E00
3E00
2000
2000
2000
ENDCHAR
STARTCHAR U+00646
ENCODING 1606
SWIDTH 1000 0
DWIDTH 16 0
BBX 16 16 0 0
BITMAP 
0000
0000
0000
0000
0000
0000
0000
0800
0000
8080
8080
8080
C180
7F00
3E00
0000
ENDCHAR
STARTCHAR U+00647
ENCODING 1607
SWIDTH 1000 0
DWIDTH 16 0
BBX 16 16 0 0
BITMAP 
0000
0000
0000
0000
0000
0000
0000
1C00
3E00
2200
2200
3E00
1C00
0000
0000
0000
ENDCHAR
STARTCHAR U+00648
ENCODING 1608
SWIDTH 1000 0
DWIDTH 16 0
BBX 16 16 0 0
BITMAP 
0000
0000
0000
0000
0000
0000
0000
0000
1C00
3E00
2200
3E00
1E00
0400
1C00
1800
ENDCHAR
STARTCHAR U+00649
ENCODING 1609
SWIDTH 1000 0
DWIDTH 16 0
BBX 16 16 0 0
BITMAP 
0000
0000
0000
0000
0000
0000
0780
0F80
0800
0F00
8780
8080
FF80
7F00
0000
0000
ENDCHAR
STARTCHAR U+0064A
ENCODING 1610
SWIDTH 1000 0
DWIDTH 16 0
BBX 16 16 0 0
BITMAP 
0000
0000
0000
0000
0000
0000
0780
0F80
0800
0F00
8780
8080
FF80
7F00
0000
2800
ENDCHAR
STARTCHAR U+00653
ENCODING 1619
SWIDTH 1000 0
DWIDTH 16 0
BBX 16 16 0 0
BITMAP 
0000
0000
1200
2C00
0000
0000
0000
0000
0000
0000
0000
0000
0000
0000
0000
0000
ENDCHAR
STARTCHAR U+00654
ENCODING 1620
SWIDTH 1000 0
DWIDTH 16 0
BBX 16 16 0 0
BITMAP 
0000
0000
0600
0800
0E00
0000
0000
0000
0000
0000
0000
0000
0000
0000
0000
0000
ENDCHAR
STARTCHAR U+00655
ENCODING 1621
SWIDTH 1000 0
DWIDTH 16 0
BBX 16 16 0 0
BITMAP 
0000
0000
0000
0000
0000
0000
0000
0000
0000
0000
0000
0000
0000
0600
0800
0E00
ENDCHAR
STARTCHAR U+00660
ENCODING 1632
SWIDTH 1000 0
DWIDTH 16 0
BBX 16 16 0 0
BITMAP 
0000
0000
0000
0000
0000
0000
0000
0000
0400
0E00
0400
0000
0000
0000
0000
0000
ENDCHAR
STARTCHAR U+00661
ENCODING 1633
SWIDTH 1000 0
DWIDTH 16 0
BBX 16 16 0 0
BITMAP 
0000
0000
0000
0000
0000
0000
0800
0800
0400
0400
0400
0400
0400
0000
0000
0000
ENDCHAR
STARTCHAR U+00662
ENCODING 1634
SWIDTH 1000 0
DWIDTH 16 0
BBX 16 16 0 0
BITMAP 
0000
0000
0000
0000
0000
0000
2200
3E00
1C00
1000
1000
1000
1000
0000
0000
0000
ENDCHAR
STARTCHAR U+00663
ENCODING 1635
SWIDTH 1000 0
DWIDTH 16 0
BBX 16 16 0 0
BITMAP 
0000
0000
0000
0000
0000
0000
2500
3F00
1A00
1000
1000
1000
1000
0000
0000
0000
ENDCHAR
STARTCHAR U+00664
ENCODING 1636
SWIDTH 1000 0
DWIDTH 16 0
BBX 16 16 0 0
BITMAP 
0000
0000
0000
0000
0000
0000
1E00
3E00
2000
1C00
2000
3E00
1E00
0000
0000
0000
ENDCHAR
STARTCHAR U+00665
ENCODING 1637
SWIDTH 1000 0
DWIDTH 16 0
BBX 16 16 0 0
BITMAP 
0000
0000
0000
0000
0000
0000
0800
1C00
3600
2200
2200
3E00
1C00
0000
0000
0000
ENDCHAR
STARTCHAR U+00666
ENCODING 1638
SWIDTH 1000 0
DWIDTH 16 0
BBX 16 16 0 0
BITMAP 
0000
0000
0000
0000
0000
0000
2200
3E00
1E00
0200
0200
0200
0200
0000
0000
0000
ENDCHAR
STARTCHAR U+00667
ENCODING 1639
SWIDTH 1000 0
DWIDTH 16 0
BBX 16 16 0 0
BITMAP 
0000
0000
0000
0000
0000
0000
2200
2200
3600
1C00
1C00
0800
0800
0000
0000
0000
ENDCHAR
STARTCHAR U+00668
ENCODING 1640
SWIDTH 1000 0
DWIDTH 16 0
BBX 16 16 0 0
BITMAP 
0000
0000
0000
0000
0000
0000
0800
0800
1C00
1C00
3600
2200
2200
0000
0000
0000
ENDCHAR
STARTCHAR U+00669
ENCODING 1641
SWIDTH 1000 0
DWIDTH 16 0
BBX 16 16 0 0
BITMAP 
0000
0000
0000
0000
0000
0000
1C00
3E00
2200
3E00
1E00
0200
0200
0000
0000
0000
ENDCHAR
STARTCHAR U+0066A
ENCODING 1642
SWIDTH 1000 0
DWIDTH 16 0
BBX 16 16 0 0
BITMAP 
0000
0000
0000
0000
0000
0000
2100
7200
2400
0800
1200
2700
4200
0000
0000
0000
ENDCHAR
STARTCHAR U+0066B
ENCODING 1643
SWIDTH 1000 0
DWIDTH 16 0
BBX 16 16 0 0
BITMAP 
0000
0000
0000
0000
0000
0000
0000
0000
0000
0000
0000
0C00
0C00
0400
0800
0000
ENDCHAR
STARTCHAR U+0066C
ENCODING 1644
SWIDTH 1000 0
DWIDTH 16 0
BBX 16 16 0 0
BITMAP 
0000
0000
0000
0000
0C00
0C00
0400
0800
0000
0000
0000
0000
0000
0000
0000
0000
ENDCHAR
STARTCHAR U+0066D
ENCODING 1645
SWIDTH 1000 0
DWIDTH 16 0
BBX 16 16 0 0
BITMAP 
0000
0000
0000
0000
0000
0800
3E00
1C00
1C00
2200
0000
0000
0000
0000
0000
0000
ENDCHAR
STARTCHAR U+0066E
ENCODING 1646
SWIDTH 1000 0
DWIDTH 16 0
BBX 16 16 0 0
BITMAP 
0000
0000
0000
0000
0000
0000
0000
0000
0000
8080
8080
FF80
7F00
0000
0000
0000
ENDCHAR
STARTCHAR U+0066F
ENCODING 1647
SWIDTH 1000 0
DWIDTH 16 0
BBX 16 16 0 0
BITMAP 
0000
0000
0000
0000
0000
0000
0000
0000
0700
0F80
0880
4F80
4780
6180
3F00
1E00
ENDCHAR
STARTCHAR U+00671
ENCODING 1649
SWIDTH 1000 0
DWIDTH 16 0
BBX 16 16 0 0
BITMAP 
0000
0000
0300
0480
1F00
0000
0400
0400
0400
0400
0400
0400
0400
0400
0400
0000
ENDCHAR
STARTCHAR U+00672
ENCODING 1650
SWIDTH 1000 0
DWIDTH 16 0
BBX 16 16 0 0
BITMAP 
0000
0000
0300
3400
6F00
0000
0400
0400
0400
0400
0400
0400
0400
0400
0400
0000
ENDCHAR
STARTCHAR U+00673
ENCODING 1651
SWIDTH 1000 0
DWIDTH 16 0
BBX 16 16 0 0
BITMAP 
0000
0000
0400
0400
0400
0400
0400
0400
0400
0400
0400
0400
0400
0300
3400
6F00
ENDCHAR
STARTCHAR U+00674
ENCODING 1652
SWIDTH 1000 0
DWIDTH 16 0
BBX 16 16 0 0
BITMAP 
0000
0000
0000
1800
2000
3800
0000
0000
0000
0000
0000
0000
0000
0000
0000
0000
ENDCHAR
STARTCHAR U+00675
ENCODING 1653
SWIDTH 1000 0
DWIDTH 16 0
BBX 16 16 0 0
BITMAP 
0000
0300
2400
2700
2000
2000
2000
2000
2000
2000
2000
2000
2000
0000
0000
0000
ENDCHAR
STARTCHAR U+00676
ENCODING 1654
SWIDTH 1000 0
DWIDTH 16 0
BBX 16 16 0 0
BITMAP 
0000
0000
0000
0000
0180
0200
0380
0000
3800
7C00
4400
7C00
3C00
0800
3800
3000
ENDCHAR
STARTCHAR U+00677
ENCODING 1655
SWIDTH 1000 0
DWIDTH 16 0
BBX 16 16 0 0
BITMAP 
0000
0000
0000
4000
A300
6400
2700
4000
1C00
3E00
2200
3E00
1E00
0400
1C00
1800
ENDCHAR
STARTCHAR U+00678
ENCODING 1656
SWIDTH 1000 0
DWIDTH 16 0
BBX 16 16 0 0
BITMAP 
0000
0000
0180
0200
0380
0000
0780
0F80
0800
0F00
8780
8080
FF80
7F00
0000
0000
ENDCHAR
STARTCHAR U+00679
ENCODING 1657
SWIDTH 1000 0
DWIDTH 16 0
BBX 16 16 0 0
BITMAP 
0000
0000
0000
0000
1000
1C00
1200
3C00
0000
8080
8080
FF80
7F00
0000
0000
0000
ENDCHAR
STARTCHAR U+0067A
ENCODING 1658
SWIDTH 1000 0
DWIDTH 16 0
BBX 16 16 0 0
BITMAP 
0000
0000
0000
0000
0000
0800
0000
0800
0000
8080
8080
FF80
7F00
0000
0000
0000
ENDCHAR
STARTCHAR U+0067B
ENCODING 1659
SWIDTH 1000 0
DWIDTH 16 0
BBX 16 16 0 0
BITMAP 
0000
0000
0000
0000
0000
0000
0000
0000
0000
8080
8080
FF80
7F00
0800
0000
0800
ENDCHAR
STARTCHAR U+0067C
ENCODING 1660
SWIDTH 1000 0
DWIDTH 16 0
BBX 16 16 0 0
BITMAP 
0000
0000
0000
0000
0000
0000
0000
1400
0000
8080
8080
FF80
7F00
0800
1400
0800
ENDCHAR
STARTCHAR U+0067D
ENCODING 1661
SWIDTH 1000 0
DWIDTH 16 0
BBX 16 16 0 0
BITMAP 
0000
0000
0000
0000
0000
1400
0000
0800
0000
8080
8080
FF80
7F00
0000
0000
0000
ENDCHAR
STARTCHAR U+0067E
ENCODING 1662
SWIDTH 1000 0
DWIDTH 16 0
BBX 16 16 0 0
BITMAP 
0000
0000
0000
0000
0000
0000
0000
0000
0000
8080
8080
FF80
7F00
0000
2A00
0000
ENDCHAR
STARTCHAR U+0067F
ENCODING 1663
SWIDTH 1000 0
DWIDTH 16 0
BBX 16 16 0 0
BITMAP 
0000
0000
0000
0000
0000
1400
0000
1400
0000
8080
8080
FF80
7F00
0000
0000
0000
ENDCHAR
STARTCHAR U+00680
ENCODING 1664
SWIDTH 1000 0
DWIDTH 16 0
BBX 16 16 0 0
BITMAP 
0000
0000
0000
0000
0000
0000
0000
0000
0000
8080
8080
FF80
7F00
1400
0000
1400
ENDCHAR
STARTCHAR U+00681
ENCODING 1665
SWIDTH 1000 0
DWIDTH 16 0
BBX 16 16 0 0
BITMAP 
0000
0000
0C00
1000
1C00
0000
3C00
6600
0300
3F80
7F00
C000
8000
C000
7F00
3E00
ENDCHAR
STARTCHAR U+00682
ENCODING 1666
SWIDTH 1000 0
DWIDTH 16 0
BBX 16 16 0 0
BITMAP 
0000
0000
0800
0000
0800
0000
3C00
6600
0300
3F80
7F00
C000
8000
C000
7F00
3E00
ENDCHAR
STARTCHAR U+00683
ENCODING 1667
SWIDTH 1000 0
DWIDTH 16 0
BBX 16 16 0 0
BITMAP 
0000
0000
0000
0000
0000
0000
3C00
6600
0300
3F80
7F00
C000
8A00
C000
7F00
3E00
ENDCHAR
STARTCHAR U+00684
ENCODING 1668
SWIDTH 1000 0
DWIDTH 16 0
BBX 16 16 0 0
BITMAP 
0000
0000
0000
0000
0000
3C00
6600
0300
3F80
7F00
C000
8800
8000
C800
6100
3E00
ENDCHAR
STARTCHAR U+00685
ENCODING 1669
SWIDTH 1000 0
DWIDTH 16 0
BBX 16 16 0 0
BITMAP 
0000
0000
0800
0000
1400
0000
3C00
6600
0300
3F80
7F00
C000
8000
C000
7F00
3E00
ENDCHAR
STARTCHAR U+00686
ENCODING 1670
SWIDTH 1000 0
DWIDTH 16 0
BBX 16 16 0 0
BITMAP 
0000
0000
0000
0000
0000
0000
3C00
6600
0300
3F80
7F00
C000
9500
C000
7F00
3E00
ENDCHAR
STARTCHAR U+00687
ENCODING 1671
SWIDTH 1000 0
DWIDTH 16 0
BBX 16 16 0 0
BITMAP 
0000
0000
0000
0000
0000
3C00
6600
0300
3F80
7F00
C000
9400
8000
D400
6100
3E00
ENDCHAR
STARTCHAR U+00688
ENCODING 1672
SWIDTH 1000 0
DWIDTH 16 0
BBX 16 16 0 0
BITMAP 
0000
0000
2000
3800
2400
7800
0000
3000
3800
0C00
0600
7E00
7C00
0000
0000
0000
ENDCHAR
STARTCHAR U+00689
ENCODING 1673
SWIDTH 1000 0
DWIDTH 16 0
BBX 16 16 0 0
BITMAP 
0000
0000
0000
0000
0000
0000
0000
3000
3800
0C00
0600
7E00
7C00
1000
2800
1000
ENDCHAR
STARTCHAR U+0068A
ENCODING 1674
SWIDTH 1000 0
DWIDTH 16 0
BBX 16 16 0 0
BITMAP 
0000
0000
0000
0000
0000
0000
0000
3000
3800
0C00
0600
7E00
7C00
0000
1000
0000
ENDCHAR
STARTCHAR U+0068B
ENCODING 1675
SWIDTH 1000 0
DWIDTH 16 0
BBX 16 16 0 0
BITMAP 
0000
0000
2000
3800
2400
7800
0000
3000
3800
0C00
0600
7E00
7C00
0000
1000
0000
ENDCHAR
STARTCHAR U+0068C
ENCODING 1676
SWIDTH 1000 0
DWIDTH 16 0
BBX 16 16 0 0
BITMAP 
0000
0000
0000
0000
0000
2800
0000
3000
3800
0C00
0600
7E00
7C00
0000
0000
0000
ENDCHAR
STARTCHAR U+0068D
ENCODING 1677
SWIDTH 1000 0
DWIDTH 16 0
BBX 16 16 0 0
BITMAP 
0000
0000
0000
0000
0000
0000
0000
3000
3800
0C00
0600
7E00
7C00
0000
2800
0000
ENDCHAR
STARTCHAR U+0068E
ENCODING 1678
SWIDTH 1000 0
DWIDTH 16 0
BBX 16 16 0 0
BITMAP 
0000
0000
0000
1000
0000
2800
0000
3000
3800
0C00
0600
7E00
7C00
0000
0000
0000
ENDCHAR
STARTCHAR U+0068F
ENCODING 1679
SWIDTH 1000 0
DWIDTH 16 0
BBX 16 16 0 0
BITMAP 
0000
0000
0000
2800
0000
1000
0000
3000
3800
0C00
0600
7E00
7C00
0000
0000
0000
ENDCHAR
STARTCHAR U+00690
ENCODING 1680
SWIDTH 1000 0
DWIDTH 16 0
BBX 16 16 0 0
BITMAP 
0000
0000
0000
2800
0000
2800
0000
3000
3800
0C00
0600
7E00
7C00
0000
0000
0000
ENDCHAR
STARTCHAR U+00691
ENCODING 1681
SWIDTH 1000 0
DWIDTH 16 0
BBX 16 16 0 0
BITMAP 
0000
0000
0000
0800
0E00
0900
1E00
0000
0400
0400
0400
0400
0C00
0800
3800
3000
ENDCHAR
STARTCHAR U+00692
ENCODING 1682
SWIDTH 1000 0
DWIDTH 16 0
BBX 16 16 0 0
BITMAP 
0000
0000
0000
0000
0A00
0A00
0400
0000
0400
0400
0400
0400
0C00
0800
3800
3000
ENDCHAR
STARTCHAR U+00693
ENCODING 1683
SWIDTH 1000 0
DWIDTH 16 0
BBX 16 16 0 0
BITMAP 
0000
0000
0000
0000
0000
0000
0000
0000
0400
0400
0400
0400
0C00
0A00
3A00
3400
ENDCHAR
STARTCHAR U+00694
ENCODING 1684
SWIDTH 1000 0
DWIDTH 16 0
BBX 16 16 0 0
BITMAP 
0000
0000
0000
0000
0000
0000
0000
0000
0400
0400
0400
0400
0C00
0800
3A00
3000
ENDCHAR
STARTCHAR U+00695
ENCODING 1685
SWIDTH 1000 0
DWIDTH 16 0
BBX 16 16 0 0
BITMAP 
0000
0000
0000
0000
0000
0000
0000
0000
0400
0400
0400
0400
0C00
0800
3A80
3100
ENDCHAR
STARTCHAR U+00696
ENCODING 1686
SWIDTH 1000 0
DWIDTH 16 0
BBX 16 16 0 0
BITMAP 
0000
0000
0000
0000
0000
0000
0000
0000
0400
0400
0400
2400
0C00
0800
3A00
3000
ENDCHAR
ENDFONT
